  0
SECTION
  2
HEADER
  9
$ACADVER
  1
AC1027
  9
$ACADMAINTVER
 70
   125
  9
$DWGCODEPAGE
  3
ANSI_1252
  9
$LASTSAVEDBY
  1
yatishkale
  9
$REQUIREDVERSIONS
160
                 0
  9
$INSBASE
 10
0.0
 20
0.0
 30
0.0
  9
$EXTMIN
 10
249.500511
 20
94.756062
 30
0.0
  9
$EXTMAX
 10
364.012221
 20
149.399676
 30
0.0
  9
$LIMMIN
 10
0.0
 20
0.0
  9
$LIMMAX
 10
420.0
 20
297.0
  9
$ORTHOMODE
 70
     0
  9
$REGENMODE
 70
     1
  9
$FILLMODE
 70
     1
  9
$QTEXTMODE
 70
     0
  9
$MIRRTEXT
 70
     0
  9
$LTSCALE
 40
0.75
  9
$ATTMODE
 70
     1
  9
$TEXTSIZE
 40
3.5
  9
$TRACEWID
 40
1.0
  9
$TEXTSTYLE
  7
Standard
  9
$CLAYER
  8
0
  9
$CELTYPE
  6
ByLayer
  9
$CECOLOR
 62
   256
  9
$CELTSCALE
 40
1.0
  9
$DISPSILH
 70
     0
  9
$DIMSCALE
 40
1.0
  9
$DIMASZ
 40
3.5
  9
$DIMEXO
 40
2.1
  9
$DIMDLI
 40
10.5
  9
$DIMRND
 40
0.0
  9
$DIMDLE
 40
0.0
  9
$DIMEXE
 40
2.1
  9
$DIMTP
 40
0.1
  9
$DIMTM
 40
0.1
  9
$DIMTXT
 40
3.5
  9
$DIMCEN
 40
0.0
  9
$DIMTSZ
 40
0.0
  9
$DIMTOL
 70
     0
  9
$DIMLIM
 70
     0
  9
$DIMTIH
 70
     0
  9
$DIMTOH
 70
     0
  9
$DIMSE1
 70
     0
  9
$DIMSE2
 70
     0
  9
$DIMTAD
 70
     1
  9
$DIMZIN
 70
    12
  9
$DIMBLK
  1

  9
$DIMASO
 70
     1
  9
$DIMSHO
 70
     1
  9
$DIMPOST
  1

  9
$DIMAPOST
  1

  9
$DIMALT
 70
     0
  9
$DIMALTD
 70
     2
  9
$DIMALTF
 40
0.03937
  9
$DIMLFAC
 40
1.0
  9
$DIMTOFL
 70
     1
  9
$DIMTVP
 40
0.0
  9
$DIMTIX
 70
     0
  9
$DIMSOXD
 70
     0
  9
$DIMSAH
 70
     0
  9
$DIMBLK1
  1

  9
$DIMBLK2
  1

  9
$DIMSTYLE
  2
Dim-ISO-25
  9
$DIMCLRD
 70
     0
  9
$DIMCLRE
 70
     0
  9
$DIMCLRT
 70
     0
  9
$DIMTFAC
 40
0.714286
  9
$DIMGAP
 40
1.4
  9
$DIMJUST
 70
     0
  9
$DIMSD1
 70
     0
  9
$DIMSD2
 70
     0
  9
$DIMTOLJ
 70
     0
  9
$DIMTZIN
 70
    12
  9
$DIMALTZ
 70
    12
  9
$DIMALTTZ
 70
    12
  9
$DIMUPT
 70
     0
  9
$DIMDEC
 70
     2
  9
$DIMTDEC
 70
     2
  9
$DIMALTU
 70
     2
  9
$DIMALTTD
 70
     4
  9
$DIMTXSTY
  7
Standard
  9
$DIMAUNIT
 70
     0
  9
$DIMADEC
 70
     2
  9
$DIMALTRND
 40
0.0
  9
$DIMAZIN
 70
     3
  9
$DIMDSEP
 70
    46
  9
$DIMATFIT
 70
     3
  9
$DIMFRAC
 70
     0
  9
$DIMLDRBLK
  1

  9
$DIMLUNIT
 70
     2
  9
$DIMLWD
 70
    -2
  9
$DIMLWE
 70
    -2
  9
$DIMTMOVE
 70
     0
  9
$DIMFXL
 40
1.0
  9
$DIMFXLON
 70
     0
  9
$DIMJOGANG
 40
0.785398
  9
$DIMTFILL
 70
     0
  9
$DIMTFILLCLR
 70
     0
  9
$DIMARCSYM
 70
     0
  9
$DIMLTYPE
  6

  9
$DIMLTEX1
  6

  9
$DIMLTEX2
  6

  9
$DIMTXTDIRECTION
 70
     0
  9
$LUNITS
 70
     2
  9
$LUPREC
 70
     4
  9
$SKETCHINC
 40
1.0
  9
$FILLETRAD
 40
0.0
  9
$AUNITS
 70
     0
  9
$AUPREC
 70
     0
  9
$MENU
  1
.
  9
$ELEVATION
 40
0.0
  9
$PELEVATION
 40
0.0
  9
$THICKNESS
 40
0.0
  9
$LIMCHECK
 70
     0
  9
$CHAMFERA
 40
0.0
  9
$CHAMFERB
 40
0.0
  9
$CHAMFERC
 40
0.0
  9
$CHAMFERD
 40
0.0
  9
$SKPOLY
 70
     0
  9
$TDCREATE
 40
2460305.566192130
  9
$TDUCREATE
 40
2460305.482858796
  9
$TDUPDATE
 40
2460305.566192130
  9
$TDUUPDATE
 40
2460305.482858796
  9
$TDINDWG
 40
0.0000000000
  9
$TDUSRTIMER
 40
0.0000000000
  9
$USRTIMER
 70
     1
  9
$ANGBASE
 50
0.0
  9
$ANGDIR
 70
     0
  9
$PDMODE
 70
     0
  9
$PDSIZE
 40
0.0
  9
$PLINEWID
 40
0.0
  9
$SPLFRAME
 70
     0
  9
$SPLINETYPE
 70
     6
  9
$SPLINESEGS
 70
     8
  9
$HANDSEED
  5
2AE
  9
$SURFTAB1
 70
     6
  9
$SURFTAB2
 70
     6
  9
$SURFTYPE
 70
     6
  9
$SURFU
 70
     6
  9
$SURFV
 70
     6
  9
$UCSBASE
  2

  9
$UCSNAME
  2

  9
$UCSORG
 10
0.0
 20
0.0
 30
0.0
  9
$UCSXDIR
 10
1.0
 20
0.0
 30
0.0
  9
$UCSYDIR
 10
0.0
 20
1.0
 30
0.0
  9
$UCSORTHOREF
  2

  9
$UCSORTHOVIEW
 70
     0
  9
$UCSORGTOP
 10
0.0
 20
0.0
 30
0.0
  9
$UCSORGBOTTOM
 10
0.0
 20
0.0
 30
0.0
  9
$UCSORGLEFT
 10
0.0
 20
0.0
 30
0.0
  9
$UCSORGRIGHT
 10
0.0
 20
0.0
 30
0.0
  9
$UCSORGFRONT
 10
0.0
 20
0.0
 30
0.0
  9
$UCSORGBACK
 10
0.0
 20
0.0
 30
0.0
  9
$PUCSBASE
  2

  9
$PUCSNAME
  2

  9
$PUCSORG
 10
0.0
 20
0.0
 30
0.0
  9
$PUCSXDIR
 10
1.0
 20
0.0
 30
0.0
  9
$PUCSYDIR
 10
0.0
 20
1.0
 30
0.0
  9
$PUCSORTHOREF
  2

  9
$PUCSORTHOVIEW
 70
     0
  9
$PUCSORGTOP
 10
0.0
 20
0.0
 30
0.0
  9
$PUCSORGBOTTOM
 10
0.0
 20
0.0
 30
0.0
  9
$PUCSORGLEFT
 10
0.0
 20
0.0
 30
0.0
  9
$PUCSORGRIGHT
 10
0.0
 20
0.0
 30
0.0
  9
$PUCSORGFRONT
 10
0.0
 20
0.0
 30
0.0
  9
$PUCSORGBACK
 10
0.0
 20
0.0
 30
0.0
  9
$USERI1
 70
     0
  9
$USERI2
 70
     0
  9
$USERI3
 70
     0
  9
$USERI4
 70
     0
  9
$USERI5
 70
     0
  9
$USERR1
 40
0.0
  9
$USERR2
 40
0.0
  9
$USERR3
 40
0.0
  9
$USERR4
 40
0.0
  9
$USERR5
 40
0.0
  9
$WORLDVIEW
 70
     1
  9
$SHADEDGE
 70
     3
  9
$SHADEDIF
 70
    70
  9
$TILEMODE
 70
     1
  9
$MAXACTVP
 70
    64
  9
$PINSBASE
 10
0.0
 20
0.0
 30
0.0
  9
$PLIMCHECK
 70
     0
  9
$PEXTMIN
 10
1.000000E+20
 20
1.000000E+20
 30
1.000000E+20
  9
$PEXTMAX
 10
-1.000000E+20
 20
-1.000000E+20
 30
-1.000000E+20
  9
$PLIMMIN
 10
0.0
 20
0.0
  9
$PLIMMAX
 10
12.0
 20
9.0
  9
$UNITMODE
 70
     0
  9
$VISRETAIN
 70
     1
  9
$PLINEGEN
 70
     0
  9
$PSLTSCALE
 70
     1
  9
$TREEDEPTH
 70
  3020
  9
$CMLSTYLE
  2
Standard
  9
$CMLJUST
 70
     0
  9
$CMLSCALE
 40
20.0
  9
$PROXYGRAPHICS
 70
     1
  9
$MEASUREMENT
 70
     1
  9
$CELWEIGHT
370
    -1
  9
$ENDCAPS
280
     0
  9
$JOINSTYLE
280
     0
  9
$LWDISPLAY
290
     0
  9
$INSUNITS
 70
     4
  9
$HYPERLINKBASE
  1

  9
$STYLESHEET
  1

  9
$XEDIT
290
     1
  9
$CEPSNTYPE
380
     0
  9
$PSTYLEMODE
290
     1
  9
$FINGERPRINTGUID
  2
{3EB84AAA-B774-9845-8B7B-AA683995121C}
  9
$VERSIONGUID
  2
{B2529116-AC56-FB42-88C5-7774919167F4}
  9
$EXTNAMES
290
     1
  9
$PSVPSCALE
 40
0.0
  9
$OLESTARTUP
290
     0
  9
$SORTENTS
280
   127
  9
$INDEXCTL
280
     0
  9
$HIDETEXT
280
     1
  9
$XCLIPFRAME
280
     0
  9
$HALOGAP
280
     0
  9
$OBSCOLOR
 70
   257
  9
$OBSLTYPE
280
     0
  9
$INTERSECTIONDISPLAY
280
     0
  9
$INTERSECTIONCOLOR
 70
   257
  9
$DIMASSOC
280
     2
  9
$PROJECTNAME
  1

  9
$CAMERADISPLAY
290
     0
  9
$LENSLENGTH
 40
50.0
  9
$CAMERAHEIGHT
 40
0.0
  9
$STEPSPERSEC
 40
2.0
  9
$STEPSIZE
 40
6.0
  9
$3DDWFPREC
 40
2.0
  9
$PSOLWIDTH
 40
5.0
  9
$PSOLHEIGHT
 40
80.0
  9
$LOFTANG1
 40
1.570796
  9
$LOFTANG2
 40
1.570796
  9
$LOFTMAG1
 40
0.0
  9
$LOFTMAG2
 40
0.0
  9
$LOFTPARAM
 70
     7
  9
$LOFTNORMALS
280
     1
  9
$LATITUDE
 40
37.795
  9
$LONGITUDE
 40
-122.394
  9
$NORTHDIRECTION
 40
0.0
  9
$TIMEZONE
 70
 -8000
  9
$LIGHTGLYPHDISPLAY
280
     1
  9
$TILEMODELIGHTSYNCH
280
     1
  9
$CMATERIAL
347
11
  9
$SOLIDHIST
280
     0
  9
$SHOWHIST
280
     1
  9
$DWFFRAME
280
     2
  9
$DGNFRAME
280
     0
  9
$REALWORLDSCALE
290
     1
  9
$INTERFERECOLOR
 62
     1
  9
$INTERFEREOBJVS
345
33
  9
$INTERFEREVPVS
346
30
  9
$CSHADOW
280
     0
  9
$SHADOWPLANELOCATION
 40
0.0
  0
ENDSEC
  0
SECTION
  2
CLASSES
  0
CLASS
  1
ACDBDICTIONARYWDFLT
  2
AcDbDictionaryWithDefault
  3
ObjectDBX Classes
 90
        0
 91
        1
280
     0
281
     0
  0
CLASS
  1
MATERIAL
  2
AcDbMaterial
  3
ObjectDBX Classes
 90
     1153
 91
        3
280
     0
281
     0
  0
CLASS
  1
VISUALSTYLE
  2
AcDbVisualStyle
  3
ObjectDBX Classes
 90
     4095
 91
       24
280
     0
281
     0
  0
CLASS
  1
SCALE
  2
AcDbScale
  3
ObjectDBX Classes
 90
     1153
 91
       34
280
     0
281
     0
  0
CLASS
  1
TABLESTYLE
  2
AcDbTableStyle
  3
ObjectDBX Classes
 90
     4095
 91
        1
280
     0
281
     0
  0
CLASS
  1
MLEADERSTYLE
  2
AcDbMLeaderStyle
  3
ACDB_MLEADERSTYLE_CLASS
 90
     4095
 91
        1
280
     0
281
     0
  0
CLASS
  1
ACDBSECTIONVIEWSTYLE
  2
AcDbSectionViewStyle
  3
ObjectDBX Classes
 90
     1025
 91
        1
280
     0
281
     0
  0
CLASS
  1
ACDBDETAILVIEWSTYLE
  2
AcDbDetailViewStyle
  3
ObjectDBX Classes
 90
     1025
 91
        1
280
     0
281
     0
  0
CLASS
  1
ACMESCOPE
  2
AcMeScope
  3
AcMeServices
 90
     1024
 91
        1
280
     0
281
     0
  0
CLASS
  1
ACMECOMMANDHISTORY
  2
AcMeCommandHistory
  3
AcMeServices
 90
     1024
 91
        1
280
     0
281
     0
  0
CLASS
  1
ACIMSYSVARMAN
  2
AcImSysVarManager
  3
AcMeServices
 90
     1024
 91
        1
280
     0
281
     0
  0
CLASS
  1
ACIMINTSYSVAR
  2
AcImIntSysVar
  3
AcMeServices
 90
     1024
 91
        1
280
     0
281
     0
  0
CLASS
  1
ACMESTATEMGR
  2
AcMeStateMgr
  3
AcMeServices
 90
     1024
 91
        1
280
     0
281
     0
  0
CLASS
  1
ACGREFMASTER
  2
AcGrefMaster
  3
AcAttribServices
 90
     1024
 91
        1
280
     0
281
     0
  0
CLASS
  1
SORTENTSTABLE
  2
AcDbSortentsTable
  3
ObjectDBX Classes
 90
        0
 91
        1
280
     0
281
     0
  0
CLASS
  1
DICTIONARYVAR
  2
AcDbDictionaryVar
  3
ObjectDBX Classes
 90
        0
 91
        6
280
     0
281
     0
  0
CLASS
  1
CELLSTYLEMAP
  2
AcDbCellStyleMap
  3
ObjectDBX Classes
 90
     1152
 91
        1
280
     0
281
     0
  0
ENDSEC
  0
SECTION
  2
TABLES
  0
TABLE
  2
VPORT
  5
8
330
0
100
AcDbSymbolTable
 70
     1
1001
ACAD
1000
DbSaveVer
1071
      298
  0
VPORT
  5
57
330
8
100
AcDbSymbolTableRecord
100
AcDbViewportTableRecord
  2
*Active
 70
     0
 10
0.0
 20
0.0
 11
1.0
 21
1.0
 12
306.756366
 22
122.077869
 13
0.0
 23
0.0
 14
0.5
 24
0.5
 15
0.0
 25
0.0
 16
0.0
 26
0.0
 36
1.0
 17
0.0
 27
0.0
 37
0.0
 40
54.643614
 41
2.577358
 42
50.0
 43
0.0
 44
0.0
 50
0.0
 51
0.0
 71
     0
 72
 20000
 73
     1
 74
     0
 75
     0
 76
     0
 77
     0
 78
     0
281
     0
 65
     1
110
0.0
120
0.0
130
0.0
111
1.0
121
0.0
131
0.0
112
0.0
122
1.0
132
0.0
 79
     0
146
0.0
348
2F
 60
     3
 61
     5
292
     1
282
     1
141
0.0
142
0.0
 63
   250
421
  3355443
  0
ENDTAB
  0
TABLE
  2
LTYPE
  5
5
330
0
100
AcDbSymbolTable
 70
    14
  0
LTYPE
  5
5B
330
5
100
AcDbSymbolTableRecord
100
AcDbLinetypeTableRecord
  2
ByBlock
 70
     0
  3

 72
    65
 73
     0
 40
0.0
  0
LTYPE
  5
5C
330
5
100
AcDbSymbolTableRecord
100
AcDbLinetypeTableRecord
  2
ByLayer
 70
     0
  3

 72
    65
 73
     0
 40
0.0
  0
LTYPE
  5
5D
330
5
100
AcDbSymbolTableRecord
100
AcDbLinetypeTableRecord
  2
Continuous
 70
     0
  3
Solid line
 72
    65
 73
     0
 40
0.0
  0
LTYPE
  5
80
330
5
100
AcDbSymbolTableRecord
100
AcDbLinetypeTableRecord
  2
HIDDEN
 70
     0
  3
Hidden __ __ __ __ __ __ __ __ __ __ __ __ __ _
 72
    65
 73
     2
 40
9.525
 49
6.35
 74
     0
 49
-3.175
 74
     0
  0
LTYPE
  5
81
330
5
100
AcDbSymbolTableRecord
100
AcDbLinetypeTableRecord
  2
PHANTOM2
 70
     0
  3
Phantom (.5x) ___ _ _ ___ _ _ ___ _ _ ___ _ _
 72
    65
 73
     6
 40
31.75
 49
15.875
 74
     0
 49
-3.175
 74
     0
 49
3.175
 74
     0
 49
-3.175
 74
     0
 49
3.175
 74
     0
 49
-3.175
 74
     0
  0
LTYPE
  5
82
330
5
100
AcDbSymbolTableRecord
100
AcDbLinetypeTableRecord
  2
CENTER
 70
     0
  3
Center ____ _ ____ _ ____ _ ____ _ ____ _ ____
 72
    65
 73
     4
 40
50.8
 49
31.75
 74
     0
 49
-6.35
 74
     0
 49
6.35
 74
     0
 49
-6.35
 74
     0
  0
LTYPE
  5
90
330
5
100
AcDbSymbolTableRecord
100
AcDbLinetypeTableRecord
  2
AM_ISO02W050
 70
     0
  3
__ __ __ __ __ __ __ __ __ __ __ __ __ __ __
 72
    65
 73
     2
 40
7.5
 49
6.0
 74
     0
 49
-1.5
 74
     0
  0
LTYPE
  5
91
330
5
100
AcDbSymbolTableRecord
100
AcDbLinetypeTableRecord
  2
AM_ISO08W050
 70
     0
  3
____ . ____ . ____ . ____ . ____ . ____ . ____
 72
    65
 73
     4
 40
18.0
 49
12.0
 74
     0
 49
-1.5
 74
     0
 49
3.0
 74
     0
 49
-1.5
 74
     0
  0
LTYPE
  5
92
330
5
100
AcDbSymbolTableRecord
100
AcDbLinetypeTableRecord
  2
AM_ISO09W050
 70
     0
  3
_____ . . _____ . . _____ . . ____ .. ____
 72
    65
 73
     6
 40
22.5
 49
12.0
 74
     0
 49
-1.5
 74
     0
 49
3.0
 74
     0
 49
-1.5
 74
     0
 49
3.0
 74
     0
 49
-1.5
 74
     0
  0
LTYPE
  5
93
330
5
100
AcDbSymbolTableRecord
100
AcDbLinetypeTableRecord
  2
Amconstr
 70
     0
  3
_______________________
 72
    65
 73
     2
 40
9999.0
 49
9999.0
 74
     0
 49
0.0
 74
     0
  0
LTYPE
  5
94
330
5
100
AcDbSymbolTableRecord
100
AcDbLinetypeTableRecord
  2
AM_ISO08W050x2
 70
     0
  3
__ . __ . __ . __ . __ . __
 72
    65
 73
     4
 40
9.0
 49
6.0
 74
     0
 49
-0.75
 74
     0
 49
1.5
 74
     0
 49
-0.75
 74
     0
  0
LTYPE
  5
95
330
5
100
AcDbSymbolTableRecord
100
AcDbLinetypeTableRecord
  2
AM_ISO02W050x2
 70
     0
  3
 _ _ _ _ _ _ _ _ _ _ _ _
 72
    65
 73
     2
 40
3.75
 49
3.0
 74
     0
 49
-0.75
 74
     0
  0
LTYPE
  5
96
330
5
100
AcDbSymbolTableRecord
100
AcDbLinetypeTableRecord
  2
Amzigzag
 70
     0
  3
/\/-/\/-/\/-/\/-/\/-/\/
 72
    65
 73
     2
 40
11.0001
 49
0.0001
 74
     4
 75
   136
340
8D
 46
0.04
 50
0.0
 44
0.0
 45
0.0
 49
-11.0
 74
     0
  0
LTYPE
  5
97
330
5
100
AcDbSymbolTableRecord
100
AcDbLinetypeTableRecord
  2
ACISOWELD
 70
     0
  3
_ _ _ _ _
 72
    65
 73
     2
 40
2.0
 49
2.0
 74
     0
 49
-1.0
 74
     0
  0
LTYPE
  5
98
330
5
100
AcDbSymbolTableRecord
100
AcDbLinetypeTableRecord
  2
ACISOTGL
 70
     0
  3
_ _ _ _ _
 72
    65
 73
     2
 40
3.0
 49
2.0
 74
     0
 49
-1.0
 74
     0
  0
LTYPE
  5
99
330
5
100
AcDbSymbolTableRecord
100
AcDbLinetypeTableRecord
  2
ACISOTGB
 70
     0
  3
__ . . __ . .
 72
    65
 73
     6
 40
9.0
 49
4.0
 74
     0
 49
-1.0
 74
     0
 49
1.0
 74
     0
 49
-1.0
 74
     0
 49
1.0
 74
     0
 49
-1.0
 74
     0
  0
ENDTAB
  0
TABLE
  2
LAYER
  5
2
330
0
100
AcDbSymbolTable
 70
     3
  0
LAYER
  5
54
330
2
100
AcDbSymbolTableRecord
100
AcDbLayerTableRecord
  2
0
 70
     0
 62
     7
  6
Continuous
370
    -3
390
F
347
21
348
0
1001
AcAecLayerStandard
1000

1000

  0
LAYER
  5
B6
330
2
100
AcDbSymbolTableRecord
100
AcDbLayerTableRecord
  2
Visible
 70
     0
 62
     7
  6
Continuous
370
    50
390
F
347
21
348
0
  0
ENDTAB
  0
TABLE
  2
STYLE
  5
3
330
0
100
AcDbSymbolTable
 70
     4
  0
STYLE
  5
55
330
3
100
AcDbSymbolTableRecord
100
AcDbTextStyleTableRecord
  2
Standard
 70
     0
 40
0.0
 41
1.0
 50
0.0
 71
     0
 42
3.5
  3
arial.ttf
  4

1001
ACAD
1000
Arial
1071
       34
  0
STYLE
  5
5A
330
3
100
AcDbSymbolTableRecord
100
AcDbTextStyleTableRecord
  2
Annotative
 70
     0
 40
0.0
 41
1.0
 50
0.0
 71
     0
 42
0.2
  3
txt
  4

1001
AcadAnnotative
1000
AnnotativeData
1002
{
1070
     1
1070
     1
1002
}
  0
STYLE
  5
8D
330
3
100
AcDbSymbolTableRecord
100
AcDbTextStyleTableRecord
  2

 70
     1
 40
0.0
 41
1.0
 50
0.0
 71
     0
 42
10.0
  3
genltshp.shx
  4

  0
STYLE
  5
8E
330
3
100
AcDbSymbolTableRecord
100
AcDbTextStyleTableRecord
  2
ACISOGDT
 70
     0
 40
0.0
 41
1.0
 50
0.0
 71
     0
 42
10.0
  3
amgdt.shx
  4

  0
ENDTAB
  0
TABLE
  2
VIEW
  5
6
330
0
100
AcDbSymbolTable
 70
     0
  0
ENDTAB
  0
TABLE
  2
UCS
  5
7
330
0
100
AcDbSymbolTable
 70
     0
  0
ENDTAB
  0
TABLE
  2
APPID
  5
9
330
0
100
AcDbSymbolTable
 70
    16
  0
APPID
  5
56
330
9
100
AcDbSymbolTableRecord
100
AcDbRegAppTableRecord
  2
ACAD
 70
     0
  0
APPID
  5
5E
330
9
100
AcDbSymbolTableRecord
100
AcDbRegAppTableRecord
  2
AcadAnnotative
 70
     0
  0
APPID
  5
78
330
9
100
AcDbSymbolTableRecord
100
AcDbRegAppTableRecord
  2
ACAD_PSEXT
 70
     0
  0
APPID
  5
79
330
9
100
AcDbSymbolTableRecord
100
AcDbRegAppTableRecord
  2
MCAD_NO_VIS
 70
     0
  0
APPID
  5
7A
330
9
100
AcDbSymbolTableRecord
100
AcDbRegAppTableRecord
  2
ACAD_TEMP_GRAPHIC
 70
     0
  0
APPID
  5
83
330
9
100
AcDbSymbolTableRecord
100
AcDbRegAppTableRecord
  2
ACAD_DSTYLE_DIMJAG
 70
     0
  0
APPID
  5
84
330
9
100
AcDbSymbolTableRecord
100
AcDbRegAppTableRecord
  2
ACAD_DSTYLE_DIMTALN
 70
     0
  0
APPID
  5
85
330
9
100
AcDbSymbolTableRecord
100
AcDbRegAppTableRecord
  2
ACAD_NAV_VCDISPLAY
 70
     0
  0
APPID
  5
86
330
9
100
AcDbSymbolTableRecord
100
AcDbRegAppTableRecord
  2
ACAD_DSTYLE_DIMBREAK
 70
     0
  0
APPID
  5
87
330
9
100
AcDbSymbolTableRecord
100
AcDbRegAppTableRecord
  2
FUSIONCURRENTTITLEBLOCK
 70
     0
  0
APPID
  5
88
330
9
100
AcDbSymbolTableRecord
100
AcDbRegAppTableRecord
  2
AcSynergy
 70
     0
  0
APPID
  5
89
330
9
100
AcDbSymbolTableRecord
100
AcDbRegAppTableRecord
  2
GENIUS_GENSCREG_15
 70
     0
  0
APPID
  5
8A
330
9
100
AcDbSymbolTableRecord
100
AcDbRegAppTableRecord
  2
GENIUS_GENOBJ-N-SDF_13
 70
     0
  0
APPID
  5
8B
330
9
100
AcDbSymbolTableRecord
100
AcDbRegAppTableRecord
  2
GENIUS_GENODEF_13
 70
     0
  0
APPID
  5
8C
330
9
100
AcDbSymbolTableRecord
100
AcDbRegAppTableRecord
  2
ACATTRIBSERVICES
 70
     0
  0
APPID
  5
29F
330
9
100
AcDbSymbolTableRecord
100
AcDbRegAppTableRecord
  2
AcAecLayerStandard
 70
     0
  0
ENDTAB
  0
TABLE
  2
DIMSTYLE
  5
A
330
0
100
AcDbSymbolTable
 70
     4
100
AcDbDimStyleTable
 71
     1
340
9D
  0
DIMSTYLE
105
58
330
A
100
AcDbSymbolTableRecord
100
AcDbDimStyleTableRecord
  2
Standard
 70
     0
 41
3.5
 42
2.1
 43
10.5
 44
2.1
 78
    12
 79
     3
140
3.5
143
0.03937
146
0.714286
147
1.4
179
     2
271
     2
272
     2
284
    12
340
55
  0
DIMSTYLE
105
59
330
A
100
AcDbSymbolTableRecord
100
AcDbDimStyleTableRecord
  2
Annotative
 70
     0
 40
0.0
 41
3.5
 42
2.1
 43
10.5
 44
2.1
 73
     0
 74
     0
 77
     1
 78
    12
 79
     3
140
3.5
141
2.5
143
0.03937
146
0.714286
147
1.4
171
     3
172
     1
179
     2
271
     2
272
     2
274
     3
278
    44
283
     0
284
    12
340
55
1001
AcadAnnotative
1000
AnnotativeData
1002
{
1070
     1
1070
     1
1002
}
  0
DIMSTYLE
105
9C
330
A
100
AcDbSymbolTableRecord
100
AcDbDimStyleTableRecord
  2
ISO-25
 70
     0
  4
in
 41
3.5
 42
2.1
 43
10.5
 44
2.1
 47
0.1
 48
0.1
 73
     0
 74
     0
 77
     1
 78
    12
 79
     3
140
3.5
141
0.0
143
0.03937
146
0.714286
147
1.4
171
     4
172
     1
176
   256
177
   256
178
   256
179
     2
271
     2
272
     2
274
     4
283
     0
284
    12
285
     8
340
55
1001
ACAD_DSTYLE_DIMJAG
1070
   388
1040
1.5
1001
ACAD_DSTYLE_DIMTALN
1070
   392
1070
     1
1001
ACAD_DSTYLE_DIMBREAK
1070
   391
1040
3.5
  0
DIMSTYLE
105
9D
330
A
100
AcDbSymbolTableRecord
100
AcDbDimStyleTableRecord
  2
Dim-ISO-25
 70
     0
 41
3.5
 42
2.1
 43
10.5
 44
2.1
 47
0.1
 48
0.1
 73
     0
 74
     0
 77
     1
 78
    12
 79
     3
140
3.5
141
0.0
143
0.03937
146
0.714286
147
1.4
172
     1
179
     2
271
     2
272
     2
274
     4
283
     0
284
    12
285
    12
286
    12
340
55
1001
ACAD_DSTYLE_DIMJAG
1070
   388
1040
1.5
1001
ACAD_DSTYLE_DIMTALN
1070
   392
1070
     1
1001
ACAD_DSTYLE_DIMBREAK
1070
   391
1040
3.5
  0
ENDTAB
  0
TABLE
  2
BLOCK_RECORD
  5
1
330
0
100
AcDbSymbolTable
 70
     2
  0
BLOCK_RECORD
  5
70
102
{ACAD_XDICTIONARY
360
AF
102
}
330
1
100
AcDbSymbolTableRecord
100
AcDbBlockTableRecord
  2
*Model_Space
340
73
 70
     0
280
     1
281
     0
  0
BLOCK_RECORD
  5
6C
330
1
100
AcDbSymbolTableRecord
100
AcDbBlockTableRecord
  2
*Paper_Space
340
6F
 70
     0
280
     1
281
     0
  0
BLOCK_RECORD
  5
74
330
1
100
AcDbSymbolTableRecord
100
AcDbBlockTableRecord
  2
*Paper_Space0
340
77
 70
     0
280
     1
281
     0
  0
ENDTAB
  0
ENDSEC
  0
SECTION
  2
BLOCKS
  0
BLOCK
  5
71
330
70
100
AcDbEntity
  8
0
100
AcDbBlockBegin
  2
*Model_Space
 70
     0
 10
0.0
 20
0.0
 30
0.0
  3
*Model_Space
  1

  0
ENDBLK
  5
72
330
70
100
AcDbEntity
  8
0
100
AcDbBlockEnd
  0
BLOCK
  5
6D
330
6C
100
AcDbEntity
 67
     1
  8
0
100
AcDbBlockBegin
  2
*Paper_Space
 70
     0
 10
0.0
 20
0.0
 30
0.0
  3
*Paper_Space
  1

  0
ENDBLK
  5
6E
330
6C
100
AcDbEntity
 67
     1
  8
0
100
AcDbBlockEnd
  0
BLOCK
  5
75
330
74
100
AcDbEntity
 67
     1
  8
0
100
AcDbBlockBegin
  2
*Paper_Space0
 70
     0
 10
0.0
 20
0.0
 30
0.0
  3
*Paper_Space0
  1

  0
ENDBLK
  5
76
330
74
100
AcDbEntity
 67
     1
  8
0
100
AcDbBlockEnd
  0
ENDSEC
  0
SECTION
  2
ENTITIES
  0
LINE
  5
1AB
330
70
100
AcDbEntity
  8
Visible
100
AcDbLine
 10
286.756429
 20
124.256062
 30
0.0
 11
286.756429
 21
116.256062
 31
0.0
210
-1.0
220
-0.0000000000000002
230
0.0
  0
LINE
  5
1AC
330
70
100
AcDbEntity
  8
Visible
100
AcDbLine
 10
286.756429
 20
116.256062
 30
0.0
 11
282.256429
 21
116.256062
 31
0.0
210
-1.0
220
-0.0000000000000002
230
0.0
  0
LINE
  5
1AD
330
70
100
AcDbEntity
  8
Visible
100
AcDbLine
 10
282.256429
 20
116.256062
 30
0.0
 11
282.256429
 21
124.256062
 31
0.0
210
-1.0
220
-0.0000000000000002
230
0.0
  0
LINE
  5
1AE
330
70
100
AcDbEntity
  8
Visible
100
AcDbLine
 10
282.256429
 20
124.256062
 30
0.0
 11
286.756429
 21
124.256062
 31
0.0
210
-1.0
220
-0.0000000000000002
230
0.0
  0
LINE
  5
1AF
330
70
100
AcDbEntity
  8
Visible
100
AcDbLine
 10
326.756429
 20
116.256062
 30
0.0
 11
326.756429
 21
124.256062
 31
0.0
210
-1.0
220
-0.0000000000000002
230
0.0
  0
LINE
  5
1B0
330
70
100
AcDbEntity
  8
Visible
100
AcDbLine
 10
326.756429
 20
124.256062
 30
0.0
 11
331.256429
 21
124.256062
 31
0.0
210
-1.0
220
-0.0000000000000002
230
0.0
  0
LINE
  5
1B1
330
70
100
AcDbEntity
  8
Visible
100
AcDbLine
 10
331.256429
 20
124.256062
 30
0.0
 11
331.256429
 21
116.256062
 31
0.0
210
-1.0
220
-0.0000000000000002
230
0.0
  0
LINE
  5
1B2
330
70
100
AcDbEntity
  8
Visible
100
AcDbLine
 10
331.256429
 20
116.256062
 30
0.0
 11
326.756429
 21
116.256062
 31
0.0
210
-1.0
220
-0.0000000000000002
230
0.0
  0
LINE
  5
1B3
330
70
100
AcDbEntity
  8
Visible
100
AcDbLine
 10
257.756429
 20
116.256062
 30
0.0
 11
257.756429
 21
124.256062
 31
0.0
210
-1.0
220
-0.0000000000000002
230
0.0
  0
LINE
  5
1B4
330
70
100
AcDbEntity
  8
Visible
100
AcDbLine
 10
257.756429
 20
124.256062
 30
0.0
 11
262.256429
 21
124.256062
 31
0.0
210
-1.0
220
-0.0000000000000002
230
0.0
  0
LINE
  5
1B5
330
70
100
AcDbEntity
  8
Visible
100
AcDbLine
 10
262.256429
 20
124.256062
 30
0.0
 11
262.256429
 21
116.256062
 31
0.0
210
-1.0
220
-0.0000000000000002
230
0.0
  0
LINE
  5
1B6
330
70
100
AcDbEntity
  8
Visible
100
AcDbLine
 10
262.256429
 20
116.256062
 30
0.0
 11
257.756429
 21
116.256062
 31
0.0
210
-1.0
220
-0.0000000000000002
230
0.0
  0
LINE
  5
1B7
330
70
100
AcDbEntity
  8
Visible
100
AcDbLine
 10
351.256429
 20
124.256062
 30
0.0
 11
355.756429
 21
124.256062
 31
0.0
210
-1.0
220
-0.0000000000000002
230
0.0
  0
LINE
  5
1B8
330
70
100
AcDbEntity
  8
Visible
100
AcDbLine
 10
355.756429
 20
124.256062
 30
0.0
 11
355.756429
 21
116.256062
 31
0.0
210
-1.0
220
-0.0000000000000002
230
0.0
  0
LINE
  5
1B9
330
70
100
AcDbEntity
  8
Visible
100
AcDbLine
 10
355.756429
 20
116.256062
 30
0.0
 11
351.256429
 21
116.256062
 31
0.0
210
-1.0
220
-0.0000000000000002
230
0.0
  0
LINE
  5
1BA
330
70
100
AcDbEntity
  8
Visible
100
AcDbLine
 10
351.256429
 20
116.256062
 30
0.0
 11
351.256429
 21
124.256062
 31
0.0
210
-1.0
220
-0.0000000000000002
230
0.0
  0
SPLINE
  5
1BB
330
70
100
AcDbEntity
  8
Visible
100
AcDbSpline
210
0.0
220
0.0
230
1.0
 70
    12
 71
     3
 72
     8
 73
     4
 74
     0
 42
0.000000001
 43
0.0000000001
 40
-1.0
 40
-1.0
 40
-1.0
 40
-1.0
 40
0.0
 40
0.0
 40
0.0
 40
0.0
 10
328.5621985838965
 20
146.3434612406381
 30
0.0
 41
1.0
 10
328.5877319090919
 20
146.3264438685055
 30
0.0
 41
1.0
 10
328.8755127928809
 20
146.0005616282105
 30
0.0
 41
1.0
 10
329.4259288085059
 20
145.3655616282103
 30
0.0
 41
1.0
  0
LINE
  5
1BC
330
70
100
AcDbEntity
  8
Visible
100
AcDbLine
 10
328.536929
 20
146.381562
 30
0.0
 11
328.562199
 21
146.343461
 31
0.0
210
-1.0
220
-0.0000000000000002
230
0.0
  0
LINE
  5
1BD
330
70
100
AcDbEntity
  8
Visible
100
AcDbLine
 10
328.511527
 20
146.419662
 30
0.0
 11
328.536929
 21
146.381562
 31
0.0
210
-1.0
220
-0.0000000000000002
230
0.0
  0
LINE
  5
1BE
330
70
100
AcDbEntity
  8
Visible
100
AcDbLine
 10
328.473429
 20
146.445062
 30
0.0
 11
328.511527
 21
146.419662
 31
0.0
210
-1.0
220
-0.0000000000000002
230
0.0
  0
LINE
  5
1BF
330
70
100
AcDbEntity
  8
Visible
100
AcDbLine
 10
328.435199
 20
146.470461
 30
0.0
 11
328.473429
 21
146.445062
 31
0.0
210
-1.0
220
-0.0000000000000002
230
0.0
  0
LINE
  5
1C0
330
70
100
AcDbEntity
  8
Visible
100
AcDbLine
 10
328.409929
 20
146.508562
 30
0.0
 11
328.435199
 21
146.470461
 31
0.0
210
-1.0
220
-0.0000000000000002
230
0.0
  0
LINE
  5
1C1
330
70
100
AcDbEntity
  8
Visible
100
AcDbLine
 10
328.384527
 20
146.546662
 30
0.0
 11
328.409929
 21
146.508562
 31
0.0
210
-1.0
220
-0.0000000000000002
230
0.0
  0
LINE
  5
1C2
330
70
100
AcDbEntity
  8
Visible
100
AcDbLine
 10
328.346429
 20
146.572062
 30
0.0
 11
328.384527
 21
146.546662
 31
0.0
210
-1.0
220
-0.0000000000000002
230
0.0
  0
LINE
  5
1C3
330
70
100
AcDbEntity
  8
Visible
100
AcDbLine
 10
328.308199
 20
146.597461
 30
0.0
 11
328.346429
 21
146.572062
 31
0.0
210
-1.0
220
-0.0000000000000002
230
0.0
  0
LINE
  5
1C4
330
70
100
AcDbEntity
  8
Visible
100
AcDbLine
 10
328.282929
 20
146.635562
 30
0.0
 11
328.308199
 21
146.597461
 31
0.0
210
-1.0
220
-0.0000000000000002
230
0.0
  0
LINE
  5
1C5
330
70
100
AcDbEntity
  8
Visible
100
AcDbLine
 10
328.257527
 20
146.673662
 30
0.0
 11
328.282929
 21
146.635562
 31
0.0
210
-1.0
220
-0.0000000000000002
230
0.0
  0
LINE
  5
1C6
330
70
100
AcDbEntity
  8
Visible
100
AcDbLine
 10
328.219429
 20
146.699062
 30
0.0
 11
328.257527
 21
146.673662
 31
0.0
210
-1.0
220
-0.0000000000000002
230
0.0
  0
LINE
  5
1C7
330
70
100
AcDbEntity
  8
Visible
100
AcDbLine
 10
328.181199
 20
146.724461
 30
0.0
 11
328.219429
 21
146.699062
 31
0.0
210
-1.0
220
-0.0000000000000002
230
0.0
  0
LINE
  5
1C8
330
70
100
AcDbEntity
  8
Visible
100
AcDbLine
 10
328.155929
 20
146.762562
 30
0.0
 11
328.181199
 21
146.724461
 31
0.0
210
-1.0
220
-0.0000000000000002
230
0.0
  0
LINE
  5
1C9
330
70
100
AcDbEntity
  8
Visible
100
AcDbLine
 10
328.130527
 20
146.800662
 30
0.0
 11
328.155929
 21
146.762562
 31
0.0
210
-1.0
220
-0.0000000000000002
230
0.0
  0
LINE
  5
1CA
330
70
100
AcDbEntity
  8
Visible
100
AcDbLine
 10
328.092429
 20
146.826062
 30
0.0
 11
328.130527
 21
146.800662
 31
0.0
210
-1.0
220
-0.0000000000000002
230
0.0
  0
LINE
  5
1CB
330
70
100
AcDbEntity
  8
Visible
100
AcDbLine
 10
328.054199
 20
146.851461
 30
0.0
 11
328.092429
 21
146.826062
 31
0.0
210
-1.0
220
-0.0000000000000002
230
0.0
  0
LINE
  5
1CC
330
70
100
AcDbEntity
  8
Visible
100
AcDbLine
 10
328.028929
 20
146.889562
 30
0.0
 11
328.054199
 21
146.851461
 31
0.0
210
-1.0
220
-0.0000000000000002
230
0.0
  0
LINE
  5
1CD
330
70
100
AcDbEntity
  8
Visible
100
AcDbLine
 10
328.003527
 20
146.927662
 30
0.0
 11
328.028929
 21
146.889562
 31
0.0
210
-1.0
220
-0.0000000000000002
230
0.0
  0
LINE
  5
1CE
330
70
100
AcDbEntity
  8
Visible
100
AcDbLine
 10
327.965429
 20
146.953062
 30
0.0
 11
328.003527
 21
146.927662
 31
0.0
210
-1.0
220
-0.0000000000000002
230
0.0
  0
LINE
  5
1CF
330
70
100
AcDbEntity
  8
Visible
100
AcDbLine
 10
327.927199
 20
146.978461
 30
0.0
 11
327.965429
 21
146.953062
 31
0.0
210
-1.0
220
-0.0000000000000002
230
0.0
  0
LINE
  5
1D0
330
70
100
AcDbEntity
  8
Visible
100
AcDbLine
 10
327.901929
 20
147.016562
 30
0.0
 11
327.927199
 21
146.978461
 31
0.0
210
-1.0
220
-0.0000000000000002
230
0.0
  0
LINE
  5
1D1
330
70
100
AcDbEntity
  8
Visible
100
AcDbLine
 10
327.876527
 20
147.054662
 30
0.0
 11
327.901929
 21
147.016562
 31
0.0
210
-1.0
220
-0.0000000000000002
230
0.0
  0
LINE
  5
1D2
330
70
100
AcDbEntity
  8
Visible
100
AcDbLine
 10
327.838429
 20
147.080062
 30
0.0
 11
327.876527
 21
147.054662
 31
0.0
210
-1.0
220
-0.0000000000000002
230
0.0
  0
LINE
  5
1D3
330
70
100
AcDbEntity
  8
Visible
100
AcDbLine
 10
327.800199
 20
147.105461
 30
0.0
 11
327.838429
 21
147.080062
 31
0.0
210
-1.0
220
-0.0000000000000002
230
0.0
  0
LINE
  5
1D4
330
70
100
AcDbEntity
  8
Visible
100
AcDbLine
 10
327.774929
 20
147.143562
 30
0.0
 11
327.800199
 21
147.105461
 31
0.0
210
-1.0
220
-0.0000000000000002
230
0.0
  0
LINE
  5
1D5
330
70
100
AcDbEntity
  8
Visible
100
AcDbLine
 10
328.282929
 20
147.143562
 30
0.0
 11
327.774929
 21
147.143562
 31
0.0
210
-1.0
220
-0.0000000000000002
230
0.0
  0
LINE
  5
1D6
330
70
100
AcDbEntity
  8
Visible
100
AcDbLine
 10
328.790929
 20
147.016562
 30
0.0
 11
328.282929
 21
147.143562
 31
0.0
210
-1.0
220
-0.0000000000000002
230
0.0
  0
LINE
  5
1D7
330
70
100
AcDbEntity
  8
Visible
100
AcDbLine
 10
333.108929
 20
145.810062
 30
0.0
 11
328.790929
 21
147.016562
 31
0.0
210
-1.0
220
-0.0000000000000002
230
0.0
  0
SPLINE
  5
1D8
330
70
100
AcDbEntity
  8
Visible
100
AcDbSpline
210
0.0
220
0.0
230
1.0
 70
    12
 71
     3
 72
     8
 73
     4
 74
     0
 42
0.000000001
 43
0.0000000001
 40
-1.0
 40
-1.0
 40
-1.0
 40
-1.0
 40
0.0
 40
0.0
 40
0.0
 40
0.0
 10
341.2369288085058
 20
143.0795616282103
 30
0.0
 41
1.0
 10
338.6969288085059
 20
144.0955616282117
 30
0.0
 41
1.0
 10
335.9875127928809
 20
145.0057706049556
 30
0.0
 41
1.0
 10
333.1089288085059
 20
145.8100616282117
 30
0.0
 41
1.0
  0
SPLINE
  5
1D9
330
70
100
AcDbEntity
  8
Visible
100
AcDbSpline
210
0.0
220
0.0
230
1.0
 70
    12
 71
     3
 72
     8
 73
     4
 74
     0
 42
0.000000001
 43
0.0000000001
 40
-1.0
 40
-1.0
 40
-1.0
 40
-1.0
 40
0.0
 40
0.0
 40
0.0
 40
0.0
 10
347.8155272582128
 20
140.0696620157832
 30
0.0
 41
1.0
 10
345.9698337157324
 20
141.0602624033581
 30
0.0
 41
1.0
 10
343.7769288085058
 20
142.0635616282106
 30
0.0
 41
1.0
 10
341.2369288085058
 20
143.0795616282103
 30
0.0
 41
1.0
  0
SPLINE
  5
1DA
330
70
100
AcDbEntity
  8
Visible
100
AcDbSpline
210
0.0
220
0.0
230
1.0
 70
    12
 71
     3
 72
     8
 73
     4
 74
     0
 42
0.000000001
 43
0.0000000001
 40
-1.0
 40
-1.0
 40
-1.0
 40
-1.0
 40
0.0
 40
0.0
 40
0.0
 40
0.0
 10
352.8191985838964
 20
137.0216620157844
 30
0.0
 41
1.0
 10
351.3207241576268
 20
138.0546803568486
 30
0.0
 41
1.0
 10
349.6528337157323
 20
139.0706803568482
 30
0.0
 41
1.0
 10
347.8155272582128
 20
140.0696620157832
 30
0.0
 41
1.0
  0
SPLINE
  5
1DB
330
70
100
AcDbEntity
  8
Visible
100
AcDbSpline
210
0.0
220
0.0
230
1.0
 70
    12
 71
     3
 72
     8
 73
     4
 74
     0
 42
0.000000001
 43
0.0000000001
 40
-1.0
 40
-1.0
 40
-1.0
 40
-1.0
 40
0.0
 40
0.0
 40
0.0
 40
0.0
 10
356.8831985838963
 20
133.8466620157833
 30
0.0
 41
1.0
 10
355.6808921263768
 20
134.9219704111692
 30
0.0
 41
1.0
 10
354.3263081420018
 20
135.9802624033564
 30
0.0
 41
1.0
 10
352.8191985838964
 20
137.0216620157844
 30
0.0
 41
1.0
  0
SPLINE
  5
1DC
330
70
100
AcDbEntity
  8
Visible
100
AcDbSpline
210
0.0
220
0.0
230
1.0
 70
    12
 71
     3
 72
     8
 73
     4
 74
     0
 42
0.000000001
 43
0.0000000001
 40
-1.0
 40
-1.0
 40
-1.0
 40
-1.0
 40
0.0
 40
0.0
 40
0.0
 40
0.0
 10
360.1599288085056
 20
130.3160616282111
 30
0.0
 41
1.0
 10
359.1862130492283
 20
131.5860616282116
 30
0.0
 41
1.0
 10
358.0938921263768
 20
132.7629704111696
 30
0.0
 41
1.0
 10
356.8831985838963
 20
133.8466620157833
 30
0.0
 41
1.0
  0
SPLINE
  5
1DD
330
70
100
AcDbEntity
  8
Visible
100
AcDbSpline
210
0.0
220
0.0
230
1.0
 70
    12
 71
     3
 72
     8
 73
     4
 74
     0
 42
0.000000001
 43
0.0000000001
 40
-1.0
 40
-1.0
 40
-1.0
 40
-1.0
 40
0.0
 40
0.0
 40
0.0
 40
0.0
 10
362.4459288085057
 20
126.7600616282106
 30
0.0
 41
1.0
 10
361.8955127928806
 20
127.8607696360231
 30
0.0
 41
1.0
 10
361.1335127928807
 20
129.0460616282107
 30
0.0
 41
1.0
 10
360.1599288085056
 20
130.3160616282111
 30
0.0
 41
1.0
  0
SPLINE
  5
1DE
330
70
100
AcDbEntity
  8
Visible
100
AcDbSpline
210
0.0
220
0.0
230
1.0
 70
    12
 71
     3
 72
     8
 73
     4
 74
     0
 42
0.000000001
 43
0.0000000001
 40
-1.0
 40
-1.0
 40
-1.0
 40
-1.0
 40
0.0
 40
0.0
 40
0.0
 40
0.0
 10
363.6524288085056
 20
123.458061628211
 30
0.0
 41
1.0
 10
363.3984288085056
 20
124.5587696360235
 30
0.0
 41
1.0
 10
362.9962208006931
 20
125.6593536203981
 30
0.0
 41
1.0
 10
362.4459288085057
 20
126.7600616282106
 30
0.0
 41
1.0
  0
SPLINE
  5
1DF
330
70
100
AcDbEntity
  8
Visible
100
AcDbSpline
210
0.0
220
0.0
230
1.0
 70
    12
 71
     3
 72
     8
 73
     4
 74
     0
 42
0.000000001
 43
0.0000000001
 40
-1.0
 40
-1.0
 40
-1.0
 40
-1.0
 40
0.0
 40
0.0
 40
0.0
 40
0.0
 10
363.9699288085055
 20
120.1560616282113
 30
0.0
 41
1.0
 10
364.0122208006931
 20
121.2567696360238
 30
0.0
 41
1.0
 10
363.9064288085056
 20
122.3573536203985
 30
0.0
 41
1.0
 10
363.6524288085056
 20
123.458061628211
 30
0.0
 41
1.0
  0
SPLINE
  5
1E0
330
70
100
AcDbEntity
  8
Visible
100
AcDbSpline
210
0.0
220
0.0
230
1.0
 70
    12
 71
     3
 72
     8
 73
     4
 74
     0
 42
0.000000001
 43
0.0000000001
 40
-1.0
 40
-1.0
 40
-1.0
 40
-1.0
 40
0.0
 40
0.0
 40
0.0
 40
0.0
 10
363.3984288085055
 20
116.7270616282112
 30
0.0
 41
1.0
 10
363.7370127928805
 20
117.9124776438366
 30
0.0
 41
1.0
 10
363.9275127928806
 20
119.0554776438366
 30
0.0
 41
1.0
 10
363.9699288085055
 20
120.1560616282113
 30
0.0
 41
1.0
  0
SPLINE
  5
1E1
330
70
100
AcDbEntity
  8
Visible
100
AcDbSpline
210
0.0
220
0.0
230
1.0
 70
    12
 71
     3
 72
     8
 73
     4
 74
     0
 42
0.000000001
 43
0.0000000001
 40
-1.0
 40
-1.0
 40
-1.0
 40
-1.0
 40
0.0
 40
0.0
 40
0.0
 40
0.0
 10
362.0014288085055
 20
113.1710616282107
 30
0.0
 41
1.0
 10
362.5940127928805
 20
114.3564776438361
 30
0.0
 41
1.0
 10
363.059720800693
 20
115.5416456125858
 30
0.0
 41
1.0
 10
363.3984288085055
 20
116.7270616282112
 30
0.0
 41
1.0
  0
SPLINE
  5
1E2
330
70
100
AcDbEntity
  8
Visible
100
AcDbSpline
210
0.0
220
0.0
230
1.0
 70
    12
 71
     3
 72
     8
 73
     4
 74
     0
 42
0.000000001
 43
0.0000000001
 40
-1.0
 40
-1.0
 40
-1.0
 40
-1.0
 40
0.0
 40
0.0
 40
0.0
 40
0.0
 10
359.7789288085055
 20
109.6150616282102
 30
0.0
 41
1.0
 10
360.6679288085055
 20
110.8004776438356
 30
0.0
 41
1.0
 10
361.408720800693
 20
111.9856456125853
 30
0.0
 41
1.0
 10
362.0014288085055
 20
113.1710616282107
 30
0.0
 41
1.0
  0
SPLINE
  5
1E3
330
70
100
AcDbEntity
  8
Visible
100
AcDbSpline
210
0.0
220
0.0
230
1.0
 70
    12
 71
     3
 72
     8
 73
     4
 74
     0
 42
0.000000001
 43
0.0000000001
 40
-1.0
 40
-1.0
 40
-1.0
 40
-1.0
 40
0.0
 40
0.0
 40
0.0
 40
0.0
 10
356.9595272582125
 20
106.3384631785047
 30
0.0
 41
1.0
 10
357.9501257079195
 20
107.3374448374397
 30
0.0
 41
1.0
 10
358.8899288085055
 20
108.4296456125867
 30
0.0
 41
1.0
 10
359.7789288085055
 20
109.6150616282102
 30
0.0
 41
1.0
  0
SPLINE
  5
1E4
330
70
100
AcDbEntity
  8
Visible
100
AcDbSpline
210
0.0
220
0.0
230
1.0
 70
    12
 71
     3
 72
     8
 73
     4
 74
     0
 42
0.000000001
 43
0.0000000001
 40
-1.0
 40
-1.0
 40
-1.0
 40
-1.0
 40
0.0
 40
0.0
 40
0.0
 40
0.0
 10
352.9844288085055
 20
103.0745616282111
 30
0.0
 41
1.0
 10
354.6354288085055
 20
104.2598536203986
 30
0.0
 41
1.0
 10
355.960417700107
 20
105.3478647287975
 30
0.0
 41
1.0
 10
356.9595272582125
 20
106.3384631785047
 30
0.0
 41
1.0
  0
SPLINE
  5
1E5
330
70
100
AcDbEntity
  8
Visible
100
AcDbSpline
210
0.0
220
0.0
230
1.0
 70
    12
 71
     3
 72
     8
 73
     4
 74
     0
 42
0.000000001
 43
0.0000000001
 40
-1.0
 40
-1.0
 40
-1.0
 40
-1.0
 40
0.0
 40
0.0
 40
0.0
 40
0.0
 10
347.7774288085055
 20
99.8360616282116
 30
0.0
 41
1.0
 10
349.597720800693
 20
100.8097696360237
 30
0.0
 41
1.0
 10
351.3334288085055
 20
101.8892696360235
 30
0.0
 41
1.0
 10
352.9844288085055
 20
103.0745616282111
 30
0.0
 41
1.0
  0
SPLINE
  5
1E6
330
70
100
AcDbEntity
  8
Visible
100
AcDbSpline
210
0.0
220
0.0
230
1.0
 70
    12
 71
     3
 72
     8
 73
     4
 74
     0
 42
0.000000001
 43
0.0000000001
 40
-1.0
 40
-1.0
 40
-1.0
 40
-1.0
 40
0.0
 40
0.0
 40
0.0
 40
0.0
 10
341.6814288085055
 20
97.10556162821195
 30
0.0
 41
1.0
 10
343.9250127928805
 20
97.95226963602363
 30
0.0
 41
1.0
 10
345.9570127928805
 20
98.86235362039952
 30
0.0
 41
1.0
 10
347.7774288085055
 20
99.8360616282116
 30
0.0
 41
1.0
  0
SPLINE
  5
1E7
330
70
100
AcDbEntity
  8
Visible
100
AcDbSpline
210
0.0
220
0.0
230
1.0
 70
    12
 71
     3
 72
     8
 73
     4
 74
     0
 42
0.000000001
 43
0.0000000001
 40
-1.0
 40
-1.0
 40
-1.0
 40
-1.0
 40
0.0
 40
0.0
 40
0.0
 40
0.0
 10
337.7444288085055
 20
95.64506162821089
 30
0.0
 41
1.0
 10
338.1254288085055
 20
95.77206162821131
 30
0.0
 41
1.0
 10
339.4377208006929
 20
96.25885362039845
 30
0.0
 41
1.0
 10
341.6814288085055
 20
97.10556162821195
 30
0.0
 41
1.0
  0
SPLINE
  5
1E8
330
70
100
AcDbEntity
  8
Visible
100
AcDbSpline
210
0.0
220
0.0
230
1.0
 70
    12
 71
     3
 72
     8
 73
     4
 74
     0
 42
0.000000001
 43
0.0000000001
 40
-1.0
 40
-1.0
 40
-1.0
 40
-1.0
 40
0.0
 40
0.0
 40
0.0
 40
0.0
 10
336.9189288085055
 20
95.39106162821189
 30
0.0
 41
1.0
 10
337.088220800693
 20
95.43335362039943
 30
0.0
 41
1.0
 10
337.3634288085055
 20
95.51806162821049
 30
0.0
 41
1.0
 10
337.7444288085055
 20
95.64506162821089
 30
0.0
 41
1.0
  0
LINE
  5
1E9
330
70
100
AcDbEntity
  8
Visible
100
AcDbLine
 10
336.664929
 20
95.327562
 30
0.0
 11
336.918929
 21
95.391062
 31
0.0
210
-1.0
220
-0.0000000000000002
230
0.0
  0
LINE
  5
1EA
330
70
100
AcDbEntity
  8
Visible
100
AcDbLine
 10
335.902929
 20
95.073562
 30
0.0
 11
336.664929
 21
95.327562
 31
0.0
210
-1.0
220
-0.0000000000000002
230
0.0
  0
LINE
  5
1EB
330
70
100
AcDbEntity
  8
Visible
100
AcDbLine
 10
335.775929
 20
95.035463
 30
0.0
 11
335.902929
 21
95.073562
 31
0.0
210
-1.0
220
-0.0000000000000002
230
0.0
  0
LINE
  5
1EC
330
70
100
AcDbEntity
  8
Visible
100
AcDbLine
 10
335.648929
 20
95.010062
 30
0.0
 11
335.775929
 21
95.035463
 31
0.0
210
-1.0
220
-0.0000000000000002
230
0.0
  0
LINE
  5
1ED
330
70
100
AcDbEntity
  8
Visible
100
AcDbLine
 10
335.648929
 20
95.264062
 30
0.0
 11
335.648929
 21
95.010062
 31
0.0
210
-1.0
220
-0.0000000000000002
230
0.0
  0
LINE
  5
1EE
330
70
100
AcDbEntity
  8
Visible
100
AcDbLine
 10
335.775929
 20
95.289463
 30
0.0
 11
335.648929
 21
95.264062
 31
0.0
210
-1.0
220
-0.0000000000000002
230
0.0
  0
LINE
  5
1EF
330
70
100
AcDbEntity
  8
Visible
100
AcDbLine
 10
335.902929
 20
95.327562
 30
0.0
 11
335.775929
 21
95.289463
 31
0.0
210
-1.0
220
-0.0000000000000002
230
0.0
  0
LINE
  5
1F0
330
70
100
AcDbEntity
  8
Visible
100
AcDbLine
 10
335.928199
 20
95.36566
 30
0.0
 11
335.902929
 21
95.327562
 31
0.0
210
-1.0
220
-0.0000000000000002
230
0.0
  0
LINE
  5
1F1
330
70
100
AcDbEntity
  8
Visible
100
AcDbLine
 10
335.966429
 20
95.391062
 30
0.0
 11
335.928199
 21
95.36566
 31
0.0
210
-1.0
220
-0.0000000000000002
230
0.0
  0
LINE
  5
1F2
330
70
100
AcDbEntity
  8
Visible
100
AcDbLine
 10
336.004527
 20
95.416463
 30
0.0
 11
335.966429
 21
95.391062
 31
0.0
210
-1.0
220
-0.0000000000000002
230
0.0
  0
LINE
  5
1F3
330
70
100
AcDbEntity
  8
Visible
100
AcDbLine
 10
336.029929
 20
95.454562
 30
0.0
 11
336.004527
 21
95.416463
 31
0.0
210
-1.0
220
-0.0000000000000002
230
0.0
  0
LINE
  5
1F4
330
70
100
AcDbEntity
  8
Visible
100
AcDbLine
 10
336.055199
 20
95.49266
 30
0.0
 11
336.029929
 21
95.454562
 31
0.0
210
-1.0
220
-0.0000000000000002
230
0.0
  0
LINE
  5
1F5
330
70
100
AcDbEntity
  8
Visible
100
AcDbLine
 10
336.093429
 20
95.518062
 30
0.0
 11
336.055199
 21
95.49266
 31
0.0
210
-1.0
220
-0.0000000000000002
230
0.0
  0
LINE
  5
1F6
330
70
100
AcDbEntity
  8
Visible
100
AcDbLine
 10
336.131527
 20
95.543463
 30
0.0
 11
336.093429
 21
95.518062
 31
0.0
210
-1.0
220
-0.0000000000000002
230
0.0
  0
LINE
  5
1F7
330
70
100
AcDbEntity
  8
Visible
100
AcDbLine
 10
336.156929
 20
95.581562
 30
0.0
 11
336.131527
 21
95.543463
 31
0.0
210
-1.0
220
-0.0000000000000002
230
0.0
  0
LINE
  5
1F8
330
70
100
AcDbEntity
  8
Visible
100
AcDbLine
 10
336.182199
 20
95.61966
 30
0.0
 11
336.156929
 21
95.581562
 31
0.0
210
-1.0
220
-0.0000000000000002
230
0.0
  0
LINE
  5
1F9
330
70
100
AcDbEntity
  8
Visible
100
AcDbLine
 10
336.220429
 20
95.645062
 30
0.0
 11
336.182199
 21
95.61966
 31
0.0
210
-1.0
220
-0.0000000000000002
230
0.0
  0
LINE
  5
1FA
330
70
100
AcDbEntity
  8
Visible
100
AcDbLine
 10
336.258527
 20
95.670463
 30
0.0
 11
336.220429
 21
95.645062
 31
0.0
210
-1.0
220
-0.0000000000000002
230
0.0
  0
LINE
  5
1FB
330
70
100
AcDbEntity
  8
Visible
100
AcDbLine
 10
336.283929
 20
95.708562
 30
0.0
 11
336.258527
 21
95.670463
 31
0.0
210
-1.0
220
-0.0000000000000002
230
0.0
  0
LINE
  5
1FC
330
70
100
AcDbEntity
  8
Visible
100
AcDbLine
 10
336.309199
 20
95.74666
 30
0.0
 11
336.283929
 21
95.708562
 31
0.0
210
-1.0
220
-0.0000000000000002
230
0.0
  0
LINE
  5
1FD
330
70
100
AcDbEntity
  8
Visible
100
AcDbLine
 10
336.347429
 20
95.772062
 30
0.0
 11
336.309199
 21
95.74666
 31
0.0
210
-1.0
220
-0.0000000000000002
230
0.0
  0
LINE
  5
1FE
330
70
100
AcDbEntity
  8
Visible
100
AcDbLine
 10
336.385527
 20
95.797463
 30
0.0
 11
336.347429
 21
95.772062
 31
0.0
210
-1.0
220
-0.0000000000000002
230
0.0
  0
SPLINE
  5
1FF
330
70
100
AcDbEntity
  8
Visible
100
AcDbSpline
210
0.0
220
0.0
230
1.0
 70
    12
 71
     3
 72
     8
 73
     4
 74
     0
 42
0.000000001
 43
0.0000000001
 40
-1.0
 40
-1.0
 40
-1.0
 40
-1.0
 40
0.0
 40
0.0
 40
0.0
 40
0.0
 10
336.5631985838961
 20
96.00066395365139
 30
0.0
 41
1.0
 10
336.4617241576266
 20
95.89055439554613
 30
0.0
 41
1.0
 10
336.402417700107
 20
95.82286472879786
 30
0.0
 41
1.0
 10
336.3855272582125
 20
95.79746317850368
 30
0.0
 41
1.0
  0
SPLINE
  5
200
330
70
100
AcDbEntity
  8
Visible
100
AcDbSpline
210
0.0
220
0.0
230
1.0
 70
    12
 71
     3
 72
     8
 73
     4
 74
     0
 42
0.000000001
 43
0.0000000001
 40
-1.0
 40
-1.0
 40
-1.0
 40
-1.0
 40
0.0
 40
0.0
 40
0.0
 40
0.0
 10
338.3411985838961
 20
98.08346317850373
 30
0.0
 41
1.0
 10
337.2658921263766
 20
96.79657273660996
 30
0.0
 41
1.0
 10
336.6733081420016
 20
96.10226240335761
 30
0.0
 41
1.0
 10
336.5631985838961
 20
96.00066395365139
 30
0.0
 41
1.0
  0
SPLINE
  5
201
330
70
100
AcDbEntity
  8
Visible
100
AcDbSpline
210
0.0
220
0.0
230
1.0
 70
    12
 71
     3
 72
     8
 73
     4
 74
     0
 42
0.000000001
 43
0.0000000001
 40
-1.0
 40
-1.0
 40
-1.0
 40
-1.0
 40
0.0
 40
0.0
 40
0.0
 40
0.0
 10
341.0081985838961
 20
102.0204631785036
 30
0.0
 41
1.0
 10
340.3138921263766
 20
100.6911528452528
 30
0.0
 41
1.0
 10
339.4248921263766
 20
99.37886472879654
 30
0.0
 41
1.0
 10
338.3411985838961
 20
98.08346317850373
 30
0.0
 41
1.0
  0
SPLINE
  5
202
330
70
100
AcDbEntity
  8
Visible
100
AcDbSpline
210
0.0
220
0.0
230
1.0
 70
    12
 71
     3
 72
     8
 73
     4
 74
     0
 42
0.000000001
 43
0.0000000001
 40
-1.0
 40
-1.0
 40
-1.0
 40
-1.0
 40
0.0
 40
0.0
 40
0.0
 40
0.0
 10
342.4434288085056
 20
105.8050616282107
 30
0.0
 41
1.0
 10
342.1894288085055
 20
104.6197735117566
 30
0.0
 41
1.0
 10
341.7108921263766
 20
103.3581528452523
 30
0.0
 41
1.0
 10
341.0081985838961
 20
102.0204631785036
 30
0.0
 41
1.0
  0
SPLINE
  5
203
330
70
100
AcDbEntity
  8
Visible
100
AcDbSpline
210
0.0
220
0.0
230
1.0
 70
    12
 71
     3
 72
     8
 73
     4
 74
     0
 42
0.000000001
 43
0.0000000001
 40
-1.0
 40
-1.0
 40
-1.0
 40
-1.0
 40
0.0
 40
0.0
 40
0.0
 40
0.0
 10
342.6974288085056
 20
108.8530616282114
 30
0.0
 41
1.0
 10
342.7820127928805
 20
108.0064776438357
 30
0.0
 41
1.0
 10
342.6974288085056
 20
106.9904776438361
 30
0.0
 41
1.0
 10
342.4434288085056
 20
105.8050616282107
 30
0.0
 41
1.0
  0
SPLINE
  5
204
330
70
100
AcDbEntity
  8
Visible
100
AcDbSpline
210
0.0
220
0.0
230
1.0
 70
    12
 71
     3
 72
     8
 73
     4
 74
     0
 42
0.000000001
 43
0.0000000001
 40
-1.0
 40
-1.0
 40
-1.0
 40
-1.0
 40
0.0
 40
0.0
 40
0.0
 40
0.0
 10
342.1259288085056
 20
111.0755616282113
 30
0.0
 41
1.0
 10
342.4222208006931
 20
110.440561628211
 30
0.0
 41
1.0
 10
342.6127208006931
 20
109.6996417368536
 30
0.0
 41
1.0
 10
342.6974288085056
 20
108.8530616282114
 30
0.0
 41
1.0
  0
SPLINE
  5
205
330
70
100
AcDbEntity
  8
Visible
100
AcDbSpline
210
0.0
220
0.0
230
1.0
 70
    12
 71
     3
 72
     8
 73
     4
 74
     0
 42
0.000000001
 43
0.0000000001
 40
-1.0
 40
-1.0
 40
-1.0
 40
-1.0
 40
0.0
 40
0.0
 40
0.0
 40
0.0
 10
341.0081985838962
 20
112.6376600779185
 30
0.0
 41
1.0
 10
341.4568921263767
 20
112.2312624033584
 30
0.0
 41
1.0
 10
341.8295127928806
 20
111.7105616282115
 30
0.0
 41
1.0
 10
342.1259288085056
 20
111.0755616282113
 30
0.0
 41
1.0
  0
SPLINE
  5
206
330
70
100
AcDbEntity
  8
Visible
100
AcDbSpline
210
0.0
220
0.0
230
1.0
 70
    12
 71
     3
 72
     8
 73
     4
 74
     0
 42
0.000000001
 43
0.0000000001
 40
-1.0
 40
-1.0
 40
-1.0
 40
-1.0
 40
0.0
 40
0.0
 40
0.0
 40
0.0
 10
339.3954288085057
 20
113.6155616282103
 30
0.0
 41
1.0
 10
340.0304288085056
 20
113.3615616282113
 30
0.0
 41
1.0
 10
340.5678921263767
 20
113.0356784189825
 30
0.0
 41
1.0
 10
341.0081985838962
 20
112.6376600779185
 30
0.0
 41
1.0
  0
SPLINE
  5
207
330
70
100
AcDbEntity
  8
Visible
100
AcDbSpline
210
0.0
220
0.0
230
1.0
 70
    12
 71
     3
 72
     8
 73
     4
 74
     0
 42
0.000000001
 43
0.0000000001
 40
-1.0
 40
-1.0
 40
-1.0
 40
-1.0
 40
0.0
 40
0.0
 40
0.0
 40
0.0
 10
336.9189288085057
 20
113.9965616282115
 30
0.0
 41
1.0
 10
337.9349288085056
 20
113.9965616282115
 30
0.0
 41
1.0
 10
338.7604288085056
 20
113.8695616282111
 30
0.0
 41
1.0
 10
339.3954288085057
 20
113.6155616282103
 30
0.0
 41
1.0
  0
SPLINE
  5
208
330
70
100
AcDbEntity
  8
Visible
100
AcDbSpline
210
0.0
220
0.0
230
1.0
 70
    12
 71
     3
 72
     8
 73
     4
 74
     0
 42
0.000000001
 43
0.0000000001
 40
-1.0
 40
-1.0
 40
-1.0
 40
-1.0
 40
0.0
 40
0.0
 40
0.0
 40
0.0
 10
333.4899288085056
 20
113.3615616282113
 30
0.0
 41
1.0
 10
334.7599288085056
 20
113.7849815195677
 30
0.0
 41
1.0
 10
335.9029288085056
 20
113.9965616282115
 30
0.0
 41
1.0
 10
336.9189288085057
 20
113.9965616282115
 30
0.0
 41
1.0
  0
SPLINE
  5
209
330
70
100
AcDbEntity
  8
Visible
100
AcDbSpline
210
0.0
220
0.0
230
1.0
 70
    12
 71
     3
 72
     8
 73
     4
 74
     0
 42
0.000000001
 43
0.0000000001
 40
-1.0
 40
-1.0
 40
-1.0
 40
-1.0
 40
0.0
 40
0.0
 40
0.0
 40
0.0
 10
329.6164288085056
 20
111.5200616282109
 30
0.0
 41
1.0
 10
330.9287208006931
 20
112.3244776438369
 30
0.0
 41
1.0
 10
332.2199288085057
 20
112.9381417368531
 30
0.0
 41
1.0
 10
333.4899288085056
 20
113.3615616282113
 30
0.0
 41
1.0
  0
SPLINE
  5
20A
330
70
100
AcDbEntity
  8
Visible
100
AcDbSpline
210
0.0
220
0.0
230
1.0
 70
    12
 71
     3
 72
     8
 73
     4
 74
     0
 42
0.000000001
 43
0.0000000001
 40
-1.0
 40
-1.0
 40
-1.0
 40
-1.0
 40
0.0
 40
0.0
 40
0.0
 40
0.0
 10
325.9969288085056
 20
108.9165616282116
 30
0.0
 41
1.0
 10
327.0975127928806
 20
109.8479776438362
 30
0.0
 41
1.0
 10
328.3040127928807
 20
110.7156417368533
 30
0.0
 41
1.0
 10
329.6164288085056
 20
111.5200616282109
 30
0.0
 41
1.0
  0
LINE
  5
20B
330
70
100
AcDbEntity
  8
Visible
100
AcDbLine
 10
324.345929
 20
107.519562
 30
0.0
 11
325.996929
 21
108.916562
 31
0.0
210
-1.0
220
-0.0000000000000002
230
0.0
  0
LINE
  5
20C
330
70
100
AcDbEntity
  8
Visible
100
AcDbLine
 10
324.320527
 20
107.481463
 30
0.0
 11
324.345929
 21
107.519562
 31
0.0
210
-1.0
220
-0.0000000000000002
230
0.0
  0
LINE
  5
20D
330
70
100
AcDbEntity
  8
Visible
100
AcDbLine
 10
324.282429
 20
107.456062
 30
0.0
 11
324.320527
 21
107.481463
 31
0.0
210
-1.0
220
-0.0000000000000002
230
0.0
  0
LINE
  5
20E
330
70
100
AcDbEntity
  8
Visible
100
AcDbLine
 10
324.244199
 20
107.43066
 30
0.0
 11
324.282429
 21
107.456062
 31
0.0
210
-1.0
220
-0.0000000000000002
230
0.0
  0
LINE
  5
20F
330
70
100
AcDbEntity
  8
Visible
100
AcDbLine
 10
324.218929
 20
107.392562
 30
0.0
 11
324.244199
 21
107.43066
 31
0.0
210
-1.0
220
-0.0000000000000002
230
0.0
  0
LINE
  5
210
330
70
100
AcDbEntity
  8
Visible
100
AcDbLine
 10
324.028429
 20
107.354463
 30
0.0
 11
324.218929
 21
107.392562
 31
0.0
210
-1.0
220
-0.0000000000000002
230
0.0
  0
LINE
  5
211
330
70
100
AcDbEntity
  8
Visible
100
AcDbLine
 10
323.837929
 20
107.329062
 30
0.0
 11
324.028429
 21
107.354463
 31
0.0
210
-1.0
220
-0.0000000000000002
230
0.0
  0
LINE
  5
212
330
70
100
AcDbEntity
  8
Visible
100
AcDbLine
 10
323.812527
 20
107.456062
 30
0.0
 11
323.837929
 21
107.329062
 31
0.0
210
-1.0
220
-0.0000000000000002
230
0.0
  0
SPLINE
  5
213
330
70
100
AcDbEntity
  8
Visible
100
AcDbSpline
210
0.0
220
0.0
230
1.0
 70
    12
 71
     3
 72
     8
 73
     4
 74
     0
 42
0.000000001
 43
0.0000000001
 40
-1.0
 40
-1.0
 40
-1.0
 40
-1.0
 40
0.0
 40
0.0
 40
0.0
 40
0.0
 10
322.8854288085056
 20
108.8530616282114
 30
0.0
 41
1.0
 10
323.4780127928806
 20
108.0064815195692
 30
0.0
 41
1.0
 10
323.7871257079197
 20
107.540641736854
 30
0.0
 41
1.0
 10
323.8125272582126
 20
107.4560616282106
 30
0.0
 41
1.0
  0
SPLINE
  5
214
330
70
100
AcDbEntity
  8
Visible
100
AcDbSpline
210
0.0
220
0.0
230
1.0
 70
    12
 71
     3
 72
     8
 73
     4
 74
     0
 42
0.000000001
 43
0.0000000001
 40
-1.0
 40
-1.0
 40
-1.0
 40
-1.0
 40
0.0
 40
0.0
 40
0.0
 40
0.0
 10
321.1455272582127
 20
110.7326600779179
 30
0.0
 41
1.0
 10
321.7128414671971
 20
110.3262624033577
 30
0.0
 41
1.0
 10
322.2927208006931
 20
109.6996417368536
 30
0.0
 41
1.0
 10
322.8854288085056
 20
108.8530616282114
 30
0.0
 41
1.0
  0
SPLINE
  5
215
330
70
100
AcDbEntity
  8
Visible
100
AcDbSpline
210
0.0
220
0.0
230
1.0
 70
    12
 71
     3
 72
     8
 73
     4
 74
     0
 42
0.000000001
 43
0.0000000001
 40
-1.0
 40
-1.0
 40
-1.0
 40
-1.0
 40
0.0
 40
0.0
 40
0.0
 40
0.0
 10
319.4564288085057
 20
111.3930616282105
 30
0.0
 41
1.0
 10
320.0067208006932
 20
111.3506417368535
 30
0.0
 41
1.0
 10
320.5698337157322
 20
111.1306784189819
 30
0.0
 41
1.0
 10
321.1455272582127
 20
110.7326600779179
 30
0.0
 41
1.0
  0
SPLINE
  5
216
330
70
100
AcDbEntity
  8
Visible
100
AcDbSpline
210
0.0
220
0.0
230
1.0
 70
    12
 71
     3
 72
     8
 73
     4
 74
     0
 42
0.000000001
 43
0.0000000001
 40
-1.0
 40
-1.0
 40
-1.0
 40
-1.0
 40
0.0
 40
0.0
 40
0.0
 40
0.0
 10
317.6149288085057
 20
110.9485616282109
 30
0.0
 41
1.0
 10
318.2922208006932
 20
111.2871417368533
 30
0.0
 41
1.0
 10
318.9060127928807
 20
111.4354815195693
 30
0.0
 41
1.0
 10
319.4564288085057
 20
111.3930616282105
 30
0.0
 41
1.0
  0
SPLINE
  5
217
330
70
100
AcDbEntity
  8
Visible
100
AcDbSpline
210
0.0
220
0.0
230
1.0
 70
    12
 71
     3
 72
     8
 73
     4
 74
     0
 42
0.000000001
 43
0.0000000001
 40
-1.0
 40
-1.0
 40
-1.0
 40
-1.0
 40
0.0
 40
0.0
 40
0.0
 40
0.0
 10
315.8369288085057
 20
109.6785616282104
 30
0.0
 41
1.0
 10
316.3449288085057
 20
110.186561628212
 30
0.0
 41
1.0
 10
316.9375127928807
 20
110.6099815195684
 30
0.0
 41
1.0
 10
317.6149288085057
 20
110.9485616282109
 30
0.0
 41
1.0
  0
SPLINE
  5
218
330
70
100
AcDbEntity
  8
Visible
100
AcDbSpline
210
0.0
220
0.0
230
1.0
 70
    12
 71
     3
 72
     8
 73
     4
 74
     0
 42
0.000000001
 43
0.0000000001
 40
-1.0
 40
-1.0
 40
-1.0
 40
-1.0
 40
0.0
 40
0.0
 40
0.0
 40
0.0
 10
313.6779288085057
 20
106.9480616282107
 30
0.0
 41
1.0
 10
314.6092208006932
 20
108.2604776438365
 30
0.0
 41
1.0
 10
315.3289288085057
 20
109.1705616282106
 30
0.0
 41
1.0
 10
315.8369288085057
 20
109.6785616282104
 30
0.0
 41
1.0
  0
SPLINE
  5
219
330
70
100
AcDbEntity
  8
Visible
100
AcDbSpline
210
0.0
220
0.0
230
1.0
 70
    12
 71
     3
 72
     8
 73
     4
 74
     0
 42
0.000000001
 43
0.0000000001
 40
-1.0
 40
-1.0
 40
-1.0
 40
-1.0
 40
0.0
 40
0.0
 40
0.0
 40
0.0
 10
309.7155272582126
 20
100.2424631785052
 30
0.0
 41
1.0
 10
311.4258414671971
 20
103.4004448374398
 30
0.0
 41
1.0
 10
312.7465127928807
 20
105.6357696360246
 30
0.0
 41
1.0
 10
313.6779288085057
 20
106.9480616282107
 30
0.0
 41
1.0
  0
LINE
  5
21A
330
70
100
AcDbEntity
  8
Visible
100
AcDbLine
 10
307.137429
 20
95.518062
 30
0.0
 11
309.715527
 21
100.242463
 31
0.0
210
-1.0
220
-0.0000000000000002
230
0.0
  0
LINE
  5
21B
330
70
100
AcDbEntity
  8
Visible
100
AcDbLine
 10
306.756429
 20
94.756062
 30
0.0
 11
307.137429
 21
95.518062
 31
0.0
210
-1.0
220
-0.0000000000000002
230
0.0
  0
LINE
  5
21C
330
70
100
AcDbEntity
  8
Visible
100
AcDbLine
 10
306.502429
 20
95.264062
 30
0.0
 11
306.756429
 21
94.756062
 31
0.0
210
-1.0
220
-0.0000000000000002
230
0.0
  0
LINE
  5
21D
330
70
100
AcDbEntity
  8
Visible
100
AcDbLine
 10
306.464199
 20
95.289463
 30
0.0
 11
306.502429
 21
95.264062
 31
0.0
210
-1.0
220
-0.0000000000000002
230
0.0
  0
LINE
  5
21E
330
70
100
AcDbEntity
  8
Visible
100
AcDbLine
 10
306.438929
 20
95.327562
 30
0.0
 11
306.464199
 21
95.289463
 31
0.0
210
-1.0
220
-0.0000000000000002
230
0.0
  0
LINE
  5
21F
330
70
100
AcDbEntity
  8
Visible
100
AcDbLine
 10
306.413527
 20
95.36566
 30
0.0
 11
306.438929
 21
95.327562
 31
0.0
210
-1.0
220
-0.0000000000000002
230
0.0
  0
LINE
  5
220
330
70
100
AcDbEntity
  8
Visible
100
AcDbLine
 10
306.375429
 20
95.391062
 30
0.0
 11
306.413527
 21
95.36566
 31
0.0
210
-1.0
220
-0.0000000000000002
230
0.0
  0
LINE
  5
221
330
70
100
AcDbEntity
  8
Visible
100
AcDbLine
 10
306.311929
 20
95.518062
 30
0.0
 11
306.375429
 21
95.391062
 31
0.0
210
-1.0
220
-0.0000000000000002
230
0.0
  0
SPLINE
  5
222
330
70
100
AcDbEntity
  8
Visible
100
AcDbSpline
210
0.0
220
0.0
230
1.0
 70
    12
 71
     3
 72
     8
 73
     4
 74
     0
 42
0.000000001
 43
0.0000000001
 40
-1.0
 40
-1.0
 40
-1.0
 40
-1.0
 40
0.0
 40
0.0
 40
0.0
 40
0.0
 10
304.4069288085057
 20
99.13756162821119
 30
0.0
 41
1.0
 10
305.6345089171482
 20
96.8092696360236
 30
0.0
 41
1.0
 10
306.2695127928806
 20
95.60276963602337
 30
0.0
 41
1.0
 10
306.3119288085056
 20
95.51806162821231
 30
0.0
 41
1.0
  0
SPLINE
  5
223
330
70
100
AcDbEntity
  8
Visible
100
AcDbSpline
210
0.0
220
0.0
230
1.0
 70
    12
 71
     3
 72
     8
 73
     4
 74
     0
 42
0.000000001
 43
0.0000000001
 40
-1.0
 40
-1.0
 40
-1.0
 40
-1.0
 40
0.0
 40
0.0
 40
0.0
 40
0.0
 10
301.0414288085057
 20
105.1065616282121
 30
0.0
 41
1.0
 10
302.0574288085057
 20
103.4555616282123
 30
0.0
 41
1.0
 10
303.1792208006931
 20
101.4658536203987
 30
0.0
 41
1.0
 10
304.4069288085057
 20
99.13756162821119
 30
0.0
 41
1.0
  0
SPLINE
  5
224
330
70
100
AcDbEntity
  8
Visible
100
AcDbSpline
210
0.0
220
0.0
230
1.0
 70
    12
 71
     3
 72
     8
 73
     4
 74
     0
 42
0.000000001
 43
0.0000000001
 40
-1.0
 40
-1.0
 40
-1.0
 40
-1.0
 40
0.0
 40
0.0
 40
0.0
 40
0.0
 10
298.2855272582128
 20
108.9546600779176
 30
0.0
 41
1.0
 10
299.1068375914647
 20
108.0402624033577
 30
0.0
 41
1.0
 10
300.0254288085057
 20
106.757561628212
 30
0.0
 41
1.0
 10
301.0414288085057
 20
105.1065616282121
 30
0.0
 41
1.0
  0
SPLINE
  5
225
330
70
100
AcDbEntity
  8
Visible
100
AcDbSpline
210
0.0
220
0.0
230
1.0
 70
    12
 71
     3
 72
     8
 73
     4
 74
     0
 42
0.000000001
 43
0.0000000001
 40
-1.0
 40
-1.0
 40
-1.0
 40
-1.0
 40
0.0
 40
0.0
 40
0.0
 40
0.0
 10
296.1519288085058
 20
110.8215616282123
 30
0.0
 41
1.0
 10
296.7445089171483
 20
110.4829776438364
 30
0.0
 41
1.0
 10
297.4558375914647
 20
109.8606784189833
 30
0.0
 41
1.0
 10
298.2855272582128
 20
108.9546600779176
 30
0.0
 41
1.0
  0
SPLINE
  5
226
330
70
100
AcDbEntity
  8
Visible
100
AcDbSpline
210
0.0
220
0.0
230
1.0
 70
    12
 71
     3
 72
     8
 73
     4
 74
     0
 42
0.000000001
 43
0.0000000001
 40
-1.0
 40
-1.0
 40
-1.0
 40
-1.0
 40
0.0
 40
0.0
 40
0.0
 40
0.0
 10
294.5009288085058
 20
111.3930616282123
 30
0.0
 41
1.0
 10
295.0089288085058
 20
111.3506417368535
 30
0.0
 41
1.0
 10
295.5592208006933
 20
111.1601417368547
 30
0.0
 41
1.0
 10
296.1519288085058
 20
110.8215616282123
 30
0.0
 41
1.0
  0
SPLINE
  5
227
330
70
100
AcDbEntity
  8
Visible
100
AcDbSpline
210
0.0
220
0.0
230
1.0
 70
    12
 71
     3
 72
     8
 73
     4
 74
     0
 42
0.000000001
 43
0.0000000001
 40
-1.0
 40
-1.0
 40
-1.0
 40
-1.0
 40
0.0
 40
0.0
 40
0.0
 40
0.0
 10
293.3579288085058
 20
111.3295616282121
 30
0.0
 41
1.0
 10
293.6119288085058
 20
111.4141417368537
 30
0.0
 41
1.0
 10
293.9929288085058
 20
111.4354815195693
 30
0.0
 41
1.0
 10
294.5009288085058
 20
111.3930616282123
 30
0.0
 41
1.0
  0
SPLINE
  5
228
330
70
100
AcDbEntity
  8
Visible
100
AcDbSpline
210
0.0
220
0.0
230
1.0
 70
    12
 71
     3
 72
     8
 73
     4
 74
     0
 42
0.000000001
 43
0.0000000001
 40
-1.0
 40
-1.0
 40
-1.0
 40
-1.0
 40
0.0
 40
0.0
 40
0.0
 40
0.0
 10
292.1514288085058
 20
110.5675616282115
 30
0.0
 41
1.0
 10
292.7017208006933
 20
110.9909815195697
 30
0.0
 41
1.0
 10
293.1039288085058
 20
111.2449815195686
 30
0.0
 41
1.0
 10
293.3579288085058
 20
111.3295616282121
 30
0.0
 41
1.0
  0
SPLINE
  5
229
330
70
100
AcDbEntity
  8
Visible
100
AcDbSpline
210
0.0
220
0.0
230
1.0
 70
    12
 71
     3
 72
     8
 73
     4
 74
     0
 42
0.000000001
 43
0.0000000001
 40
-1.0
 40
-1.0
 40
-1.0
 40
-1.0
 40
0.0
 40
0.0
 40
0.0
 40
0.0
 10
290.5004288085058
 20
108.6244631785048
 30
0.0
 41
1.0
 10
291.0507208006933
 20
109.4964448374394
 30
0.0
 41
1.0
 10
291.6010089171484
 20
110.1441417368532
 30
0.0
 41
1.0
 10
292.1514288085058
 20
110.5675616282115
 30
0.0
 41
1.0
  0
LINE
  5
22A
330
70
100
AcDbEntity
  8
Visible
100
AcDbLine
 10
289.674929
 20
107.329062
 30
0.0
 11
290.500429
 21
108.624463
 31
0.0
210
-1.0
220
-0.0000000000000002
230
0.0
  0
LINE
  5
22B
330
70
100
AcDbEntity
  8
Visible
100
AcDbLine
 10
289.484429
 20
107.354463
 30
0.0
 11
289.674929
 21
107.329062
 31
0.0
210
-1.0
220
-0.0000000000000002
230
0.0
  0
LINE
  5
22C
330
70
100
AcDbEntity
  8
Visible
100
AcDbLine
 10
289.293929
 20
107.392562
 30
0.0
 11
289.484429
 21
107.354463
 31
0.0
210
-1.0
220
-0.0000000000000002
230
0.0
  0
LINE
  5
22D
330
70
100
AcDbEntity
  8
Visible
100
AcDbLine
 10
289.268527
 20
107.43066
 30
0.0
 11
289.293929
 21
107.392562
 31
0.0
210
-1.0
220
-0.0000000000000002
230
0.0
  0
LINE
  5
22E
330
70
100
AcDbEntity
  8
Visible
100
AcDbLine
 10
289.230429
 20
107.456062
 30
0.0
 11
289.268527
 21
107.43066
 31
0.0
210
-1.0
220
-0.0000000000000002
230
0.0
  0
LINE
  5
22F
330
70
100
AcDbEntity
  8
Visible
100
AcDbLine
 10
289.192202
 20
107.481463
 30
0.0
 11
289.230429
 21
107.456062
 31
0.0
210
-1.0
220
-0.0000000000000002
230
0.0
  0
LINE
  5
230
330
70
100
AcDbEntity
  8
Visible
100
AcDbLine
 10
289.166929
 20
107.519562
 30
0.0
 11
289.192202
 21
107.481463
 31
0.0
210
-1.0
220
-0.0000000000000002
230
0.0
  0
LINE
  5
231
330
70
100
AcDbEntity
  8
Visible
100
AcDbLine
 10
287.515929
 20
108.916562
 30
0.0
 11
289.166929
 21
107.519562
 31
0.0
210
-1.0
220
-0.0000000000000002
230
0.0
  0
SPLINE
  5
232
330
70
100
AcDbEntity
  8
Visible
100
AcDbSpline
210
0.0
220
0.0
230
1.0
 70
    12
 71
     3
 72
     8
 73
     4
 74
     0
 42
0.000000001
 43
0.0000000001
 40
-1.0
 40
-1.0
 40
-1.0
 40
-1.0
 40
0.0
 40
0.0
 40
0.0
 40
0.0
 10
283.8964288085058
 20
111.5200616282109
 30
0.0
 41
1.0
 10
285.2087208006933
 20
110.7156456125867
 30
0.0
 41
1.0
 10
286.4152208006933
 20
109.8479815195696
 30
0.0
 41
1.0
 10
287.5159288085058
 20
108.9165616282116
 30
0.0
 41
1.0
  0
SPLINE
  5
233
330
70
100
AcDbEntity
  8
Visible
100
AcDbSpline
210
0.0
220
0.0
230
1.0
 70
    12
 71
     3
 72
     8
 73
     4
 74
     0
 42
0.000000001
 43
0.0000000001
 40
-1.0
 40
-1.0
 40
-1.0
 40
-1.0
 40
0.0
 40
0.0
 40
0.0
 40
0.0
 10
280.3404288085058
 20
113.2980616282111
 30
0.0
 41
1.0
 10
281.3987208006933
 20
112.9170616282117
 30
0.0
 41
1.0
 10
282.5840127928809
 20
112.3244815195685
 30
0.0
 41
1.0
 10
283.8964288085058
 20
111.5200616282109
 30
0.0
 41
1.0
  0
SPLINE
  5
234
330
70
100
AcDbEntity
  8
Visible
100
AcDbSpline
210
0.0
220
0.0
230
1.0
 70
    12
 71
     3
 72
     8
 73
     4
 74
     0
 42
0.000000001
 43
0.0000000001
 40
-1.0
 40
-1.0
 40
-1.0
 40
-1.0
 40
0.0
 40
0.0
 40
0.0
 40
0.0
 10
277.4194288085059
 20
113.9965616282115
 30
0.0
 41
1.0
 10
278.3084288085059
 20
113.9119815195681
 30
0.0
 41
1.0
 10
279.2820127928809
 20
113.6790616282123
 30
0.0
 41
1.0
 10
280.3404288085058
 20
113.2980616282111
 30
0.0
 41
1.0
  0
SPLINE
  5
235
330
70
100
AcDbEntity
  8
Visible
100
AcDbSpline
210
0.0
220
0.0
230
1.0
 70
    12
 71
     3
 72
     8
 73
     4
 74
     0
 42
0.000000001
 43
0.0000000001
 40
-1.0
 40
-1.0
 40
-1.0
 40
-1.0
 40
0.0
 40
0.0
 40
0.0
 40
0.0
 10
274.9429288085059
 20
113.8695616282111
 30
0.0
 41
1.0
 10
275.7049288085059
 20
114.0389815195685
 30
0.0
 41
1.0
 10
276.5304288085058
 20
114.081141736855
 30
0.0
 41
1.0
 10
277.4194288085059
 20
113.9965616282115
 30
0.0
 41
1.0
  0
SPLINE
  5
236
330
70
100
AcDbEntity
  8
Visible
100
AcDbSpline
210
0.0
220
0.0
230
1.0
 70
    12
 71
     3
 72
     8
 73
     4
 74
     0
 42
0.000000001
 43
0.0000000001
 40
-1.0
 40
-1.0
 40
-1.0
 40
-1.0
 40
0.0
 40
0.0
 40
0.0
 40
0.0
 10
273.1014288085059
 20
113.1964631785049
 30
0.0
 41
1.0
 10
273.5670127928809
 20
113.4758608530646
 30
0.0
 41
1.0
 10
274.1809288085059
 20
113.7001417368537
 30
0.0
 41
1.0
 10
274.9429288085059
 20
113.8695616282111
 30
0.0
 41
1.0
  0
SPLINE
  5
237
330
70
100
AcDbEntity
  8
Visible
100
AcDbSpline
210
0.0
220
0.0
230
1.0
 70
    12
 71
     3
 72
     8
 73
     4
 74
     0
 42
0.000000001
 43
0.0000000001
 40
-1.0
 40
-1.0
 40
-1.0
 40
-1.0
 40
0.0
 40
0.0
 40
0.0
 40
0.0
 10
272.4029288085059
 20
112.6630616282109
 30
0.0
 41
1.0
 10
272.4029288085059
 20
112.747645612586
 30
0.0
 41
1.0
 10
272.6357188628272
 20
112.9254448374395
 30
0.0
 41
1.0
 10
273.1014288085059
 20
113.1964631785049
 30
0.0
 41
1.0
  0
SPLINE
  5
238
330
70
100
AcDbEntity
  8
Visible
100
AcDbSpline
210
0.0
220
0.0
230
1.0
 70
    12
 71
     3
 72
     8
 73
     4
 74
     0
 42
0.000000001
 43
0.0000000001
 40
-1.0
 40
-1.0
 40
-1.0
 40
-1.0
 40
0.0
 40
0.0
 40
0.0
 40
0.0
 10
272.2759288085059
 20
112.5360616282123
 30
0.0
 41
1.0
 10
272.3605108550147
 20
112.5360616282123
 30
0.0
 41
1.0
 10
272.4029288085059
 20
112.5784776438358
 30
0.0
 41
1.0
 10
272.4029288085059
 20
112.6630616282109
 30
0.0
 41
1.0
  0
SPLINE
  5
239
330
70
100
AcDbEntity
  8
Visible
100
AcDbSpline
210
0.0
220
0.0
230
1.0
 70
    12
 71
     3
 72
     8
 73
     4
 74
     0
 42
0.000000001
 43
0.0000000001
 40
-1.0
 40
-1.0
 40
-1.0
 40
-1.0
 40
0.0
 40
0.0
 40
0.0
 40
0.0
 10
271.6155291960792
 20
111.5835616282111
 30
0.0
 41
1.0
 10
271.9711295836524
 20
112.2185616282113
 30
0.0
 41
1.0
 10
272.1912188628272
 20
112.5360616282123
 30
0.0
 41
1.0
 10
272.2759288085059
 20
112.5360616282123
 30
0.0
 41
1.0
  0
SPLINE
  5
23A
330
70
100
AcDbEntity
  8
Visible
100
AcDbSpline
210
0.0
220
0.0
230
1.0
 70
    12
 71
     3
 72
     8
 73
     4
 74
     0
 42
0.000000001
 43
0.0000000001
 40
-1.0
 40
-1.0
 40
-1.0
 40
-1.0
 40
0.0
 40
0.0
 40
0.0
 40
0.0
 10
270.8789288085059
 20
109.7420616282124
 30
0.0
 41
1.0
 10
271.0059288085059
 20
110.3346456125873
 30
0.0
 41
1.0
 10
271.2514196379737
 20
110.9485616282109
 30
0.0
 41
1.0
 10
271.6155291960792
 20
111.5835616282111
 30
0.0
 41
1.0
  0
SPLINE
  5
23B
330
70
100
AcDbEntity
  8
Visible
100
AcDbSpline
210
0.0
220
0.0
230
1.0
 70
    12
 71
     3
 72
     8
 73
     4
 74
     0
 42
0.000000001
 43
0.0000000001
 40
-1.0
 40
-1.0
 40
-1.0
 40
-1.0
 40
0.0
 40
0.0
 40
0.0
 40
0.0
 10
270.8154288085059
 20
107.329061628212
 30
0.0
 41
1.0
 10
270.7307188628271
 20
108.3450616282116
 30
0.0
 41
1.0
 10
270.7519288085058
 20
109.1494776438376
 30
0.0
 41
1.0
 10
270.8789288085059
 20
109.7420616282124
 30
0.0
 41
1.0
  0
SPLINE
  5
23C
330
70
100
AcDbEntity
  8
Visible
100
AcDbSpline
210
0.0
220
0.0
230
1.0
 70
    12
 71
     3
 72
     8
 73
     4
 74
     0
 42
0.000000001
 43
0.0000000001
 40
-1.0
 40
-1.0
 40
-1.0
 40
-1.0
 40
0.0
 40
0.0
 40
0.0
 40
0.0
 10
271.5774288085058
 20
104.0270616282123
 30
0.0
 41
1.0
 10
271.1540108550146
 20
105.2123536203999
 30
0.0
 41
1.0
 10
270.9000108550146
 20
106.3130616282124
 30
0.0
 41
1.0
 10
270.8154288085059
 20
107.329061628212
 30
0.0
 41
1.0
  0
SPLINE
  5
23D
330
70
100
AcDbEntity
  8
Visible
100
AcDbSpline
210
0.0
220
0.0
230
1.0
 70
    12
 71
     3
 72
     8
 73
     4
 74
     0
 42
0.000000001
 43
0.0000000001
 40
-1.0
 40
-1.0
 40
-1.0
 40
-1.0
 40
0.0
 40
0.0
 40
0.0
 40
0.0
 10
273.4189288085058
 20
100.4075616282116
 30
0.0
 41
1.0
 10
272.6145108550146
 20
101.6352696360245
 30
0.0
 41
1.0
 10
272.0007188628271
 20
102.8417696360247
 30
0.0
 41
1.0
 10
271.5774288085058
 20
104.0270616282123
 30
0.0
 41
1.0
  0
SPLINE
  5
23E
330
70
100
AcDbEntity
  8
Visible
100
AcDbSpline
210
0.0
220
0.0
230
1.0
 70
    12
 71
     3
 72
     8
 73
     4
 74
     0
 42
0.000000001
 43
0.0000000001
 40
-1.0
 40
-1.0
 40
-1.0
 40
-1.0
 40
0.0
 40
0.0
 40
0.0
 40
0.0
 10
275.8573303587987
 20
97.19446317850453
 30
0.0
 41
1.0
 10
275.0360200255467
 20
98.10886085306448
 30
0.0
 41
1.0
 10
274.2232208006933
 20
99.17985362039871
 30
0.0
 41
1.0
 10
273.4189288085058
 20
100.4075616282116
 30
0.0
 41
1.0
  0
SPLINE
  5
23F
330
70
100
AcDbEntity
  8
Visible
100
AcDbSpline
210
0.0
220
0.0
230
1.0
 70
    12
 71
     3
 72
     8
 73
     4
 74
     0
 42
0.000000001
 43
0.0000000001
 40
-1.0
 40
-1.0
 40
-1.0
 40
-1.0
 40
0.0
 40
0.0
 40
0.0
 40
0.0
 10
277.1273303587987
 20
95.79746317850549
 30
0.0
 41
1.0
 10
277.1103120177343
 20
95.82286472879786
 30
0.0
 41
1.0
 10
276.6870200255468
 20
96.28844483744069
 30
0.0
 41
1.0
 10
275.8573303587987
 20
97.19446317850453
 30
0.0
 41
1.0
  0
LINE
  5
240
330
70
100
AcDbEntity
  8
Visible
100
AcDbLine
 10
277.203527
 20
95.74666
 30
0.0
 11
277.12733
 21
95.797463
 31
0.0
210
-1.0
220
-0.0000000000000002
230
0.0
  0
LINE
  5
241
330
70
100
AcDbEntity
  8
Visible
100
AcDbLine
 10
277.25433
 20
95.670463
 30
0.0
 11
277.203527
 21
95.74666
 31
0.0
210
-1.0
220
-0.0000000000000002
230
0.0
  0
LINE
  5
242
330
70
100
AcDbEntity
  8
Visible
100
AcDbLine
 10
277.330527
 20
95.61966
 30
0.0
 11
277.25433
 21
95.670463
 31
0.0
210
-1.0
220
-0.0000000000000002
230
0.0
  0
LINE
  5
243
330
70
100
AcDbEntity
  8
Visible
100
AcDbLine
 10
277.38133
 20
95.543463
 30
0.0
 11
277.330527
 21
95.61966
 31
0.0
210
-1.0
220
-0.0000000000000002
230
0.0
  0
LINE
  5
244
330
70
100
AcDbEntity
  8
Visible
100
AcDbLine
 10
277.457527
 20
95.49266
 30
0.0
 11
277.38133
 21
95.543463
 31
0.0
210
-1.0
220
-0.0000000000000002
230
0.0
  0
LINE
  5
245
330
70
100
AcDbEntity
  8
Visible
100
AcDbLine
 10
277.50833
 20
95.416463
 30
0.0
 11
277.457527
 21
95.49266
 31
0.0
210
-1.0
220
-0.0000000000000002
230
0.0
  0
LINE
  5
246
330
70
100
AcDbEntity
  8
Visible
100
AcDbLine
 10
277.584527
 20
95.36566
 30
0.0
 11
277.50833
 21
95.416463
 31
0.0
210
-1.0
220
-0.0000000000000002
230
0.0
  0
LINE
  5
247
330
70
100
AcDbEntity
  8
Visible
100
AcDbLine
 10
277.609929
 20
95.327562
 30
0.0
 11
277.584527
 21
95.36566
 31
0.0
210
-1.0
220
-0.0000000000000002
230
0.0
  0
LINE
  5
248
330
70
100
AcDbEntity
  8
Visible
100
AcDbLine
 10
277.736929
 20
95.289463
 30
0.0
 11
277.609929
 21
95.327562
 31
0.0
210
-1.0
220
-0.0000000000000002
230
0.0
  0
LINE
  5
249
330
70
100
AcDbEntity
  8
Visible
100
AcDbLine
 10
277.863929
 20
95.264062
 30
0.0
 11
277.736929
 21
95.289463
 31
0.0
210
-1.0
220
-0.0000000000000002
230
0.0
  0
LINE
  5
24A
330
70
100
AcDbEntity
  8
Visible
100
AcDbLine
 10
277.863929
 20
95.010062
 30
0.0
 11
277.863929
 21
95.264062
 31
0.0
210
-1.0
220
-0.0000000000000002
230
0.0
  0
LINE
  5
24B
330
70
100
AcDbEntity
  8
Visible
100
AcDbLine
 10
277.736929
 20
95.035463
 30
0.0
 11
277.863929
 21
95.010062
 31
0.0
210
-1.0
220
-0.0000000000000002
230
0.0
  0
LINE
  5
24C
330
70
100
AcDbEntity
  8
Visible
100
AcDbLine
 10
277.609929
 20
95.073562
 30
0.0
 11
277.736929
 21
95.035463
 31
0.0
210
-1.0
220
-0.0000000000000002
230
0.0
  0
LINE
  5
24D
330
70
100
AcDbEntity
  8
Visible
100
AcDbLine
 10
276.657429
 20
95.391062
 30
0.0
 11
277.609929
 21
95.073562
 31
0.0
210
-1.0
220
-0.0000000000000002
230
0.0
  0
SPLINE
  5
24E
330
70
100
AcDbEntity
  8
Visible
100
AcDbSpline
210
0.0
220
0.0
230
1.0
 70
    12
 71
     3
 72
     8
 73
     4
 74
     0
 42
0.000000001
 43
0.0000000001
 40
-1.0
 40
-1.0
 40
-1.0
 40
-1.0
 40
0.0
 40
0.0
 40
0.0
 40
0.0
 10
275.1969288085057
 20
95.83556162821151
 30
0.0
 41
1.0
 10
276.0435089171483
 20
95.58156162821251
 30
0.0
 41
1.0
 10
276.5304288085057
 20
95.43335362039943
 30
0.0
 41
1.0
 10
276.6574288085057
 20
95.39106162821189
 30
0.0
 41
1.0
  0
SPLINE
  5
24F
330
70
100
AcDbEntity
  8
Visible
100
AcDbSpline
210
0.0
220
0.0
230
1.0
 70
    12
 71
     3
 72
     8
 73
     4
 74
     0
 42
0.000000001
 43
0.0000000001
 40
-1.0
 40
-1.0
 40
-1.0
 40
-1.0
 40
0.0
 40
0.0
 40
0.0
 40
0.0
 10
270.6884288085058
 20
97.55006162821155
 30
0.0
 41
1.0
 10
272.8474288085057
 20
96.66106162821234
 30
0.0
 41
1.0
 10
274.3502208006932
 20
96.08956162821232
 30
0.0
 41
1.0
 10
275.1969288085057
 20
95.83556162821151
 30
0.0
 41
1.0
  0
SPLINE
  5
250
330
70
100
AcDbEntity
  8
Visible
100
AcDbSpline
210
0.0
220
0.0
230
1.0
 70
    12
 71
     3
 72
     8
 73
     4
 74
     0
 42
0.000000001
 43
0.0000000001
 40
-1.0
 40
-1.0
 40
-1.0
 40
-1.0
 40
0.0
 40
0.0
 40
0.0
 40
0.0
 10
264.9099288085058
 20
100.2805616282112
 30
0.0
 41
1.0
 10
266.6032208006933
 20
99.34926963602448
 30
0.0
 41
1.0
 10
268.5294288085058
 20
98.43906162821259
 30
0.0
 41
1.0
 10
270.6884288085058
 20
97.55006162821155
 30
0.0
 41
1.0
  0
SPLINE
  5
251
330
70
100
AcDbEntity
  8
Visible
100
AcDbSpline
210
0.0
220
0.0
230
1.0
 70
    12
 71
     3
 72
     8
 73
     4
 74
     0
 42
0.000000001
 43
0.0000000001
 40
-1.0
 40
-1.0
 40
-1.0
 40
-1.0
 40
0.0
 40
0.0
 40
0.0
 40
0.0
 10
260.2744288085059
 20
103.2015616282115
 30
0.0
 41
1.0
 10
261.6714288085059
 20
102.1855616282118
 30
0.0
 41
1.0
 10
263.2165108550146
 20
101.2118536203997
 30
0.0
 41
1.0
 10
264.9099288085058
 20
100.2805616282112
 30
0.0
 41
1.0
  0
SPLINE
  5
252
330
70
100
AcDbEntity
  8
Visible
100
AcDbSpline
210
0.0
220
0.0
230
1.0
 70
    12
 71
     3
 72
     8
 73
     4
 74
     0
 42
0.000000001
 43
0.0000000001
 40
-1.0
 40
-1.0
 40
-1.0
 40
-1.0
 40
0.0
 40
0.0
 40
0.0
 40
0.0
 10
256.6803284209326
 20
106.2114631785043
 30
0.0
 41
1.0
 10
257.6793100798682
 20
105.2208608530654
 30
0.0
 41
1.0
 10
258.8774288085059
 20
104.2175616282111
 30
0.0
 41
1.0
 10
260.2744288085059
 20
103.2015616282115
 30
0.0
 41
1.0
  0
ARC
  5
253
330
70
100
AcDbEntity
  8
Visible
100
AcDbCircle
 10
281.981217
 20
131.293105
 30
0.0
 40
35.62616650390604
100
AcDbArc
 50
217.944883
 51
224.750671
  0
ARC
  5
254
330
70
100
AcDbEntity
  8
Visible
100
AcDbCircle
 10
274.003207
 20
124.831528
 30
0.0
 40
25.36215347290027
100
AcDbArc
 50
207.954607
 51
217.515845
  0
SPLINE
  5
255
330
70
100
AcDbEntity
  8
Visible
100
AcDbSpline
210
0.0
220
0.0
230
1.0
 70
    12
 71
     3
 72
     8
 73
     4
 74
     0
 42
0.000000001
 43
0.0000000001
 40
-1.0
 40
-1.0
 40
-1.0
 40
-1.0
 40
0.0
 40
0.0
 40
0.0
 40
0.0
 10
250.114428808506
 20
116.663561628211
 30
0.0
 41
1.0
 10
250.4530108550148
 20
115.4359815195694
 30
0.0
 41
1.0
 10
250.9483100798683
 20
114.1954448374399
 30
0.0
 41
1.0
 10
251.6003284209327
 20
112.9424631785041
 30
0.0
 41
1.0
  0
SPLINE
  5
256
330
70
100
AcDbEntity
  8
Visible
100
AcDbSpline
210
0.0
220
0.0
230
1.0
 70
    12
 71
     3
 72
     8
 73
     4
 74
     0
 42
0.000000001
 43
0.0000000001
 40
-1.0
 40
-1.0
 40
-1.0
 40
-1.0
 40
0.0
 40
0.0
 40
0.0
 40
0.0
 10
249.542928808506
 20
120.2195616282115
 30
0.0
 41
1.0
 10
249.5852198317604
 20
119.0765616282115
 30
0.0
 41
1.0
 10
249.7757198317605
 20
117.8911456125861
 30
0.0
 41
1.0
 10
250.114428808506
 20
116.663561628211
 30
0.0
 41
1.0
  0
SPLINE
  5
257
330
70
100
AcDbEntity
  8
Visible
100
AcDbSpline
210
0.0
220
0.0
230
1.0
 70
    12
 71
     3
 72
     8
 73
     4
 74
     0
 42
0.000000001
 43
0.0000000001
 40
-1.0
 40
-1.0
 40
-1.0
 40
-1.0
 40
0.0
 40
0.0
 40
0.0
 40
0.0
 10
249.8604288085061
 20
123.5215616282112
 30
0.0
 41
1.0
 10
249.6064288085061
 20
122.463269636024
 30
0.0
 41
1.0
 10
249.5005108550149
 20
121.3625616282115
 30
0.0
 41
1.0
 10
249.542928808506
 20
120.2195616282115
 30
0.0
 41
1.0
  0
SPLINE
  5
258
330
70
100
AcDbEntity
  8
Visible
100
AcDbSpline
210
0.0
220
0.0
230
1.0
 70
    12
 71
     3
 72
     8
 73
     4
 74
     0
 42
0.000000001
 43
0.0000000001
 40
-1.0
 40
-1.0
 40
-1.0
 40
-1.0
 40
0.0
 40
0.0
 40
0.0
 40
0.0
 10
251.1304288085061
 20
126.8870616282111
 30
0.0
 41
1.0
 10
250.5377198317605
 20
125.7017696360235
 30
0.0
 41
1.0
 10
250.1144288085061
 20
124.5798536204002
 30
0.0
 41
1.0
 10
249.8604288085061
 20
123.5215616282112
 30
0.0
 41
1.0
  0
SPLINE
  5
259
330
70
100
AcDbEntity
  8
Visible
100
AcDbSpline
210
0.0
220
0.0
230
1.0
 70
    12
 71
     3
 72
     8
 73
     4
 74
     0
 42
0.000000001
 43
0.0000000001
 40
-1.0
 40
-1.0
 40
-1.0
 40
-1.0
 40
0.0
 40
0.0
 40
0.0
 40
0.0
 10
253.5053284209329
 20
130.5446620157854
 30
0.0
 41
1.0
 10
252.5146020720559
 20
129.2916803568496
 30
0.0
 41
1.0
 10
251.7230108550149
 20
128.0723536203986
 30
0.0
 41
1.0
 10
251.1304288085061
 20
126.8870616282111
 30
0.0
 41
1.0
  0
SPLINE
  5
25A
330
70
100
AcDbEntity
  8
Visible
100
AcDbSpline
210
0.0
220
0.0
230
1.0
 70
    12
 71
     3
 72
     8
 73
     4
 74
     0
 42
0.000000001
 43
0.0000000001
 40
-1.0
 40
-1.0
 40
-1.0
 40
-1.0
 40
0.0
 40
0.0
 40
0.0
 40
0.0
 10
256.9724288085061
 20
134.1260616282125
 30
0.0
 41
1.0
 10
255.6600108550149
 20
132.9830616282124
 30
0.0
 41
1.0
 10
254.5043100798685
 20
131.7892624033575
 30
0.0
 41
1.0
 10
253.5053284209329
 20
130.5446620157854
 30
0.0
 41
1.0
  0
SPLINE
  5
25B
330
70
100
AcDbEntity
  8
Visible
100
AcDbSpline
210
0.0
220
0.0
230
1.0
 70
    12
 71
     3
 72
     8
 73
     4
 74
     0
 42
0.000000001
 43
0.0000000001
 40
-1.0
 40
-1.0
 40
-1.0
 40
-1.0
 40
0.0
 40
0.0
 40
0.0
 40
0.0
 10
260.9729288085061
 20
137.2375616282115
 30
0.0
 41
1.0
 10
259.6182208006936
 20
136.3062696360248
 30
0.0
 41
1.0
 10
258.2847208006937
 20
135.2690616282125
 30
0.0
 41
1.0
 10
256.9724288085061
 20
134.1260616282125
 30
0.0
 41
1.0
  0
SPLINE
  5
25C
330
70
100
AcDbEntity
  8
Visible
100
AcDbSpline
210
0.0
220
0.0
230
1.0
 70
    12
 71
     3
 72
     8
 73
     4
 74
     0
 42
0.000000001
 43
0.0000000001
 40
-1.0
 40
-1.0
 40
-1.0
 40
-1.0
 40
0.0
 40
0.0
 40
0.0
 40
0.0
 10
265.8624288085061
 20
140.1585616282118
 30
0.0
 41
1.0
 10
263.9574288085062
 20
139.1425616282122
 30
0.0
 41
1.0
 10
262.3275108550149
 20
138.1688536203983
 30
0.0
 41
1.0
 10
260.9729288085061
 20
137.2375616282115
 30
0.0
 41
1.0
  0
SPLINE
  5
25D
330
70
100
AcDbEntity
  8
Visible
100
AcDbSpline
210
0.0
220
0.0
230
1.0
 70
    12
 71
     3
 72
     8
 73
     4
 74
     0
 42
0.000000001
 43
0.0000000001
 40
-1.0
 40
-1.0
 40
-1.0
 40
-1.0
 40
0.0
 40
0.0
 40
0.0
 40
0.0
 10
272.5934288085061
 20
143.2065616282107
 30
0.0
 41
1.0
 10
270.0110108550149
 20
142.190561628211
 30
0.0
 41
1.0
 10
267.7674288085061
 20
141.1745616282114
 30
0.0
 41
1.0
 10
265.8624288085061
 20
140.1585616282118
 30
0.0
 41
1.0
  0
SPLINE
  5
25E
330
70
100
AcDbEntity
  8
Visible
100
AcDbSpline
210
0.0
220
0.0
230
1.0
 70
    12
 71
     3
 72
     8
 73
     4
 74
     0
 42
0.000000001
 43
0.0000000001
 40
-1.0
 40
-1.0
 40
-1.0
 40
-1.0
 40
0.0
 40
0.0
 40
0.0
 40
0.0
 10
280.5944288085061
 20
145.8735616282119
 30
0.0
 41
1.0
 10
277.8427208006937
 20
145.1115616282113
 30
0.0
 41
1.0
 10
275.1757208006936
 20
144.2225616282121
 30
0.0
 41
1.0
 10
272.5934288085061
 20
143.2065616282107
 30
0.0
 41
1.0
  0
LINE
  5
25F
330
70
100
AcDbEntity
  8
Visible
100
AcDbLine
 10
284.721929
 20
147.016562
 30
0.0
 11
280.594429
 21
145.873562
 31
0.0
210
-1.0
220
-0.0000000000000002
230
0.0
  0
LINE
  5
260
330
70
100
AcDbEntity
  8
Visible
100
AcDbLine
 10
285.229929
 20
147.143562
 30
0.0
 11
284.721929
 21
147.016562
 31
0.0
210
-1.0
220
-0.0000000000000002
230
0.0
  0
LINE
  5
261
330
70
100
AcDbEntity
  8
Visible
100
AcDbLine
 10
285.737929
 20
147.143562
 30
0.0
 11
285.229929
 21
147.143562
 31
0.0
210
-1.0
220
-0.0000000000000002
230
0.0
  0
LINE
  5
262
330
70
100
AcDbEntity
  8
Visible
100
AcDbLine
 10
285.712527
 20
147.105461
 30
0.0
 11
285.737929
 21
147.143562
 31
0.0
210
-1.0
220
-0.0000000000000002
230
0.0
  0
LINE
  5
263
330
70
100
AcDbEntity
  8
Visible
100
AcDbLine
 10
285.674429
 20
147.080062
 30
0.0
 11
285.712527
 21
147.105461
 31
0.0
210
-1.0
220
-0.0000000000000002
230
0.0
  0
LINE
  5
264
330
70
100
AcDbEntity
  8
Visible
100
AcDbLine
 10
285.636202
 20
147.054662
 30
0.0
 11
285.674429
 21
147.080062
 31
0.0
210
-1.0
220
-0.0000000000000002
230
0.0
  0
LINE
  5
265
330
70
100
AcDbEntity
  8
Visible
100
AcDbLine
 10
285.610929
 20
147.016562
 30
0.0
 11
285.636202
 21
147.054662
 31
0.0
210
-1.0
220
-0.0000000000000002
230
0.0
  0
LINE
  5
266
330
70
100
AcDbEntity
  8
Visible
100
AcDbLine
 10
285.585527
 20
146.978461
 30
0.0
 11
285.610929
 21
147.016562
 31
0.0
210
-1.0
220
-0.0000000000000002
230
0.0
  0
LINE
  5
267
330
70
100
AcDbEntity
  8
Visible
100
AcDbLine
 10
285.547429
 20
146.953062
 30
0.0
 11
285.585527
 21
146.978461
 31
0.0
210
-1.0
220
-0.0000000000000002
230
0.0
  0
LINE
  5
268
330
70
100
AcDbEntity
  8
Visible
100
AcDbLine
 10
285.509202
 20
146.927662
 30
0.0
 11
285.547429
 21
146.953062
 31
0.0
210
-1.0
220
-0.0000000000000002
230
0.0
  0
LINE
  5
269
330
70
100
AcDbEntity
  8
Visible
100
AcDbLine
 10
285.483929
 20
146.889562
 30
0.0
 11
285.509202
 21
146.927662
 31
0.0
210
-1.0
220
-0.0000000000000002
230
0.0
  0
LINE
  5
26A
330
70
100
AcDbEntity
  8
Visible
100
AcDbLine
 10
285.458527
 20
146.851461
 30
0.0
 11
285.483929
 21
146.889562
 31
0.0
210
-1.0
220
-0.0000000000000002
230
0.0
  0
LINE
  5
26B
330
70
100
AcDbEntity
  8
Visible
100
AcDbLine
 10
285.420429
 20
146.826062
 30
0.0
 11
285.458527
 21
146.851461
 31
0.0
210
-1.0
220
-0.0000000000000002
230
0.0
  0
LINE
  5
26C
330
70
100
AcDbEntity
  8
Visible
100
AcDbLine
 10
285.382202
 20
146.800662
 30
0.0
 11
285.420429
 21
146.826062
 31
0.0
210
-1.0
220
-0.0000000000000002
230
0.0
  0
LINE
  5
26D
330
70
100
AcDbEntity
  8
Visible
100
AcDbLine
 10
285.356929
 20
146.762562
 30
0.0
 11
285.382202
 21
146.800662
 31
0.0
210
-1.0
220
-0.0000000000000002
230
0.0
  0
LINE
  5
26E
330
70
100
AcDbEntity
  8
Visible
100
AcDbLine
 10
285.331527
 20
146.724461
 30
0.0
 11
285.356929
 21
146.762562
 31
0.0
210
-1.0
220
-0.0000000000000002
230
0.0
  0
LINE
  5
26F
330
70
100
AcDbEntity
  8
Visible
100
AcDbLine
 10
285.293429
 20
146.699062
 30
0.0
 11
285.331527
 21
146.724461
 31
0.0
210
-1.0
220
-0.0000000000000002
230
0.0
  0
LINE
  5
270
330
70
100
AcDbEntity
  8
Visible
100
AcDbLine
 10
285.255202
 20
146.673662
 30
0.0
 11
285.293429
 21
146.699062
 31
0.0
210
-1.0
220
-0.0000000000000002
230
0.0
  0
LINE
  5
271
330
70
100
AcDbEntity
  8
Visible
100
AcDbLine
 10
285.229929
 20
146.635562
 30
0.0
 11
285.255202
 21
146.673662
 31
0.0
210
-1.0
220
-0.0000000000000002
230
0.0
  0
LINE
  5
272
330
70
100
AcDbEntity
  8
Visible
100
AcDbLine
 10
285.204527
 20
146.597461
 30
0.0
 11
285.229929
 21
146.635562
 31
0.0
210
-1.0
220
-0.0000000000000002
230
0.0
  0
LINE
  5
273
330
70
100
AcDbEntity
  8
Visible
100
AcDbLine
 10
285.166429
 20
146.572062
 30
0.0
 11
285.204527
 21
146.597461
 31
0.0
210
-1.0
220
-0.0000000000000002
230
0.0
  0
LINE
  5
274
330
70
100
AcDbEntity
  8
Visible
100
AcDbLine
 10
285.128202
 20
146.546662
 30
0.0
 11
285.166429
 21
146.572062
 31
0.0
210
-1.0
220
-0.0000000000000002
230
0.0
  0
LINE
  5
275
330
70
100
AcDbEntity
  8
Visible
100
AcDbLine
 10
285.102929
 20
146.508562
 30
0.0
 11
285.128202
 21
146.546662
 31
0.0
210
-1.0
220
-0.0000000000000002
230
0.0
  0
LINE
  5
276
330
70
100
AcDbEntity
  8
Visible
100
AcDbLine
 10
285.077527
 20
146.470461
 30
0.0
 11
285.102929
 21
146.508562
 31
0.0
210
-1.0
220
-0.0000000000000002
230
0.0
  0
LINE
  5
277
330
70
100
AcDbEntity
  8
Visible
100
AcDbLine
 10
285.039429
 20
146.445062
 30
0.0
 11
285.077527
 21
146.470461
 31
0.0
210
-1.0
220
-0.0000000000000002
230
0.0
  0
LINE
  5
278
330
70
100
AcDbEntity
  8
Visible
100
AcDbLine
 10
285.001202
 20
146.419662
 30
0.0
 11
285.039429
 21
146.445062
 31
0.0
210
-1.0
220
-0.0000000000000002
230
0.0
  0
LINE
  5
279
330
70
100
AcDbEntity
  8
Visible
100
AcDbLine
 10
284.975929
 20
146.381562
 30
0.0
 11
285.001202
 21
146.419662
 31
0.0
210
-1.0
220
-0.0000000000000002
230
0.0
  0
LINE
  5
27A
330
70
100
AcDbEntity
  8
Visible
100
AcDbLine
 10
283.680527
 20
144.819461
 30
0.0
 11
284.975929
 21
146.381562
 31
0.0
210
-1.0
220
-0.0000000000000002
230
0.0
  0
SPLINE
  5
27B
330
70
100
AcDbEntity
  8
Visible
100
AcDbSpline
210
0.0
220
0.0
230
1.0
 70
    12
 71
     3
 72
     8
 73
     4
 74
     0
 42
0.000000001
 43
0.0000000001
 40
-1.0
 40
-1.0
 40
-1.0
 40
-1.0
 40
0.0
 40
0.0
 40
0.0
 40
0.0
 10
281.673928808506
 20
141.8730616282118
 30
0.0
 41
1.0
 10
282.1395089171486
 20
142.8043516825328
 30
0.0
 41
1.0
 10
282.8084177001077
 20
143.7864428995744
 30
0.0
 41
1.0
 10
283.6805272582131
 20
144.8194612406387
 30
0.0
 41
1.0
  0
SPLINE
  5
27C
330
70
100
AcDbEntity
  8
Visible
100
AcDbSpline
210
0.0
220
0.0
230
1.0
 70
    12
 71
     3
 72
     8
 73
     4
 74
     0
 42
0.000000001
 43
0.0000000001
 40
-1.0
 40
-1.0
 40
-1.0
 40
-1.0
 40
0.0
 40
0.0
 40
0.0
 40
0.0
 10
280.7214288085061
 20
139.4600616282114
 30
0.0
 41
1.0
 10
280.8907208006935
 20
140.1373536203991
 30
0.0
 41
1.0
 10
281.2082208006936
 20
140.9417696360233
 30
0.0
 41
1.0
 10
281.673928808506
 20
141.8730616282118
 30
0.0
 41
1.0
  0
SPLINE
  5
27D
330
70
100
AcDbEntity
  8
Visible
100
AcDbSpline
210
0.0
220
0.0
230
1.0
 70
    12
 71
     3
 72
     8
 73
     4
 74
     0
 42
0.000000001
 43
0.0000000001
 40
-1.0
 40
-1.0
 40
-1.0
 40
-1.0
 40
0.0
 40
0.0
 40
0.0
 40
0.0
 10
280.530928808506
 20
137.3645616282119
 30
0.0
 41
1.0
 10
280.4885089171486
 20
138.0842696360232
 30
0.0
 41
1.0
 10
280.5520089171487
 20
138.7827696360236
 30
0.0
 41
1.0
 10
280.7214288085061
 20
139.4600616282114
 30
0.0
 41
1.0
  0
SPLINE
  5
27E
330
70
100
AcDbEntity
  8
Visible
100
AcDbSpline
210
0.0
220
0.0
230
1.0
 70
    12
 71
     3
 72
     8
 73
     4
 74
     0
 42
0.000000001
 43
0.0000000001
 40
-1.0
 40
-1.0
 40
-1.0
 40
-1.0
 40
0.0
 40
0.0
 40
0.0
 40
0.0
 10
281.0642024596291
 20
135.2436620157841
 30
0.0
 41
1.0
 10
280.7508921263771
 20
135.9379704111707
 30
0.0
 41
1.0
 10
280.5732208006936
 20
136.6448536203988
 30
0.0
 41
1.0
 10
280.530928808506
 20
137.3645616282119
 30
0.0
 41
1.0
  0
SPLINE
  5
27F
330
70
100
AcDbEntity
  8
Visible
100
AcDbSpline
210
0.0
220
0.0
230
1.0
 70
    12
 71
     3
 72
     8
 73
     4
 74
     0
 42
0.000000001
 43
0.0000000001
 40
-1.0
 40
-1.0
 40
-1.0
 40
-1.0
 40
0.0
 40
0.0
 40
0.0
 40
0.0
 10
282.118428808506
 20
133.4910616282122
 30
0.0
 41
1.0
 10
281.737428808506
 20
133.9567715738903
 30
0.0
 41
1.0
 10
281.3858921263772
 20
134.5409704111698
 30
0.0
 41
1.0
 10
281.0642024596291
 20
135.2436620157841
 30
0.0
 41
1.0
  0
SPLINE
  5
280
330
70
100
AcDbEntity
  8
Visible
100
AcDbSpline
210
0.0
220
0.0
230
1.0
 70
    12
 71
     3
 72
     8
 73
     4
 74
     0
 42
0.000000001
 43
0.0000000001
 40
-1.0
 40
-1.0
 40
-1.0
 40
-1.0
 40
0.0
 40
0.0
 40
0.0
 40
0.0
 10
283.959928808506
 20
131.967061628211
 30
0.0
 41
1.0
 10
283.1132208006935
 20
132.5173536203983
 30
0.0
 41
1.0
 10
282.499428808506
 20
133.0253516825323
 30
0.0
 41
1.0
 10
282.118428808506
 20
133.4910616282122
 30
0.0
 41
1.0
  0
SPLINE
  5
281
330
70
100
AcDbEntity
  8
Visible
100
AcDbSpline
210
0.0
220
0.0
230
1.0
 70
    12
 71
     3
 72
     8
 73
     4
 74
     0
 42
0.000000001
 43
0.0000000001
 40
-1.0
 40
-1.0
 40
-1.0
 40
-1.0
 40
0.0
 40
0.0
 40
0.0
 40
0.0
 10
286.9444288085059
 20
130.570061628212
 30
0.0
 41
1.0
 10
285.801428808506
 20
130.9510616282114
 30
0.0
 41
1.0
 10
284.8065089171486
 20
131.4167696360236
 30
0.0
 41
1.0
 10
283.959928808506
 20
131.967061628211
 30
0.0
 41
1.0
  0
SPLINE
  5
282
330
70
100
AcDbEntity
  8
Visible
100
AcDbSpline
210
0.0
220
0.0
230
1.0
 70
    12
 71
     3
 72
     8
 73
     4
 74
     0
 42
0.000000001
 43
0.0000000001
 40
-1.0
 40
-1.0
 40
-1.0
 40
-1.0
 40
0.0
 40
0.0
 40
0.0
 40
0.0
 10
290.944928808506
 20
129.9985616282119
 30
0.0
 41
1.0
 10
289.4209288085059
 20
129.9985616282119
 30
0.0
 41
1.0
 10
288.0874288085059
 20
130.1890616282108
 30
0.0
 41
1.0
 10
286.9444288085059
 20
130.570061628212
 30
0.0
 41
1.0
  0
SPLINE
  5
283
330
70
100
AcDbEntity
  8
Visible
100
AcDbSpline
210
0.0
220
0.0
230
1.0
 70
    12
 71
     3
 72
     8
 73
     4
 74
     0
 42
0.000000001
 43
0.0000000001
 40
-1.0
 40
-1.0
 40
-1.0
 40
-1.0
 40
0.0
 40
0.0
 40
0.0
 40
0.0
 10
294.1199288085059
 20
130.4430616282115
 30
0.0
 41
1.0
 10
293.5272208006935
 20
130.1467715738908
 30
0.0
 41
1.0
 10
292.468928808506
 20
129.9985616282119
 30
0.0
 41
1.0
 10
290.944928808506
 20
129.9985616282119
 30
0.0
 41
1.0
  0
SPLINE
  5
284
330
70
100
AcDbEntity
  8
Visible
100
AcDbSpline
210
0.0
220
0.0
230
1.0
 70
    12
 71
     3
 72
     8
 73
     4
 74
     0
 42
0.000000001
 43
0.0000000001
 40
-1.0
 40
-1.0
 40
-1.0
 40
-1.0
 40
0.0
 40
0.0
 40
0.0
 40
0.0
 10
295.745527258213
 20
131.4844612406377
 30
0.0
 41
1.0
 10
295.2544215758399
 20
131.0864428995737
 30
0.0
 41
1.0
 10
294.7125089171485
 20
130.7393516825323
 30
0.0
 41
1.0
 10
294.1199288085059
 20
130.4430616282115
 30
0.0
 41
1.0
  0
SPLINE
  5
285
330
70
100
AcDbEntity
  8
Visible
100
AcDbSpline
210
0.0
220
0.0
230
1.0
 70
    12
 71
     3
 72
     8
 73
     4
 74
     0
 42
0.000000001
 43
0.0000000001
 40
-1.0
 40
-1.0
 40
-1.0
 40
-1.0
 40
0.0
 40
0.0
 40
0.0
 40
0.0
 10
297.358428808506
 20
133.427561628212
 30
0.0
 41
1.0
 10
296.765716924961
 20
132.538561628211
 30
0.0
 41
1.0
 10
296.22812570792
 20
131.8908608530655
 30
0.0
 41
1.0
 10
295.745527258213
 20
131.4844612406377
 30
0.0
 41
1.0
  0
SPLINE
  5
286
330
70
100
AcDbEntity
  8
Visible
100
AcDbSpline
210
0.0
220
0.0
230
1.0
 70
    12
 71
     3
 72
     8
 73
     4
 74
     0
 42
0.000000001
 43
0.0000000001
 40
-1.0
 40
-1.0
 40
-1.0
 40
-1.0
 40
0.0
 40
0.0
 40
0.0
 40
0.0
 10
298.8824288085059
 20
136.4120616282107
 30
0.0
 41
1.0
 10
298.4590127928809
 20
135.3113536203982
 30
0.0
 41
1.0
 10
297.9510089171485
 20
134.3165616282113
 30
0.0
 41
1.0
 10
297.358428808506
 20
133.427561628212
 30
0.0
 41
1.0
  0
SPLINE
  5
287
330
70
100
AcDbEntity
  8
Visible
100
AcDbSpline
210
0.0
220
0.0
230
1.0
 70
    12
 71
     3
 72
     8
 73
     4
 74
     0
 42
0.000000001
 43
0.0000000001
 40
-1.0
 40
-1.0
 40
-1.0
 40
-1.0
 40
0.0
 40
0.0
 40
0.0
 40
0.0
 10
299.834928808506
 20
142.8890616282115
 30
0.0
 41
1.0
 10
299.6232208006935
 20
139.6717696360229
 30
0.0
 41
1.0
 10
299.3057208006934
 20
137.5127696360232
 30
0.0
 41
1.0
 10
298.8824288085059
 20
136.4120616282107
 30
0.0
 41
1.0
  0
SPLINE
  5
288
330
70
100
AcDbEntity
  8
Visible
100
AcDbSpline
210
0.0
220
0.0
230
1.0
 70
    12
 71
     3
 72
     8
 73
     4
 74
     0
 42
0.000000001
 43
0.0000000001
 40
-1.0
 40
-1.0
 40
-1.0
 40
-1.0
 40
0.0
 40
0.0
 40
0.0
 40
0.0
 10
300.3682024596291
 20
148.8326620157841
 30
0.0
 41
1.0
 10
300.2243120177346
 20
148.087679387916
 30
0.0
 41
1.0
 10
300.0465089171486
 20
146.1063526514663
 30
0.0
 41
1.0
 10
299.834928808506
 20
142.8890616282115
 30
0.0
 41
1.0
  0
SPLINE
  5
289
330
70
100
AcDbEntity
  8
Visible
100
AcDbSpline
210
0.0
220
0.0
230
1.0
 70
    12
 71
     3
 72
     8
 73
     4
 74
     0
 42
0.000000001
 43
0.0000000001
 40
-1.0
 40
-1.0
 40
-1.0
 40
-1.0
 40
0.0
 40
0.0
 40
0.0
 40
0.0
 10
301.5875311339455
 20
148.0706620157852
 30
0.0
 41
1.0
 10
300.9270016844826
 20
149.3152624033573
 30
0.0
 41
1.0
 10
300.5206040099221
 20
149.5692624033581
 30
0.0
 41
1.0
 10
300.3682024596291
 20
148.8326620157841
 30
0.0
 41
1.0
  0
SPLINE
  5
28A
330
70
100
AcDbEntity
  8
Visible
100
AcDbSpline
210
0.0
220
0.0
230
1.0
 70
    12
 71
     3
 72
     8
 73
     4
 74
     0
 42
0.000000001
 43
0.0000000001
 40
-1.0
 40
-1.0
 40
-1.0
 40
-1.0
 40
0.0
 40
0.0
 40
0.0
 40
0.0
 10
302.7812024596291
 20
145.4925616282107
 30
0.0
 41
1.0
 10
302.6374399169045
 20
145.9582715738906
 30
0.0
 41
1.0
 10
302.23942157584
 20
146.8176803568494
 30
0.0
 41
1.0
 10
301.5875311339455
 20
148.0706620157852
 30
0.0
 41
1.0
  0
SPLINE
  5
28B
330
70
100
AcDbEntity
  8
Visible
100
AcDbSpline
210
0.0
220
0.0
230
1.0
 70
    12
 71
     3
 72
     8
 73
     4
 74
     0
 42
0.000000001
 43
0.0000000001
 40
-1.0
 40
-1.0
 40
-1.0
 40
-1.0
 40
0.0
 40
0.0
 40
0.0
 40
0.0
 10
304.216428808506
 20
145.0226620157846
 30
0.0
 41
1.0
 10
303.412012792881
 20
144.8702614344238
 30
0.0
 41
1.0
 10
302.933604009922
 20
145.0268526514646
 30
0.0
 41
1.0
 10
302.7812024596291
 20
145.4925616282107
 30
0.0
 41
1.0
  0
SPLINE
  5
28C
330
70
100
AcDbEntity
  8
Visible
100
AcDbSpline
210
0.0
220
0.0
230
1.0
 70
    12
 71
     3
 72
     8
 73
     4
 74
     0
 42
0.000000001
 43
0.0000000001
 40
-1.0
 40
-1.0
 40
-1.0
 40
-1.0
 40
0.0
 40
0.0
 40
0.0
 40
0.0
 10
307.200928808506
 20
145.1750616282115
 30
0.0
 41
1.0
 10
306.015512792881
 20
145.2174795817027
 30
0.0
 41
1.0
 10
305.0207208006936
 20
145.1666803568496
 30
0.0
 41
1.0
 10
304.216428808506
 20
145.0226620157846
 30
0.0
 41
1.0
  0
SPLINE
  5
28D
330
70
100
AcDbEntity
  8
Visible
100
AcDbSpline
210
0.0
220
0.0
230
1.0
 70
    12
 71
     3
 72
     8
 73
     4
 74
     0
 42
0.000000001
 43
0.0000000001
 40
-1.0
 40
-1.0
 40
-1.0
 40
-1.0
 40
0.0
 40
0.0
 40
0.0
 40
0.0
 10
309.740928808506
 20
144.9464612406373
 30
0.0
 41
1.0
 10
309.232928808506
 20
145.0564438685069
 30
0.0
 41
1.0
 10
308.3862208006935
 20
145.132770604956
 30
0.0
 41
1.0
 10
307.200928808506
 20
145.1750616282115
 30
0.0
 41
1.0
  0
SPLINE
  5
28E
330
70
100
AcDbEntity
  8
Visible
100
AcDbSpline
210
0.0
220
0.0
230
1.0
 70
    12
 71
     3
 72
     8
 73
     4
 74
     0
 42
0.000000001
 43
0.0000000001
 40
-1.0
 40
-1.0
 40
-1.0
 40
-1.0
 40
0.0
 40
0.0
 40
0.0
 40
0.0
 10
311.1125272582131
 20
146.3180616282116
 30
0.0
 41
1.0
 10
310.70612570792
 20
145.3020616282119
 30
0.0
 41
1.0
 10
310.248928808506
 20
144.8448608530652
 30
0.0
 41
1.0
 10
309.740928808506
 20
144.9464612406373
 30
0.0
 41
1.0
  0
SPLINE
  5
28F
330
70
100
AcDbEntity
  8
Visible
100
AcDbSpline
210
0.0
220
0.0
230
1.0
 70
    12
 71
     3
 72
     8
 73
     4
 74
     0
 42
0.000000001
 43
0.0000000001
 40
-1.0
 40
-1.0
 40
-1.0
 40
-1.0
 40
0.0
 40
0.0
 40
0.0
 40
0.0
 10
312.344428808506
 20
148.9215616282108
 30
0.0
 41
1.0
 10
311.921012792881
 20
148.2018526514657
 30
0.0
 41
1.0
 10
311.5104177001076
 20
147.3340616282112
 30
0.0
 41
1.0
 10
311.1125272582131
 20
146.3180616282116
 30
0.0
 41
1.0
  0
SPLINE
  5
290
330
70
100
AcDbEntity
  8
Visible
100
AcDbSpline
210
0.0
220
0.0
230
1.0
 70
    12
 71
     3
 72
     8
 73
     4
 74
     0
 42
0.000000001
 43
0.0000000001
 40
-1.0
 40
-1.0
 40
-1.0
 40
-1.0
 40
0.0
 40
0.0
 40
0.0
 40
0.0
 10
313.360428808506
 20
146.4450616282102
 30
0.0
 41
1.0
 10
313.106428808506
 20
148.8157706049569
 30
0.0
 41
1.0
 10
312.7677208006935
 20
149.6412706049559
 30
0.0
 41
1.0
 10
312.344428808506
 20
148.9215616282108
 30
0.0
 41
1.0
  0
SPLINE
  5
291
330
70
100
AcDbEntity
  8
Visible
100
AcDbSpline
210
0.0
220
0.0
230
1.0
 70
    12
 71
     3
 72
     8
 73
     4
 74
     0
 42
0.000000001
 43
0.0000000001
 40
-1.0
 40
-1.0
 40
-1.0
 40
-1.0
 40
0.0
 40
0.0
 40
0.0
 40
0.0
 10
313.8684288085059
 20
140.476061628211
 30
0.0
 41
1.0
 10
313.7837208006934
 20
142.0847696360233
 30
0.0
 41
1.0
 10
313.614428808506
 20
144.0743526514652
 30
0.0
 41
1.0
 10
313.360428808506
 20
146.4450616282102
 30
0.0
 41
1.0
  0
SPLINE
  5
292
330
70
100
AcDbEntity
  8
Visible
100
AcDbSpline
210
0.0
220
0.0
230
1.0
 70
    12
 71
     3
 72
     8
 73
     4
 74
     0
 42
0.000000001
 43
0.0000000001
 40
-1.0
 40
-1.0
 40
-1.0
 40
-1.0
 40
0.0
 40
0.0
 40
0.0
 40
0.0
 10
314.6304288085059
 20
136.4120616282107
 30
0.0
 41
1.0
 10
314.2070127928809
 20
137.5127696360232
 30
0.0
 41
1.0
 10
313.9530127928809
 20
138.8673536203987
 30
0.0
 41
1.0
 10
313.8684288085059
 20
140.476061628211
 30
0.0
 41
1.0
  0
SPLINE
  5
293
330
70
100
AcDbEntity
  8
Visible
100
AcDbSpline
210
0.0
220
0.0
230
1.0
 70
    12
 71
     3
 72
     8
 73
     4
 74
     0
 42
0.000000001
 43
0.0000000001
 40
-1.0
 40
-1.0
 40
-1.0
 40
-1.0
 40
0.0
 40
0.0
 40
0.0
 40
0.0
 10
316.0655272582129
 20
133.5926620157843
 30
0.0
 41
1.0
 10
315.5321257079199
 20
134.3716803568495
 30
0.0
 41
1.0
 10
315.0537208006934
 20
135.3113536203982
 30
0.0
 41
1.0
 10
314.6304288085059
 20
136.4120616282107
 30
0.0
 41
1.0
  0
SPLINE
  5
294
330
70
100
AcDbEntity
  8
Visible
100
AcDbSpline
210
0.0
220
0.0
230
1.0
 70
    12
 71
     3
 72
     8
 73
     4
 74
     0
 42
0.000000001
 43
0.0000000001
 40
-1.0
 40
-1.0
 40
-1.0
 40
-1.0
 40
0.0
 40
0.0
 40
0.0
 40
0.0
 10
317.5514288085059
 20
131.713061628212
 30
0.0
 41
1.0
 10
317.0857208006934
 20
132.1787715738901
 30
0.0
 41
1.0
 10
316.5904177001074
 20
132.8052624033571
 30
0.0
 41
1.0
 10
316.0655272582129
 20
133.5926620157843
 30
0.0
 41
1.0
  0
SPLINE
  5
295
330
70
100
AcDbEntity
  8
Visible
100
AcDbSpline
210
0.0
220
0.0
230
1.0
 70
    12
 71
     3
 72
     8
 73
     4
 74
     0
 42
0.000000001
 43
0.0000000001
 40
-1.0
 40
-1.0
 40
-1.0
 40
-1.0
 40
0.0
 40
0.0
 40
0.0
 40
0.0
 10
319.2659288085058
 20
130.5065616282118
 30
0.0
 41
1.0
 10
318.5885127928808
 20
130.8452696360236
 30
0.0
 41
1.0
 10
318.0170127928808
 20
131.2473516825321
 30
0.0
 41
1.0
 10
317.5514288085059
 20
131.713061628212
 30
0.0
 41
1.0
  0
SPLINE
  5
296
330
70
100
AcDbEntity
  8
Visible
100
AcDbSpline
210
0.0
220
0.0
230
1.0
 70
    12
 71
     3
 72
     8
 73
     4
 74
     0
 42
0.000000001
 43
0.0000000001
 40
-1.0
 40
-1.0
 40
-1.0
 40
-1.0
 40
0.0
 40
0.0
 40
0.0
 40
0.0
 10
322.5679288085058
 20
129.9985616282119
 30
0.0
 41
1.0
 10
321.0439288085058
 20
129.9985616282119
 30
0.0
 41
1.0
 10
319.9432208006933
 20
130.1678516825322
 30
0.0
 41
1.0
 10
319.2659288085058
 20
130.5065616282118
 30
0.0
 41
1.0
  0
SPLINE
  5
297
330
70
100
AcDbEntity
  8
Visible
100
AcDbSpline
210
0.0
220
0.0
230
1.0
 70
    12
 71
     3
 72
     8
 73
     4
 74
     0
 42
0.000000001
 43
0.0000000001
 40
-1.0
 40
-1.0
 40
-1.0
 40
-1.0
 40
0.0
 40
0.0
 40
0.0
 40
0.0
 10
326.5684288085058
 20
130.5700616282101
 30
0.0
 41
1.0
 10
325.4254288085058
 20
130.1890616282108
 30
0.0
 41
1.0
 10
324.0919288085058
 20
129.9985616282119
 30
0.0
 41
1.0
 10
322.5679288085058
 20
129.9985616282119
 30
0.0
 41
1.0
  0
SPLINE
  5
298
330
70
100
AcDbEntity
  8
Visible
100
AcDbSpline
210
0.0
220
0.0
230
1.0
 70
    12
 71
     3
 72
     8
 73
     4
 74
     0
 42
0.000000001
 43
0.0000000001
 40
-1.0
 40
-1.0
 40
-1.0
 40
-1.0
 40
0.0
 40
0.0
 40
0.0
 40
0.0
 10
329.3624288085058
 20
131.8400616282106
 30
0.0
 41
1.0
 10
328.6427208006933
 20
131.3743536203983
 30
0.0
 41
1.0
 10
327.7114288085058
 20
130.9510616282114
 30
0.0
 41
1.0
 10
326.5684288085058
 20
130.5700616282101
 30
0.0
 41
1.0
  0
SPLINE
  5
299
330
70
100
AcDbEntity
  8
Visible
100
AcDbSpline
210
0.0
220
0.0
230
1.0
 70
    12
 71
     3
 72
     8
 73
     4
 74
     0
 42
0.000000001
 43
0.0000000001
 40
-1.0
 40
-1.0
 40
-1.0
 40
-1.0
 40
0.0
 40
0.0
 40
0.0
 40
0.0
 10
331.2291985838964
 20
133.3894612406384
 30
0.0
 41
1.0
 10
330.7043081420019
 20
132.8221528452522
 30
0.0
 41
1.0
 10
330.0820127928808
 20
132.3057715738905
 30
0.0
 41
1.0
 10
329.3624288085058
 20
131.8400616282106
 30
0.0
 41
1.0
  0
SPLINE
  5
29A
330
70
100
AcDbEntity
  8
Visible
100
AcDbSpline
210
0.0
220
0.0
230
1.0
 70
    12
 71
     3
 72
     8
 73
     4
 74
     0
 42
0.000000001
 43
0.0000000001
 40
-1.0
 40
-1.0
 40
-1.0
 40
-1.0
 40
0.0
 40
0.0
 40
0.0
 40
0.0
 10
332.4739288085059
 20
135.3325616282109
 30
0.0
 41
1.0
 10
332.177505041416
 20
134.612851682532
 30
0.0
 41
1.0
 10
331.7626001341894
 20
133.9651528452523
 30
0.0
 41
1.0
 10
331.2291985838964
 20
133.3894612406384
 30
0.0
 41
1.0
  0
SPLINE
  5
29B
330
70
100
AcDbEntity
  8
Visible
100
AcDbSpline
210
0.0
220
0.0
230
1.0
 70
    12
 71
     3
 72
     8
 73
     4
 74
     0
 42
0.000000001
 43
0.0000000001
 40
-1.0
 40
-1.0
 40
-1.0
 40
-1.0
 40
0.0
 40
0.0
 40
0.0
 40
0.0
 10
332.9184288085059
 20
137.7455616282113
 30
0.0
 41
1.0
 10
332.9184288085059
 20
136.8565616282103
 30
0.0
 41
1.0
 10
332.7702208006933
 20
136.052269636024
 30
0.0
 41
1.0
 10
332.4739288085059
 20
135.3325616282109
 30
0.0
 41
1.0
  0
SPLINE
  5
29C
330
70
100
AcDbEntity
  8
Visible
100
AcDbSpline
210
0.0
220
0.0
230
1.0
 70
    12
 71
     3
 72
     8
 73
     4
 74
     0
 42
0.000000001
 43
0.0000000001
 40
-1.0
 40
-1.0
 40
-1.0
 40
-1.0
 40
0.0
 40
0.0
 40
0.0
 40
0.0
 10
332.4739288085059
 20
140.3490616282106
 30
0.0
 41
1.0
 10
332.7702208006933
 20
139.5023536203989
 30
0.0
 41
1.0
 10
332.9184288085059
 20
138.6345616282105
 30
0.0
 41
1.0
 10
332.9184288085059
 20
137.7455616282113
 30
0.0
 41
1.0
  0
SPLINE
  5
29D
330
70
100
AcDbEntity
  8
Visible
100
AcDbSpline
210
0.0
220
0.0
230
1.0
 70
    12
 71
     3
 72
     8
 73
     4
 74
     0
 42
0.000000001
 43
0.0000000001
 40
-1.0
 40
-1.0
 40
-1.0
 40
-1.0
 40
0.0
 40
0.0
 40
0.0
 40
0.0
 10
331.1404288085059
 20
143.01606162821
 30
0.0
 41
1.0
 10
331.7330127928808
 20
142.0847696360233
 30
0.0
 41
1.0
 10
332.1775127928809
 20
141.1957696360241
 30
0.0
 41
1.0
 10
332.4739288085059
 20
140.3490616282106
 30
0.0
 41
1.0
  0
SPLINE
  5
29E
330
70
100
AcDbEntity
  8
Visible
100
AcDbSpline
210
0.0
220
0.0
230
1.0
 70
    12
 71
     3
 72
     8
 73
     4
 74
     0
 42
0.000000001
 43
0.0000000001
 40
-1.0
 40
-1.0
 40
-1.0
 40
-1.0
 40
0.0
 40
0.0
 40
0.0
 40
0.0
 10
329.4259288085059
 20
145.3655616282103
 30
0.0
 41
1.0
 10
329.9762208006934
 20
144.7305616282101
 30
0.0
 41
1.0
 10
330.5477208006934
 20
143.9473526514648
 30
0.0
 41
1.0
 10
331.1404288085059
 20
143.01606162821
 30
0.0
 41
1.0
  0
ENDSEC
  0
SECTION
  2
OBJECTS
  0
DICTIONARY
  5
C
330
0
100
AcDbDictionary
281
     1
  3
ACAD_COLOR
350
63
  3
ACAD_DETAILVIEWSTYLE
350
6A
  3
ACAD_GROUP
350
D
  3
ACAD_LAYOUT
350
62
  3
ACAD_MATERIAL
350
10
  3
ACAD_MLEADERSTYLE
350
66
  3
ACAD_MLINESTYLE
350
5F
  3
ACAD_PLOTSETTINGS
350
61
  3
ACAD_PLOTSTYLENAME
350
E
  3
ACAD_SCALELIST
350
42
  3
ACAD_SECTIONVIEWSTYLE
350
68
  3
ACAD_TABLESTYLE
350
64
  3
ACAD_VISUALSTYLE
350
29
  3
ACDB_RECOMPOSE_DATA
350
2A9
  3
AcDbVariableDictionary
350
2A0
  0
DICTIONARY
  5
AF
330
70
100
AcDbDictionary
280
     1
281
     1
  3
ACAD_SORTENTS
360
B0
  0
DICTIONARY
  5
63
102
{ACAD_REACTORS
330
C
102
}
330
C
100
AcDbDictionary
281
     1
  0
DICTIONARY
  5
6A
102
{ACAD_REACTORS
330
C
102
}
330
C
100
AcDbDictionary
281
     1
  3
Imperial24
350
6B
  0
DICTIONARY
  5
D
102
{ACAD_REACTORS
330
C
102
}
330
C
100
AcDbDictionary
281
     1
  0
DICTIONARY
  5
62
102
{ACAD_REACTORS
330
C
102
}
330
C
100
AcDbDictionary
281
     1
  3
Model
350
73
  3
Sheet1
350
6F
  3
Sheet2
350
77
  0
DICTIONARY
  5
10
102
{ACAD_REACTORS
330
C
102
}
330
C
100
AcDbDictionary
281
     1
  3
ByBlock
350
19
  3
ByLayer
350
11
  3
Global
350
21
  0
DICTIONARY
  5
66
102
{ACAD_REACTORS
330
C
102
}
330
C
100
AcDbDictionary
281
     1
  3
Standard
350
67
  0
DICTIONARY
  5
5F
102
{ACAD_REACTORS
330
C
102
}
330
C
100
AcDbDictionary
281
     1
  3
Standard
350
60
  0
DICTIONARY
  5
61
102
{ACAD_REACTORS
330
C
102
}
330
C
100
AcDbDictionary
281
     1
  0
ACDBDICTIONARYWDFLT
  5
E
102
{ACAD_REACTORS
330
C
102
}
330
C
100
AcDbDictionary
281
     1
  3
Normal
350
F
100
AcDbDictionaryWithDefault
340
F
  0
DICTIONARY
  5
42
102
{ACAD_REACTORS
330
C
102
}
330
C
100
AcDbDictionary
281
     1
  3
*A1
350
9E
  3
*A10
350
A7
  3
*A11
350
A8
  3
*A12
350
A9
  3
*A13
350
AA
  3
*A14
350
AB
  3
*A15
350
AC
  3
*A16
350
AD
  3
*A17
350
AE
  3
*A2
350
9F
  3
*A3
350
A0
  3
*A4
350
A1
  3
*A5
350
A2
  3
*A6
350
A3
  3
*A7
350
A4
  3
*A8
350
A5
  3
*A9
350
A6
  3
A0
350
43
  3
A1
350
44
  3
A2
350
45
  3
A3
350
46
  3
A4
350
47
  3
A5
350
48
  3
A6
350
49
  3
A7
350
4A
  3
A8
350
4B
  3
A9
350
4C
  3
B0
350
4D
  3
B1
350
4E
  3
B2
350
4F
  3
B3
350
50
  3
B4
350
51
  3
B5
350
52
  3
B6
350
53
  0
DICTIONARY
  5
68
102
{ACAD_REACTORS
330
C
102
}
330
C
100
AcDbDictionary
281
     1
  3
Imperial24
350
69
  0
DICTIONARY
  5
64
102
{ACAD_REACTORS
330
C
102
}
330
C
100
AcDbDictionary
281
     1
  3
Standard
350
65
  0
DICTIONARY
  5
29
102
{ACAD_REACTORS
330
C
102
}
330
C
100
AcDbDictionary
281
     1
  3
2dWireframe
350
2F
  3
Basic
350
2E
  3
Brighten
350
35
  3
ColorChange
350
39
  3
Conceptual
350
32
  3
Dim
350
34
  3
EdgeColorOff
350
41
  3
Facepattern
350
38
  3
Flat
350
2A
  3
FlatWithEdges
350
2B
  3
Gouraud
350
2C
  3
GouraudWithEdges
350
2D
  3
Hidden
350
31
  3
JitterOff
350
3F
  3
Linepattern
350
37
  3
OverhangOff
350
40
  3
Realistic
350
33
  3
Shaded
350
3E
  3
Shaded with edges
350
3D
  3
Shades of Gray
350
3A
  3
Sketchy
350
3B
  3
Thicken
350
36
  3
Wireframe
350
30
  3
X-Ray
350
3C
  0
XRECORD
  5
2A9
102
{ACAD_REACTORS
330
C
102
}
330
C
100
AcDbXrecord
280
     1
 90
        1
330
65
  0
DICTIONARY
  5
2A0
102
{ACAD_REACTORS
330
C
102
}
330
C
100
AcDbDictionary
281
     1
  3
ANNOALLVISIBLE
350
2A5
  3
CANNOSCALE
350
2A6
  3
CMLEADERSTYLE
350
2A2
  3
CTABLESTYLE
350
2A1
  3
CVIEWDETAILSTYLE
350
2A3
  3
CVIEWSECTIONSTYLE
350
2A4
  0
SORTENTSTABLE
  5
B0
102
{ACAD_REACTORS
330
AF
102
}
330
AF
100
AcDbSortentsTable
330
70
  0
ACDBDETAILVIEWSTYLE
  5
6B
102
{ACAD_XDICTIONARY
360
2AC
102
}
102
{ACAD_REACTORS
330
6A
102
}
330
6A
100
AcDbModelDocViewStyle
 70
     0
  3
Imperial24
290
     0
100
AcDbDetailViewStyle
 70
     0
 71
     0
 90
        3
 71
     1
340
55
 62
   256
 40
0.24
340
0
 62
   256
 40
0.24
300

 40
0.36
280
     3
 71
     2
340
5D
 90
       25
 62
   256
 71
     3
340
55
 62
   256
 40
0.24
 90
        1
 40
0.75
 90
        1
300
%<\AcVar ViewType \f "%tc1">% %<\AcVar ViewDetailId>%\PSCALE %<\AcVar ViewScale \f "%sn">%
 71
     4
340
5D
 90
       25
 62
   256
340
5D
 90
       25
 62
   256
280
     0
  0
LAYOUT
  5
73
102
{ACAD_REACTORS
330
62
102
}
330
62
100
AcDbPlotSettings
  1

  2
AutoCAD PDF (High Quality Print).pc3
  4
ISO_full_bleed_A3_(420.00_x_297.00_MM)
  6

 40
0.0
 41
0.0
 42
0.0
 43
0.0
 44
420.0
 45
297.0
 46
0.0
 47
0.0
 48
0.0
 49
0.0
140
0.0
141
0.0
142
1.0
143
1.846883
 70
 11952
 72
     1
 73
     0
 74
     0
  7

 75
     0
147
0.541453
 76
     0
 77
     2
 78
   300
148
212.787387
149
-13.552212
100
AcDbLayout
  1
Model
 70
     1
 71
     0
 10
0.0
 20
0.0
 11
12.0
 21
9.0
 12
0.0
 22
0.0
 32
0.0
 14
0.0
 24
0.0
 34
0.0
 15
0.0
 25
0.0
 35
0.0
146
0.0
 13
0.0
 23
0.0
 33
0.0
 16
1.0
 26
0.0
 36
0.0
 17
0.0
 27
1.0
 37
0.0
 76
     0
330
70
1001
ACAD_PSEXT
1000
AutoCAD PDF (High Quality Print).pc3
1000
DWG To PDF
1000
File
1000

1070
     0
  0
LAYOUT
  5
6F
102
{ACAD_REACTORS
330
62
102
}
330
62
100
AcDbPlotSettings
  1

  2
None
  4

  6

 40
0.0
 41
0.0
 42
0.0
 43
0.0
 44
0.0
 45
0.0
 46
0.0
 47
0.0
 48
0.0
 49
0.0
140
0.0
141
0.0
142
1.0
143
1.0
 70
   688
 72
     0
 73
     0
 74
     5
  7

 75
    16
147
1.0
 76
     0
 77
     2
 78
   300
148
0.0
149
0.0
100
AcDbLayout
  1
Sheet1
 70
     1
 71
     1
 10
0.0
 20
0.0
 11
12.0
 21
9.0
 12
0.0
 22
0.0
 32
0.0
 14
0.0
 24
0.0
 34
0.0
 15
0.0
 25
0.0
 35
0.0
146
0.0
 13
0.0
 23
0.0
 33
0.0
 16
1.0
 26
0.0
 36
0.0
 17
0.0
 27
1.0
 37
0.0
 76
     0
330
6C
  0
LAYOUT
  5
77
102
{ACAD_REACTORS
330
62
102
}
330
62
100
AcDbPlotSettings
  1

  2
None
  4

  6

 40
0.0
 41
0.0
 42
0.0
 43
0.0
 44
0.0
 45
0.0
 46
0.0
 47
0.0
 48
0.0
 49
0.0
140
0.0
141
0.0
142
1.0
143
1.0
 70
   688
 72
     0
 73
     0
 74
     5
  7

 75
    16
147
1.0
 76
     0
 77
     2
 78
   300
148
0.0
149
0.0
100
AcDbLayout
  1
Sheet2
 70
     1
 71
     2
 10
0.0
 20
0.0
 11
12.0
 21
9.0
 12
0.0
 22
0.0
 32
0.0
 14
0.0
 24
0.0
 34
0.0
 15
0.0
 25
0.0
 35
0.0
146
0.0
 13
0.0
 23
0.0
 33
0.0
 16
1.0
 26
0.0
 36
0.0
 17
0.0
 27
1.0
 37
0.0
 76
     0
330
74
  0
MATERIAL
  5
19
102
{ACAD_XDICTIONARY
360
1A
102
}
102
{ACAD_REACTORS
330
10
102
}
330
10
100
AcDbMaterial
  1
ByBlock
 72
     0
 43
0.020833
 43
0.0
 43
0.0
 43
0.0
 43
0.0
 43
0.020833
 43
0.0
 43
0.0
 43
0.0
 43
0.0
 43
1.0
 43
0.0
 43
0.0
 43
0.0
 43
0.0
 43
1.0
 77
     0
 47
0.020833
 47
0.0
 47
0.0
 47
0.0
 47
0.0
 47
0.020833
 47
0.0
 47
0.0
 47
0.0
 47
0.0
 47
1.0
 47
0.0
 47
0.0
 47
0.0
 47
0.0
 47
1.0
171
     0
 49
0.020833
 49
0.0
 49
0.0
 49
0.0
 49
0.0
 49
0.020833
 49
0.0
 49
0.0
 49
0.0
 49
0.0
 49
1.0
 49
0.0
 49
0.0
 49
0.0
 49
0.0
 49
1.0
175
     0
142
0.020833
142
0.0
142
0.0
142
0.0
142
0.0
142
0.020833
142
0.0
142
0.0
142
0.0
142
0.0
142
1.0
142
0.0
142
0.0
142
0.0
142
0.0
142
1.0
179
     0
144
0.020833
144
0.0
144
0.0
144
0.0
144
0.0
144
0.020833
144
0.0
144
0.0
144
0.0
144
0.0
144
1.0
144
0.0
144
0.0
144
0.0
144
0.0
144
1.0
147
0.020833
147
0.0
147
0.0
147
0.0
147
0.0
147
0.020833
147
0.0
147
0.0
147
0.0
147
0.0
147
1.0
147
0.0
147
0.0
147
0.0
147
0.0
147
1.0
  0
MATERIAL
  5
11
102
{ACAD_XDICTIONARY
360
12
102
}
102
{ACAD_REACTORS
330
10
102
}
330
10
100
AcDbMaterial
  1
ByLayer
 72
     0
 43
0.020833
 43
0.0
 43
0.0
 43
0.0
 43
0.0
 43
0.020833
 43
0.0
 43
0.0
 43
0.0
 43
0.0
 43
1.0
 43
0.0
 43
0.0
 43
0.0
 43
0.0
 43
1.0
 77
     0
 47
0.020833
 47
0.0
 47
0.0
 47
0.0
 47
0.0
 47
0.020833
 47
0.0
 47
0.0
 47
0.0
 47
0.0
 47
1.0
 47
0.0
 47
0.0
 47
0.0
 47
0.0
 47
1.0
171
     0
 49
0.020833
 49
0.0
 49
0.0
 49
0.0
 49
0.0
 49
0.020833
 49
0.0
 49
0.0
 49
0.0
 49
0.0
 49
1.0
 49
0.0
 49
0.0
 49
0.0
 49
0.0
 49
1.0
175
     0
142
0.020833
142
0.0
142
0.0
142
0.0
142
0.0
142
0.020833
142
0.0
142
0.0
142
0.0
142
0.0
142
1.0
142
0.0
142
0.0
142
0.0
142
0.0
142
1.0
179
     0
144
0.020833
144
0.0
144
0.0
144
0.0
144
0.0
144
0.020833
144
0.0
144
0.0
144
0.0
144
0.0
144
1.0
144
0.0
144
0.0
144
0.0
144
0.0
144
1.0
147
0.020833
147
0.0
147
0.0
147
0.0
147
0.0
147
0.020833
147
0.0
147
0.0
147
0.0
147
0.0
147
1.0
147
0.0
147
0.0
147
0.0
147
0.0
147
1.0
  0
MATERIAL
  5
21
102
{ACAD_XDICTIONARY
360
22
102
}
102
{ACAD_REACTORS
330
10
102
}
330
10
100
AcDbMaterial
  1
Global
 72
     0
 43
0.020833
 43
0.0
 43
0.0
 43
0.0
 43
0.0
 43
0.020833
 43
0.0
 43
0.0
 43
0.0
 43
0.0
 43
1.0
 43
0.0
 43
0.0
 43
0.0
 43
0.0
 43
1.0
 77
     0
 47
0.020833
 47
0.0
 47
0.0
 47
0.0
 47
0.0
 47
0.020833
 47
0.0
 47
0.0
 47
0.0
 47
0.0
 47
1.0
 47
0.0
 47
0.0
 47
0.0
 47
0.0
 47
1.0
171
     0
 49
0.020833
 49
0.0
 49
0.0
 49
0.0
 49
0.0
 49
0.020833
 49
0.0
 49
0.0
 49
0.0
 49
0.0
 49
1.0
 49
0.0
 49
0.0
 49
0.0
 49
0.0
 49
1.0
175
     0
142
0.020833
142
0.0
142
0.0
142
0.0
142
0.0
142
0.020833
142
0.0
142
0.0
142
0.0
142
0.0
142
1.0
142
0.0
142
0.0
142
0.0
142
0.0
142
1.0
179
     0
144
0.020833
144
0.0
144
0.0
144
0.0
144
0.0
144
0.020833
144
0.0
144
0.0
144
0.0
144
0.0
144
1.0
144
0.0
144
0.0
144
0.0
144
0.0
144
1.0
147
0.020833
147
0.0
147
0.0
147
0.0
147
0.0
147
0.020833
147
0.0
147
0.0
147
0.0
147
0.0
147
1.0
147
0.0
147
0.0
147
0.0
147
0.0
147
1.0
  0
MLEADERSTYLE
  5
67
102
{ACAD_REACTORS
330
66
102
}
330
66
100
AcDbMLeaderStyle
179
     2
170
     2
171
     1
172
     0
 90
        2
 40
0.0
 41
0.0
173
     1
 91
-1056964608
340
5B
 92
       -2
290
     1
 42
0.09
291
     1
 43
0.36
  3
Standard
 44
0.18
300

342
55
174
     1
178
     6
175
     1
176
     0
 93
-1056964608
 45
0.18
292
     0
297
     0
 46
0.18
 94
-1056964608
 47
1.0
 49
1.0
140
1.0
293
     1
141
0.0
294
     1
177
     0
142
1.0
295
     0
296
     0
143
0.125
271
     0
272
     9
273
     9
298
     1
  0
MLINESTYLE
  5
60
102
{ACAD_REACTORS
330
5F
102
}
330
5F
100
AcDbMlineStyle
  2
STANDARD
 70
     0
  3

 62
   256
 51
90.0
 52
90.0
 71
     0
  0
ACDBPLACEHOLDER
  5
F
102
{ACAD_REACTORS
330
E
102
}
330
E
  0
SCALE
  5
9E
102
{ACAD_REACTORS
330
42
102
}
330
42
100
AcDbScale
 70
     0
300
1:2
140
1.0
141
2.0
290
     0
  0
SCALE
  5
A7
102
{ACAD_REACTORS
330
42
102
}
330
42
100
AcDbScale
 70
     0
300
1:50
140
1.0
141
50.0
290
     0
  0
SCALE
  5
A8
102
{ACAD_REACTORS
330
42
102
}
330
42
100
AcDbScale
 70
     0
300
1:100
140
1.0
141
100.0
290
     0
  0
SCALE
  5
A9
102
{ACAD_REACTORS
330
42
102
}
330
42
100
AcDbScale
 70
     0
300
2:1
140
2.0
141
1.0
290
     0
  0
SCALE
  5
AA
102
{ACAD_REACTORS
330
42
102
}
330
42
100
AcDbScale
 70
     0
300
4:1
140
4.0
141
1.0
290
     0
  0
SCALE
  5
AB
102
{ACAD_REACTORS
330
42
102
}
330
42
100
AcDbScale
 70
     0
300
8:1
140
8.0
141
1.0
290
     0
  0
SCALE
  5
AC
102
{ACAD_REACTORS
330
42
102
}
330
42
100
AcDbScale
 70
     0
300
10:1
140
10.0
141
1.0
290
     0
  0
SCALE
  5
AD
102
{ACAD_REACTORS
330
42
102
}
330
42
100
AcDbScale
 70
     0
300
100:1
140
100.0
141
1.0
290
     0
  0
SCALE
  5
AE
102
{ACAD_REACTORS
330
42
102
}
330
42
100
AcDbScale
 70
     0
300
1
140
1.0
141
1.0
290
     0
  0
SCALE
  5
9F
102
{ACAD_REACTORS
330
42
102
}
330
42
100
AcDbScale
 70
     0
300
1:4
140
1.0
141
4.0
290
     0
  0
SCALE
  5
A0
102
{ACAD_REACTORS
330
42
102
}
330
42
100
AcDbScale
 70
     0
300
1:5
140
1.0
141
5.0
290
     0
  0
SCALE
  5
A1
102
{ACAD_REACTORS
330
42
102
}
330
42
100
AcDbScale
 70
     0
300
1:8
140
1.0
141
8.0
290
     0
  0
SCALE
  5
A2
102
{ACAD_REACTORS
330
42
102
}
330
42
100
AcDbScale
 70
     0
300
1:10
140
1.0
141
10.0
290
     0
  0
SCALE
  5
A3
102
{ACAD_REACTORS
330
42
102
}
330
42
100
AcDbScale
 70
     0
300
1:16
140
1.0
141
16.0
290
     0
  0
SCALE
  5
A4
102
{ACAD_REACTORS
330
42
102
}
330
42
100
AcDbScale
 70
     0
300
1:20
140
1.0
141
20.0
290
     0
  0
SCALE
  5
A5
102
{ACAD_REACTORS
330
42
102
}
330
42
100
AcDbScale
 70
     0
300
1:30
140
1.0
141
30.0
290
     0
  0
SCALE
  5
A6
102
{ACAD_REACTORS
330
42
102
}
330
42
100
AcDbScale
 70
     0
300
1:40
140
1.0
141
40.0
290
     0
  0
SCALE
  5
43
102
{ACAD_REACTORS
330
42
102
}
330
42
100
AcDbScale
 70
     0
300
1:1
140
1.0
141
1.0
290
     1
  0
SCALE
  5
44
102
{ACAD_REACTORS
330
42
102
}
330
42
100
AcDbScale
 70
     0
300
1/128" = 1'-0"
140
0.007813
141
12.0
290
     0
  0
SCALE
  5
45
102
{ACAD_REACTORS
330
42
102
}
330
42
100
AcDbScale
 70
     0
300
1/64" = 1'-0"
140
0.015625
141
12.0
290
     0
  0
SCALE
  5
46
102
{ACAD_REACTORS
330
42
102
}
330
42
100
AcDbScale
 70
     0
300
1/32" = 1'-0"
140
0.03125
141
12.0
290
     0
  0
SCALE
  5
47
102
{ACAD_REACTORS
330
42
102
}
330
42
100
AcDbScale
 70
     0
300
1/16" = 1'-0"
140
0.0625
141
12.0
290
     0
  0
SCALE
  5
48
102
{ACAD_REACTORS
330
42
102
}
330
42
100
AcDbScale
 70
     0
300
3/32" = 1'-0"
140
0.09375
141
12.0
290
     0
  0
SCALE
  5
49
102
{ACAD_REACTORS
330
42
102
}
330
42
100
AcDbScale
 70
     0
300
1/8" = 1'-0"
140
0.125
141
12.0
290
     0
  0
SCALE
  5
4A
102
{ACAD_REACTORS
330
42
102
}
330
42
100
AcDbScale
 70
     0
300
3/16" = 1'-0"
140
0.1875
141
12.0
290
     0
  0
SCALE
  5
4B
102
{ACAD_REACTORS
330
42
102
}
330
42
100
AcDbScale
 70
     0
300
1/4" = 1'-0"
140
0.25
141
12.0
290
     0
  0
SCALE
  5
4C
102
{ACAD_REACTORS
330
42
102
}
330
42
100
AcDbScale
 70
     0
300
3/8" = 1'-0"
140
0.375
141
12.0
290
     0
  0
SCALE
  5
4D
102
{ACAD_REACTORS
330
42
102
}
330
42
100
AcDbScale
 70
     0
300
1/2" = 1'-0"
140
0.5
141
12.0
290
     0
  0
SCALE
  5
4E
102
{ACAD_REACTORS
330
42
102
}
330
42
100
AcDbScale
 70
     0
300
3/4" = 1'-0"
140
0.75
141
12.0
290
     0
  0
SCALE
  5
4F
102
{ACAD_REACTORS
330
42
102
}
330
42
100
AcDbScale
 70
     0
300
1" = 1'-0"
140
1.0
141
12.0
290
     0
  0
SCALE
  5
50
102
{ACAD_REACTORS
330
42
102
}
330
42
100
AcDbScale
 70
     0
300
1-1/2" = 1'-0"
140
1.5
141
12.0
290
     0
  0
SCALE
  5
51
102
{ACAD_REACTORS
330
42
102
}
330
42
100
AcDbScale
 70
     0
300
3" = 1'-0"
140
3.0
141
12.0
290
     0
  0
SCALE
  5
52
102
{ACAD_REACTORS
330
42
102
}
330
42
100
AcDbScale
 70
     0
300
6" = 1'-0"
140
6.0
141
12.0
290
     0
  0
SCALE
  5
53
102
{ACAD_REACTORS
330
42
102
}
330
42
100
AcDbScale
 70
     0
300
1'-0" = 1'-0"
140
12.0
141
12.0
290
     0
  0
ACDBSECTIONVIEWSTYLE
  5
69
102
{ACAD_XDICTIONARY
360
2AA
102
}
102
{ACAD_REACTORS
330
68
102
}
330
68
100
AcDbModelDocViewStyle
 70
     0
  3
Imperial24
290
     0
100
AcDbSectionViewStyle
 70
     0
 71
     0
 90
       78
 71
     1
340
55
 62
   256
 40
0.24
340
0
340
0
 62
   256
 40
0.24
300
I, O, Q, S, X, Z
 40
0.48
 90
        3
 40
0.18
 90
        1
 71
     2
340
5D
 90
       25
 62
   256
340
5D
 90
       50
 62
   256
 40
0.24
 40
0.0
 40
0.24
 71
     3
340
55
 62
   256
 40
0.24
 90
        1
 40
0.75
 90
        1
300
%<\AcVar ViewType \f "%tc1">% %<\AcVar ViewSectionStartId>%-%<\AcVar ViewSectionEndId>%\PSCALE %<\AcVar ViewScale \f "%sn">%
 71
     4
 62
   256
 62
   257
300
ANSI31
 40
1.0
 90
        0
290
     0
290
     0
 90
        6
 40
0.0
 40
1.570796
 40
0.261799
 40
1.308997
 40
-0.261799
 40
1.832596
  0
TABLESTYLE
  5
65
102
{ACAD_XDICTIONARY
360
2A7
102
}
102
{ACAD_REACTORS
330
64
102
}
330
64
100
AcDbTableStyle
280
     0
  3
Standard
 70
     0
 71
     0
 40
1.5
 41
1.5
280
     0
281
     0
  7
Standard
140
0.18
170
     2
 62
     0
 63
     7
283
     0
 90
      512
 91
        0
  1

274
    -2
284
     1
 64
     0
275
    -2
285
     1
 65
     0
276
    -2
286
     1
 66
     0
277
    -2
287
     1
 67
     0
278
    -2
288
     1
 68
     0
279
    -2
289
     1
 69
     0
  7
Standard
140
0.25
170
     5
 62
     0
 63
     7
283
     0
 90
      512
 91
        0
  1

274
    -2
284
     1
 64
     0
275
    -2
285
     1
 65
     0
276
    -2
286
     1
 66
     0
277
    -2
287
     1
 67
     0
278
    -2
288
     1
 68
     0
279
    -2
289
     1
 69
     0
  7
Standard
140
0.18
170
     5
 62
     0
 63
     7
283
     0
 90
      512
 91
        0
  1

274
    -2
284
     1
 64
     0
275
    -2
285
     1
 65
     0
276
    -2
286
     1
 66
     0
277
    -2
287
     1
 67
     0
278
    -2
288
     1
 68
     0
279
    -2
289
     1
 69
     0
  0
VISUALSTYLE
  5
2F
102
{ACAD_REACTORS
330
29
102
}
330
29
100
AcDbVisualStyle
  2
2dWireframe
 70
     4
177
     3
291
     0
 70
    58
 90
        0
176
     1
 90
        2
176
     1
 90
        0
176
     1
 90
        0
176
     1
 40
0.6
176
     1
 40
30.0
176
     1
 62
     7
420
 16777215
176
     1
 90
        1
176
     1
 90
        4
176
     1
 62
     7
176
     1
 62
   257
176
     1
 90
        1
176
     1
 90
        1
176
     1
 40
1.0
176
     1
 90
        0
176
     1
 62
   257
176
     1
 40
1.0
176
     1
 90
        1
176
     1
 90
        6
176
     1
 90
        2
176
     1
 62
     7
176
     1
 90
        5
176
     1
 90
        0
176
     1
 90
        0
176
     1
290
     0
176
     1
 90
        1
176
     1
 40
0.0
176
     1
 90
        0
176
     1
290
     1
176
     1
290
     1
176
     1
290
     0
176
     1
290
     0
176
     1
290
     0
176
     1
290
     0
176
     1
290
     0
176
     1
290
     0
176
     1
290
     0
176
     1
 90
       50
176
     1
 40
0.0
176
     1
 40
1.0
176
     1
 90
        0
176
     1
 62
    18
420
        0
176
     1
 90
       50
176
     1
 90
        3
176
     1
 62
     5
420
      255
176
     1
290
     0
176
     1
 90
       50
176
     1
 90
       50
176
     1
 90
       50
176
     1
290
     0
176
     1
 90
       50
176
     1
 62
   256
176
     0
 40
1.0
176
     0
 90
        2
176
     1
  1
strokes_ogs.tif
176
     1
290
     0
176
     1
 40
1.0
176
     1
 40
1.0
176
     1
1001
ACAD
1000
AcDbSavedByObjectVersion
1070
     0
  0
VISUALSTYLE
  5
2E
102
{ACAD_REACTORS
330
29
102
}
330
29
100
AcDbVisualStyle
  2
Basic
 70
     7
177
     3
291
     1
 70
    58
 90
        1
176
     1
 90
        0
176
     1
 90
        1
176
     1
 90
        0
176
     1
 40
0.6
176
     1
 40
30.0
176
     1
 62
     7
420
 16777215
176
     1
 90
        0
176
     1
 90
        4
176
     1
 62
     7
176
     1
 62
   257
176
     1
 90
        1
176
     1
 90
        1
176
     1
 40
1.0
176
     1
 90
        8
176
     1
 62
     7
176
     1
 40
1.0
176
     1
 90
        1
176
     1
 90
        6
176
     1
 90
        2
176
     1
 62
     7
176
     1
 90
        5
176
     1
 90
        0
176
     1
 90
        0
176
     1
290
     0
176
     1
 90
        1
176
     1
 40
0.0
176
     1
 90
        0
176
     1
290
     0
176
     1
290
     1
176
     1
290
     1
176
     1
290
     0
176
     1
290
     0
176
     1
290
     0
176
     1
290
     0
176
     1
290
     0
176
     1
290
     0
176
     1
 90
       50
176
     1
 40
0.0
176
     1
 40
1.0
176
     1
 90
        0
176
     1
 62
    18
420
        0
176
     1
 90
       50
176
     1
 90
        3
176
     1
 62
     5
420
      255
176
     1
290
     0
176
     1
 90
       50
176
     1
 90
       50
176
     1
 90
       50
176
     1
290
     0
176
     1
 90
       50
176
     1
 62
   256
176
     0
 40
1.0
176
     0
 90
        2
176
     1
  1
strokes_ogs.tif
176
     1
290
     0
176
     1
 40
1.0
176
     1
 40
1.0
176
     1
1001
ACAD
1000
AcDbSavedByObjectVersion
1070
     0
  0
VISUALSTYLE
  5
35
102
{ACAD_REACTORS
330
29
102
}
330
29
100
AcDbVisualStyle
  2
Brighten
 70
    12
177
     3
291
     1
 70
    58
 90
        2
176
     1
 90
        2
176
     1
 90
        0
176
     1
 90
        0
176
     1
 40
0.6
176
     1
 40
30.0
176
     1
 62
     7
420
 16777215
176
     1
 90
        1
176
     1
 90
        4
176
     1
 62
     7
176
     1
 62
   257
176
     1
 90
        1
176
     1
 90
        1
176
     1
 40
1.0
176
     1
 90
        8
176
     1
 62
     7
176
     1
 40
1.0
176
     1
 90
        1
176
     1
 90
        6
176
     1
 90
        2
176
     1
 62
     7
176
     1
 90
        5
176
     1
 90
        0
176
     1
 90
        0
176
     1
290
     0
176
     1
 90
        1
176
     1
 40
50.0
176
     1
 90
        0
176
     1
290
     0
176
     1
290
     1
176
     1
290
     1
176
     1
290
     0
176
     1
290
     0
176
     1
290
     0
176
     1
290
     0
176
     1
290
     0
176
     1
290
     0
176
     1
 90
       50
176
     1
 40
0.0
176
     1
 40
1.0
176
     1
 90
        0
176
     1
 62
    18
420
        0
176
     1
 90
       50
176
     1
 90
        3
176
     1
 62
     5
420
      255
176
     1
290
     0
176
     1
 90
       50
176
     1
 90
       50
176
     1
 90
       50
176
     1
290
     0
176
     1
 90
       50
176
     1
 62
   256
176
     0
 40
1.0
176
     0
 90
        2
176
     1
  1
strokes_ogs.tif
176
     1
290
     0
176
     1
 40
1.0
176
     1
 40
1.0
176
     1
1001
ACAD
1000
AcDbSavedByObjectVersion
1070
     0
  0
VISUALSTYLE
  5
39
102
{ACAD_REACTORS
330
29
102
}
330
29
100
AcDbVisualStyle
  2
ColorChange
 70
    16
177
     3
291
     1
 70
    58
 90
        2
176
     1
 90
        2
176
     1
 90
        3
176
     1
 90
        0
176
     1
 40
0.6
176
     1
 40
30.0
176
     1
 62
     8
420
  8421504
176
     1
 90
        1
176
     1
 90
        4
176
     1
 62
     7
176
     1
 62
   257
176
     1
 90
        1
176
     1
 90
        1
176
     1
 40
1.0
176
     1
 90
        8
176
     1
 62
     8
420
  8421504
176
     1
 40
1.0
176
     1
 90
        1
176
     1
 90
        6
176
     1
 90
        2
176
     1
 62
     7
176
     1
 90
        5
176
     1
 90
        0
176
     1
 90
        0
176
     1
290
     0
176
     1
 90
        1
176
     1
 40
0.0
176
     1
 90
        0
176
     1
290
     0
176
     1
290
     1
176
     1
290
     1
176
     1
290
     0
176
     1
290
     0
176
     1
290
     0
176
     1
290
     0
176
     1
290
     0
176
     1
290
     0
176
     1
 90
       50
176
     1
 40
0.0
176
     1
 40
1.0
176
     1
 90
        0
176
     1
 62
    18
420
        0
176
     1
 90
       50
176
     1
 90
        3
176
     1
 62
     5
420
      255
176
     1
290
     0
176
     1
 90
       50
176
     1
 90
       50
176
     1
 90
       50
176
     1
290
     0
176
     1
 90
       50
176
     1
 62
   256
176
     0
 40
1.0
176
     0
 90
        2
176
     1
  1
strokes_ogs.tif
176
     1
290
     0
176
     1
 40
1.0
176
     1
 40
1.0
176
     1
1001
ACAD
1000
AcDbSavedByObjectVersion
1070
     0
  0
VISUALSTYLE
  5
32
102
{ACAD_REACTORS
330
29
102
}
330
29
100
AcDbVisualStyle
  2
Conceptual
 70
     9
177
     3
291
     0
 70
    58
 90
        3
176
     1
 90
        2
176
     1
 90
        0
176
     1
 90
        0
176
     1
 40
0.6
176
     1
 40
30.0
176
     1
 62
     7
420
 16777215
176
     1
 90
        2
176
     1
 90
        2
176
     1
 62
     7
176
     1
 62
   257
176
     1
 90
        1
176
     1
 90
        1
176
     1
 40
179.0
176
     1
 90
        8
176
     1
 62
     7
176
     1
 40
1.0
176
     1
 90
        1
176
     1
 90
        6
176
     1
 90
        2
176
     1
 62
     7
176
     1
 90
        3
176
     1
 90
        0
176
     1
 90
        0
176
     1
290
     0
176
     1
 90
        1
176
     1
 40
0.0
176
     1
 90
        0
176
     1
290
     0
176
     1
290
     1
176
     1
290
     1
176
     1
290
     0
176
     1
290
     0
176
     1
290
     0
176
     1
290
     0
176
     1
290
     0
176
     1
290
     0
176
     1
 90
       50
176
     1
 40
0.0
176
     1
 40
1.0
176
     1
 90
        0
176
     1
 62
    18
420
        0
176
     1
 90
       50
176
     1
 90
        3
176
     1
 62
     5
420
      255
176
     1
290
     0
176
     1
 90
       50
176
     1
 90
       50
176
     1
 90
       50
176
     1
290
     0
176
     1
 90
       50
176
     1
 62
   256
176
     0
 40
1.0
176
     0
 90
        2
176
     1
  1
strokes_ogs.tif
176
     1
290
     0
176
     1
 40
1.0
176
     1
 40
1.0
176
     1
1001
ACAD
1000
AcDbSavedByObjectVersion
1070
     0
  0
VISUALSTYLE
  5
34
102
{ACAD_REACTORS
330
29
102
}
330
29
100
AcDbVisualStyle
  2
Dim
 70
    11
177
     3
291
     1
 70
    58
 90
        2
176
     1
 90
        2
176
     1
 90
        0
176
     1
 90
        0
176
     1
 40
0.6
176
     1
 40
30.0
176
     1
 62
     7
420
 16777215
176
     1
 90
        1
176
     1
 90
        4
176
     1
 62
     7
176
     1
 62
   257
176
     1
 90
        1
176
     1
 90
        1
176
     1
 40
1.0
176
     1
 90
        8
176
     1
 62
     7
176
     1
 40
1.0
176
     1
 90
        1
176
     1
 90
        6
176
     1
 90
        2
176
     1
 62
     7
176
     1
 90
        5
176
     1
 90
        0
176
     1
 90
        0
176
     1
290
     0
176
     1
 90
        1
176
     1
 40
-50.0
176
     1
 90
        0
176
     1
290
     0
176
     1
290
     1
176
     1
290
     1
176
     1
290
     0
176
     1
290
     0
176
     1
290
     0
176
     1
290
     0
176
     1
290
     0
176
     1
290
     0
176
     1
 90
       50
176
     1
 40
0.0
176
     1
 40
1.0
176
     1
 90
        0
176
     1
 62
    18
420
        0
176
     1
 90
       50
176
     1
 90
        3
176
     1
 62
     5
420
      255
176
     1
290
     0
176
     1
 90
       50
176
     1
 90
       50
176
     1
 90
       50
176
     1
290
     0
176
     1
 90
       50
176
     1
 62
   256
176
     0
 40
1.0
176
     0
 90
        2
176
     1
  1
strokes_ogs.tif
176
     1
290
     0
176
     1
 40
1.0
176
     1
 40
1.0
176
     1
1001
ACAD
1000
AcDbSavedByObjectVersion
1070
     0
  0
VISUALSTYLE
  5
41
102
{ACAD_REACTORS
330
29
102
}
330
29
100
AcDbVisualStyle
  2
EdgeColorOff
 70
    22
177
     3
291
     1
 70
    58
 90
        2
176
     0
 90
        2
176
     0
 90
        0
176
     0
 90
        0
176
     0
 40
0.6
176
     0
 40
30.0
176
     0
 62
     7
420
 16777215
176
     0
 90
        1
176
     0
 90
        4
176
     0
 62
     7
176
     0
 62
   257
176
     0
 90
        1
176
     0
 90
        1
176
     0
 40
1.0
176
     0
 90
        8
176
     2
 62
     7
176
     0
 40
1.0
176
     0
 90
        1
176
     0
 90
        6
176
     0
 90
        2
176
     0
 62
     7
176
     0
 90
        5
176
     0
 90
        0
176
     0
 90
        0
176
     0
290
     0
176
     0
 90
        1
176
     0
 40
0.0
176
     0
 90
        0
176
     0
290
     0
176
     0
290
     1
176
     0
290
     1
176
     0
290
     0
176
     0
290
     0
176
     0
290
     0
176
     0
290
     0
176
     0
290
     0
176
     0
290
     0
176
     0
 90
       50
176
     0
 40
0.0
176
     0
 40
1.0
176
     0
 90
        0
176
     0
 62
    18
420
        0
176
     0
 90
       50
176
     0
 90
        3
176
     0
 62
     5
420
      255
176
     0
290
     0
176
     0
 90
       50
176
     0
 90
       50
176
     0
 90
       50
176
     0
290
     0
176
     0
 90
       50
176
     0
 62
   256
176
     0
 40
1.0
176
     0
 90
        2
176
     0
  1
strokes_ogs.tif
176
     0
290
     0
176
     0
 40
1.0
176
     0
 40
1.0
176
     0
1001
ACAD
1000
AcDbSavedByObjectVersion
1070
     0
  0
VISUALSTYLE
  5
38
102
{ACAD_REACTORS
330
29
102
}
330
29
100
AcDbVisualStyle
  2
Facepattern
 70
    15
177
     3
291
     1
 70
    58
 90
        2
176
     1
 90
        2
176
     1
 90
        0
176
     1
 90
        0
176
     1
 40
0.6
176
     1
 40
30.0
176
     1
 62
     7
420
 16777215
176
     1
 90
        1
176
     1
 90
        4
176
     1
 62
     7
176
     1
 62
   257
176
     1
 90
        1
176
     1
 90
        1
176
     1
 40
1.0
176
     1
 90
        8
176
     1
 62
     7
176
     1
 40
1.0
176
     1
 90
        1
176
     1
 90
        6
176
     1
 90
        2
176
     1
 62
     7
176
     1
 90
        5
176
     1
 90
        0
176
     1
 90
        0
176
     1
290
     0
176
     1
 90
        1
176
     1
 40
0.0
176
     1
 90
        0
176
     1
290
     0
176
     1
290
     1
176
     1
290
     1
176
     1
290
     0
176
     1
290
     0
176
     1
290
     0
176
     1
290
     0
176
     1
290
     0
176
     1
290
     0
176
     1
 90
       50
176
     1
 40
0.0
176
     1
 40
1.0
176
     1
 90
        0
176
     1
 62
    18
420
        0
176
     1
 90
       50
176
     1
 90
        3
176
     1
 62
     5
420
      255
176
     1
290
     0
176
     1
 90
       50
176
     1
 90
       50
176
     1
 90
       50
176
     1
290
     0
176
     1
 90
       50
176
     1
 62
   256
176
     0
 40
1.0
176
     0
 90
        2
176
     1
  1
strokes_ogs.tif
176
     1
290
     0
176
     1
 40
1.0
176
     1
 40
1.0
176
     1
1001
ACAD
1000
AcDbSavedByObjectVersion
1070
     0
  0
VISUALSTYLE
  5
2A
102
{ACAD_REACTORS
330
29
102
}
330
29
100
AcDbVisualStyle
  2
Flat
 70
     0
177
     3
291
     1
 70
    58
 90
        2
176
     1
 90
        1
176
     1
 90
        1
176
     1
 90
        2
176
     1
 40
0.6
176
     1
 40
30.0
176
     1
 62
     7
420
 16777215
176
     1
 90
        0
176
     1
 90
        0
176
     1
 62
     7
176
     1
 62
   257
176
     1
 90
        1
176
     1
 90
        1
176
     1
 40
1.0
176
     1
 90
        8
176
     1
 62
     7
176
     1
 40
1.0
176
     1
 90
        1
176
     1
 90
        6
176
     1
 90
        2
176
     1
 62
     7
176
     1
 90
        5
176
     1
 90
        0
176
     1
 90
        0
176
     1
290
     0
176
     1
 90
       13
176
     1
 40
0.0
176
     1
 90
        0
176
     1
290
     0
176
     1
290
     1
176
     1
290
     1
176
     1
290
     0
176
     1
290
     0
176
     1
290
     0
176
     1
290
     0
176
     1
290
     0
176
     1
290
     0
176
     1
 90
       50
176
     1
 40
0.0
176
     1
 40
1.0
176
     1
 90
        0
176
     1
 62
    18
420
        0
176
     1
 90
       50
176
     1
 90
        3
176
     1
 62
     5
420
      255
176
     1
290
     0
176
     1
 90
       50
176
     1
 90
       50
176
     1
 90
       50
176
     1
290
     0
176
     1
 90
       50
176
     1
 62
   256
176
     0
 40
1.0
176
     0
 90
        2
176
     1
  1
strokes_ogs.tif
176
     1
290
     0
176
     1
 40
1.0
176
     1
 40
1.0
176
     1
1001
ACAD
1000
AcDbSavedByObjectVersion
1070
     0
  0
VISUALSTYLE
  5
2B
102
{ACAD_REACTORS
330
29
102
}
330
29
100
AcDbVisualStyle
  2
FlatWithEdges
 70
     1
177
     3
291
     1
 70
    58
 90
        2
176
     1
 90
        1
176
     1
 90
        1
176
     1
 90
        2
176
     1
 40
0.6
176
     1
 40
30.0
176
     1
 62
     7
420
 16777215
176
     1
 90
        1
176
     1
 90
        0
176
     1
 62
     7
176
     1
 62
   257
176
     1
 90
        1
176
     1
 90
        1
176
     1
 40
1.0
176
     1
 90
        0
176
     1
 62
   257
176
     1
 40
1.0
176
     1
 90
        1
176
     1
 90
        6
176
     1
 90
        2
176
     1
 62
     7
176
     1
 90
        5
176
     1
 90
        0
176
     1
 90
        0
176
     1
290
     0
176
     1
 90
       13
176
     1
 40
0.0
176
     1
 90
        0
176
     1
290
     0
176
     1
290
     1
176
     1
290
     1
176
     1
290
     0
176
     1
290
     0
176
     1
290
     0
176
     1
290
     0
176
     1
290
     0
176
     1
290
     0
176
     1
 90
       50
176
     1
 40
0.0
176
     1
 40
1.0
176
     1
 90
        0
176
     1
 62
    18
420
        0
176
     1
 90
       50
176
     1
 90
        3
176
     1
 62
     5
420
      255
176
     1
290
     0
176
     1
 90
       50
176
     1
 90
       50
176
     1
 90
       50
176
     1
290
     0
176
     1
 90
       50
176
     1
 62
   256
176
     0
 40
1.0
176
     0
 90
        2
176
     1
  1
strokes_ogs.tif
176
     1
290
     0
176
     1
 40
1.0
176
     1
 40
1.0
176
     1
1001
ACAD
1000
AcDbSavedByObjectVersion
1070
     0
  0
VISUALSTYLE
  5
2C
102
{ACAD_REACTORS
330
29
102
}
330
29
100
AcDbVisualStyle
  2
Gouraud
 70
     2
177
     3
291
     1
 70
    58
 90
        2
176
     1
 90
        2
176
     1
 90
        1
176
     1
 90
        2
176
     1
 40
0.6
176
     1
 40
30.0
176
     1
 62
     7
420
 16777215
176
     1
 90
        0
176
     1
 90
        0
176
     1
 62
     7
176
     1
 62
   257
176
     1
 90
        1
176
     1
 90
        1
176
     1
 40
1.0
176
     1
 90
        0
176
     1
 62
     7
176
     1
 40
1.0
176
     1
 90
        1
176
     1
 90
        6
176
     1
 90
        2
176
     1
 62
     7
176
     1
 90
        5
176
     1
 90
        0
176
     1
 90
        0
176
     1
290
     0
176
     1
 90
       13
176
     1
 40
0.0
176
     1
 90
        0
176
     1
290
     0
176
     1
290
     1
176
     1
290
     1
176
     1
290
     0
176
     1
290
     0
176
     1
290
     0
176
     1
290
     0
176
     1
290
     0
176
     1
290
     0
176
     1
 90
       50
176
     1
 40
0.0
176
     1
 40
1.0
176
     1
 90
        0
176
     1
 62
    18
420
        0
176
     1
 90
       50
176
     1
 90
        3
176
     1
 62
     5
420
      255
176
     1
290
     0
176
     1
 90
       50
176
     1
 90
       50
176
     1
 90
       50
176
     1
290
     0
176
     1
 90
       50
176
     1
 62
   256
176
     0
 40
1.0
176
     0
 90
        2
176
     1
  1
strokes_ogs.tif
176
     1
290
     0
176
     1
 40
1.0
176
     1
 40
1.0
176
     1
1001
ACAD
1000
AcDbSavedByObjectVersion
1070
     0
  0
VISUALSTYLE
  5
2D
102
{ACAD_REACTORS
330
29
102
}
330
29
100
AcDbVisualStyle
  2
GouraudWithEdges
 70
     3
177
     3
291
     1
 70
    58
 90
        2
176
     1
 90
        2
176
     1
 90
        1
176
     1
 90
        2
176
     1
 40
0.6
176
     1
 40
30.0
176
     1
 62
     7
420
 16777215
176
     1
 90
        1
176
     1
 90
        0
176
     1
 62
     7
176
     1
 62
   257
176
     1
 90
        1
176
     1
 90
        1
176
     1
 40
1.0
176
     1
 90
        0
176
     1
 62
   257
176
     1
 40
1.0
176
     1
 90
        1
176
     1
 90
        6
176
     1
 90
        2
176
     1
 62
     7
176
     1
 90
        5
176
     1
 90
        0
176
     1
 90
        0
176
     1
290
     0
176
     1
 90
       13
176
     1
 40
0.0
176
     1
 90
        0
176
     1
290
     0
176
     1
290
     1
176
     1
290
     1
176
     1
290
     0
176
     1
290
     0
176
     1
290
     0
176
     1
290
     0
176
     1
290
     0
176
     1
290
     0
176
     1
 90
       50
176
     1
 40
0.0
176
     1
 40
1.0
176
     1
 90
        0
176
     1
 62
    18
420
        0
176
     1
 90
       50
176
     1
 90
        3
176
     1
 62
     5
420
      255
176
     1
290
     0
176
     1
 90
       50
176
     1
 90
       50
176
     1
 90
       50
176
     1
290
     0
176
     1
 90
       50
176
     1
 62
   256
176
     0
 40
1.0
176
     0
 90
        2
176
     1
  1
strokes_ogs.tif
176
     1
290
     0
176
     1
 40
1.0
176
     1
 40
1.0
176
     1
1001
ACAD
1000
AcDbSavedByObjectVersion
1070
     0
  0
VISUALSTYLE
  5
31
102
{ACAD_REACTORS
330
29
102
}
330
29
100
AcDbVisualStyle
  2
Hidden
 70
     6
177
     3
291
     0
 70
    58
 90
        1
176
     1
 90
        2
176
     1
 90
        2
176
     1
 90
        0
176
     1
 40
0.6
176
     1
 40
30.0
176
     1
 62
     7
420
 16777215
176
     1
 90
        2
176
     1
 90
        2
176
     1
 62
     7
176
     1
 62
   257
176
     1
 90
        2
176
     1
 90
        1
176
     1
 40
40.0
176
     1
 90
        0
176
     1
 62
   257
176
     1
 40
1.0
176
     1
 90
        1
176
     1
 90
        6
176
     1
 90
        2
176
     1
 62
     7
176
     1
 90
        3
176
     1
 90
        0
176
     1
 90
        0
176
     1
290
     0
176
     1
 90
        1
176
     1
 40
0.0
176
     1
 90
        0
176
     1
290
     0
176
     1
290
     1
176
     1
290
     1
176
     1
290
     0
176
     1
290
     0
176
     1
290
     0
176
     1
290
     0
176
     1
290
     0
176
     1
290
     0
176
     1
 90
       50
176
     1
 40
0.0
176
     1
 40
1.0
176
     1
 90
        0
176
     1
 62
    18
420
        0
176
     1
 90
       50
176
     1
 90
        3
176
     1
 62
     5
420
      255
176
     1
290
     0
176
     1
 90
       50
176
     1
 90
       50
176
     1
 90
       50
176
     1
290
     0
176
     1
 90
       50
176
     1
 62
   256
176
     0
 40
1.0
176
     0
 90
        2
176
     1
  1
strokes_ogs.tif
176
     1
290
     0
176
     1
 40
1.0
176
     1
 40
1.0
176
     1
1001
ACAD
1000
AcDbSavedByObjectVersion
1070
     0
  0
VISUALSTYLE
  5
3F
102
{ACAD_REACTORS
330
29
102
}
330
29
100
AcDbVisualStyle
  2
JitterOff
 70
    20
177
     3
291
     1
 70
    58
 90
        2
176
     0
 90
        2
176
     0
 90
        0
176
     0
 90
        0
176
     0
 40
0.6
176
     0
 40
30.0
176
     0
 62
     7
420
 16777215
176
     0
 90
        1
176
     0
 90
        4
176
     0
 62
     7
176
     0
 62
   257
176
     0
 90
        1
176
     0
 90
        1
176
     0
 40
1.0
176
     0
 90
       10
176
     2
 62
     7
176
     0
 40
1.0
176
     0
 90
        1
176
     0
 90
        6
176
     0
 90
        2
176
     0
 62
     7
176
     0
 90
        5
176
     0
 90
        0
176
     0
 90
        0
176
     0
290
     0
176
     0
 90
        1
176
     0
 40
0.0
176
     0
 90
        0
176
     0
290
     0
176
     0
290
     1
176
     0
290
     1
176
     0
290
     0
176
     0
290
     0
176
     0
290
     0
176
     0
290
     0
176
     0
290
     0
176
     0
290
     0
176
     0
 90
       50
176
     0
 40
0.0
176
     0
 40
1.0
176
     0
 90
        0
176
     0
 62
    18
420
        0
176
     0
 90
       50
176
     0
 90
        3
176
     0
 62
     5
420
      255
176
     0
290
     0
176
     0
 90
       50
176
     0
 90
       50
176
     0
 90
       50
176
     0
290
     0
176
     0
 90
       50
176
     0
 62
   256
176
     0
 40
1.0
176
     0
 90
        2
176
     0
  1
strokes_ogs.tif
176
     0
290
     0
176
     0
 40
1.0
176
     0
 40
1.0
176
     0
1001
ACAD
1000
AcDbSavedByObjectVersion
1070
     0
  0
VISUALSTYLE
  5
37
102
{ACAD_REACTORS
330
29
102
}
330
29
100
AcDbVisualStyle
  2
Linepattern
 70
    14
177
     3
291
     1
 70
    58
 90
        2
176
     1
 90
        2
176
     1
 90
        0
176
     1
 90
        0
176
     1
 40
0.6
176
     1
 40
30.0
176
     1
 62
     7
420
 16777215
176
     1
 90
        1
176
     1
 90
        4
176
     1
 62
     7
176
     1
 62
   257
176
     1
 90
        7
176
     1
 90
        7
176
     1
 40
1.0
176
     1
 90
        8
176
     1
 62
     7
176
     1
 40
1.0
176
     1
 90
        1
176
     1
 90
        6
176
     1
 90
        2
176
     1
 62
     7
176
     1
 90
        5
176
     1
 90
        0
176
     1
 90
        0
176
     1
290
     0
176
     1
 90
        1
176
     1
 40
0.0
176
     1
 90
        0
176
     1
290
     0
176
     1
290
     1
176
     1
290
     1
176
     1
290
     0
176
     1
290
     0
176
     1
290
     0
176
     1
290
     0
176
     1
290
     0
176
     1
290
     0
176
     1
 90
       50
176
     1
 40
0.0
176
     1
 40
1.0
176
     1
 90
        0
176
     1
 62
    18
420
        0
176
     1
 90
       50
176
     1
 90
        3
176
     1
 62
     5
420
      255
176
     1
290
     0
176
     1
 90
       50
176
     1
 90
       50
176
     1
 90
       50
176
     1
290
     0
176
     1
 90
       50
176
     1
 62
   256
176
     0
 40
1.0
176
     0
 90
        2
176
     1
  1
strokes_ogs.tif
176
     1
290
     0
176
     1
 40
1.0
176
     1
 40
1.0
176
     1
1001
ACAD
1000
AcDbSavedByObjectVersion
1070
     0
  0
VISUALSTYLE
  5
40
102
{ACAD_REACTORS
330
29
102
}
330
29
100
AcDbVisualStyle
  2
OverhangOff
 70
    21
177
     3
291
     1
 70
    58
 90
        2
176
     0
 90
        2
176
     0
 90
        0
176
     0
 90
        0
176
     0
 40
0.6
176
     0
 40
30.0
176
     0
 62
     7
420
 16777215
176
     0
 90
        1
176
     0
 90
        4
176
     0
 62
     7
176
     0
 62
   257
176
     0
 90
        1
176
     0
 90
        1
176
     0
 40
1.0
176
     0
 90
        9
176
     2
 62
     7
176
     0
 40
1.0
176
     0
 90
        1
176
     0
 90
        6
176
     0
 90
        2
176
     0
 62
     7
176
     0
 90
        5
176
     0
 90
        0
176
     0
 90
        0
176
     0
290
     0
176
     0
 90
        1
176
     0
 40
0.0
176
     0
 90
        0
176
     0
290
     0
176
     0
290
     1
176
     0
290
     1
176
     0
290
     0
176
     0
290
     0
176
     0
290
     0
176
     0
290
     0
176
     0
290
     0
176
     0
290
     0
176
     0
 90
       50
176
     0
 40
0.0
176
     0
 40
1.0
176
     0
 90
        0
176
     0
 62
    18
420
        0
176
     0
 90
       50
176
     0
 90
        3
176
     0
 62
     5
420
      255
176
     0
290
     0
176
     0
 90
       50
176
     0
 90
       50
176
     0
 90
       50
176
     0
290
     0
176
     0
 90
       50
176
     0
 62
   256
176
     0
 40
1.0
176
     0
 90
        2
176
     0
  1
strokes_ogs.tif
176
     0
290
     0
176
     0
 40
1.0
176
     0
 40
1.0
176
     0
1001
ACAD
1000
AcDbSavedByObjectVersion
1070
     0
  0
VISUALSTYLE
  5
33
102
{ACAD_REACTORS
330
29
102
}
330
29
100
AcDbVisualStyle
  2
Realistic
 70
     8
177
     3
291
     0
 70
    58
 90
        2
176
     1
 90
        3
176
     1
 90
        0
176
     1
 90
        2
176
     1
 40
0.6
176
     1
 40
30.0
176
     1
 62
     7
420
 16777215
176
     1
 90
        0
176
     1
 90
        0
176
     1
 62
     7
176
     1
 62
   257
176
     1
 90
        1
176
     1
 90
        1
176
     1
 40
1.0
176
     1
 90
        8
176
     1
 62
   257
176
     1
 40
1.0
176
     1
 90
        1
176
     1
 90
        6
176
     1
 90
        2
176
     1
 62
     7
176
     1
 90
        3
176
     1
 90
        0
176
     1
 90
        0
176
     1
290
     0
176
     1
 90
       13
176
     1
 40
0.0
176
     1
 90
        0
176
     1
290
     0
176
     1
290
     1
176
     1
290
     1
176
     1
290
     0
176
     1
290
     0
176
     1
290
     0
176
     1
290
     0
176
     1
290
     0
176
     1
290
     0
176
     1
 90
       50
176
     1
 40
0.0
176
     1
 40
1.0
176
     1
 90
        0
176
     1
 62
    18
420
        0
176
     1
 90
       50
176
     1
 90
        3
176
     1
 62
     5
420
      255
176
     1
290
     0
176
     1
 90
       50
176
     1
 90
       50
176
     1
 90
       50
176
     1
290
     0
176
     1
 90
       50
176
     1
 62
   256
176
     0
 40
1.0
176
     0
 90
        2
176
     1
  1
strokes_ogs.tif
176
     1
290
     0
176
     1
 40
1.0
176
     1
 40
1.0
176
     1
1001
ACAD
1000
AcDbSavedByObjectVersion
1070
     0
  0
VISUALSTYLE
  5
3E
102
{ACAD_REACTORS
330
29
102
}
330
29
100
AcDbVisualStyle
  2
Shaded
 70
    27
177
     3
291
     0
 70
    58
 90
        2
176
     1
 90
        2
176
     1
 90
        1
176
     1
 90
        2
176
     1
 40
0.6
176
     1
 40
30.0
176
     1
 62
     7
420
 16777215
176
     1
 90
        0
176
     1
 90
        4
176
     1
 62
     7
176
     1
 62
   257
176
     1
 90
        1
176
     1
 90
        1
176
     1
 40
1.0
176
     1
 90
        8
176
     1
 62
   257
176
     1
 40
1.0
176
     1
 90
        1
176
     1
 90
        6
176
     1
 90
        2
176
     1
 62
     8
420
  7895160
176
     1
 90
        3
176
     1
 90
        0
176
     1
 90
        0
176
     1
290
     0
176
     1
 90
        5
176
     1
 40
0.0
176
     1
 90
        0
176
     1
290
     0
176
     1
290
     1
176
     1
290
     1
176
     1
290
     0
176
     1
290
     0
176
     1
290
     0
176
     1
290
     0
176
     1
290
     0
176
     1
290
     0
176
     1
 90
       50
176
     1
 40
0.0
176
     1
 40
1.0
176
     1
 90
        0
176
     1
 62
    18
420
        0
176
     1
 90
       50
176
     1
 90
        3
176
     1
 62
     5
420
      255
176
     1
290
     0
176
     1
 90
       50
176
     1
 90
       50
176
     1
 90
       50
176
     1
290
     0
176
     1
 90
       50
176
     1
 62
   256
176
     0
 40
1.0
176
     0
 90
        2
176
     1
  1
strokes_ogs.tif
176
     1
290
     0
176
     1
 40
1.0
176
     1
 40
1.0
176
     1
1001
ACAD
1000
AcDbSavedByObjectVersion
1070
     0
  0
VISUALSTYLE
  5
3D
102
{ACAD_REACTORS
330
29
102
}
330
29
100
AcDbVisualStyle
  2
Shaded with edges
 70
    26
177
     3
291
     0
 70
    58
 90
        2
176
     1
 90
        2
176
     1
 90
        1
176
     1
 90
        2
176
     1
 40
0.6
176
     1
 40
30.0
176
     1
 62
     7
420
 16777215
176
     1
 90
        1
176
     1
 90
        2
176
     1
 62
     7
176
     1
 62
   257
176
     1
 90
        2
176
     1
 90
        1
176
     1
 40
1.0
176
     1
 90
        8
176
     1
 62
   257
176
     1
 40
1.0
176
     1
 90
        1
176
     1
 90
        6
176
     1
 90
        2
176
     1
 62
     7
176
     1
 90
        3
176
     1
 90
        0
176
     1
 90
        0
176
     1
290
     0
176
     1
 90
        5
176
     1
 40
0.0
176
     1
 90
        0
176
     1
290
     0
176
     1
290
     1
176
     1
290
     1
176
     1
290
     0
176
     1
290
     0
176
     1
290
     0
176
     1
290
     0
176
     1
290
     0
176
     1
290
     0
176
     1
 90
       50
176
     1
 40
0.0
176
     1
 40
1.0
176
     1
 90
        0
176
     1
 62
    18
420
        0
176
     1
 90
       50
176
     1
 90
        3
176
     1
 62
     5
420
      255
176
     1
290
     0
176
     1
 90
       50
176
     1
 90
       50
176
     1
 90
       50
176
     1
290
     0
176
     1
 90
       50
176
     1
 62
   256
176
     0
 40
1.0
176
     0
 90
        2
176
     1
  1
strokes_ogs.tif
176
     1
290
     0
176
     1
 40
1.0
176
     1
 40
1.0
176
     1
1001
ACAD
1000
AcDbSavedByObjectVersion
1070
     0
  0
VISUALSTYLE
  5
3A
102
{ACAD_REACTORS
330
29
102
}
330
29
100
AcDbVisualStyle
  2
Shades of Gray
 70
    23
177
     3
291
     0
 70
    58
 90
        2
176
     1
 90
        2
176
     1
 90
        3
176
     1
 90
        0
176
     1
 40
0.6
176
     1
 40
30.0
176
     1
 62
     7
420
 16777215
176
     1
 90
        2
176
     1
 90
        2
176
     1
 62
     7
176
     1
 62
     7
176
     1
 90
        1
176
     1
 90
        1
176
     1
 40
40.0
176
     1
 90
        8
176
     1
 62
     7
176
     1
 40
1.0
176
     1
 90
        1
176
     1
 90
        6
176
     1
 90
        2
176
     1
 62
     7
176
     1
 90
        3
176
     1
 90
        0
176
     1
 90
        0
176
     1
290
     0
176
     1
 90
        1
176
     1
 40
0.0
176
     1
 90
        0
176
     1
290
     0
176
     1
290
     1
176
     1
290
     1
176
     1
290
     0
176
     1
290
     0
176
     1
290
     0
176
     1
290
     0
176
     1
290
     0
176
     1
290
     0
176
     1
 90
       50
176
     1
 40
0.0
176
     1
 40
1.0
176
     1
 90
        0
176
     1
 62
    18
420
        0
176
     1
 90
       50
176
     1
 90
        3
176
     1
 62
     5
420
      255
176
     1
290
     0
176
     1
 90
       50
176
     1
 90
       50
176
     1
 90
       50
176
     1
290
     0
176
     1
 90
       50
176
     1
 62
   256
176
     0
 40
1.0
176
     0
 90
        2
176
     1
  1
strokes_ogs.tif
176
     1
290
     0
176
     1
 40
1.0
176
     1
 40
1.0
176
     1
1001
ACAD
1000
AcDbSavedByObjectVersion
1070
     0
  0
VISUALSTYLE
  5
3B
102
{ACAD_REACTORS
330
29
102
}
330
29
100
AcDbVisualStyle
  2
Sketchy
 70
    24
177
     3
291
     0
 70
    58
 90
        1
176
     1
 90
        2
176
     1
 90
        2
176
     1
 90
        0
176
     1
 40
0.6
176
     1
 40
30.0
176
     1
 62
     7
420
 16777215
176
     1
 90
        2
176
     1
 90
        2
176
     1
 62
     7
176
     1
 62
     7
176
     1
 90
        1
176
     1
 90
        1
176
     1
 40
40.0
176
     1
 90
       11
176
     1
 62
     7
176
     1
 40
1.0
176
     1
 90
        1
176
     1
 90
        6
176
     1
 90
        2
176
     1
 62
     7
176
     1
 90
        6
176
     1
 90
        0
176
     1
 90
        0
176
     1
290
     0
176
     1
 90
        1
176
     1
 40
0.0
176
     1
 90
        0
176
     1
290
     0
176
     1
290
     1
176
     1
290
     1
176
     1
290
     0
176
     1
290
     0
176
     1
290
     0
176
     1
290
     0
176
     1
290
     0
176
     1
290
     0
176
     1
 90
       50
176
     1
 40
0.0
176
     1
 40
1.0
176
     1
 90
        0
176
     1
 62
    18
420
        0
176
     1
 90
       50
176
     1
 90
        3
176
     1
 62
     5
420
      255
176
     1
290
     0
176
     1
 90
       50
176
     1
 90
       50
176
     1
 90
       50
176
     1
290
     0
176
     1
 90
       50
176
     1
 62
   256
176
     0
 40
1.0
176
     0
 90
        2
176
     1
  1
strokes_ogs.tif
176
     1
290
     0
176
     1
 40
1.0
176
     1
 40
1.0
176
     1
1001
ACAD
1000
AcDbSavedByObjectVersion
1070
     0
  0
VISUALSTYLE
  5
36
102
{ACAD_REACTORS
330
29
102
}
330
29
100
AcDbVisualStyle
  2
Thicken
 70
    13
177
     3
291
     1
 70
    58
 90
        2
176
     1
 90
        2
176
     1
 90
        0
176
     1
 90
        0
176
     1
 40
0.6
176
     1
 40
30.0
176
     1
 62
     7
420
 16777215
176
     1
 90
        1
176
     1
 90
        4
176
     1
 62
     7
176
     1
 62
   257
176
     1
 90
        1
176
     1
 90
        1
176
     1
 40
1.0
176
     1
 90
       12
176
     1
 62
     7
176
     1
 40
1.0
176
     1
 90
        1
176
     1
 90
        6
176
     1
 90
        2
176
     1
 62
     7
176
     1
 90
        5
176
     1
 90
        0
176
     1
 90
        0
176
     1
290
     0
176
     1
 90
        1
176
     1
 40
0.0
176
     1
 90
        0
176
     1
290
     0
176
     1
290
     1
176
     1
290
     1
176
     1
290
     0
176
     1
290
     0
176
     1
290
     0
176
     1
290
     0
176
     1
290
     0
176
     1
290
     0
176
     1
 90
       50
176
     1
 40
0.0
176
     1
 40
1.0
176
     1
 90
        0
176
     1
 62
    18
420
        0
176
     1
 90
       50
176
     1
 90
        3
176
     1
 62
     5
420
      255
176
     1
290
     0
176
     1
 90
       50
176
     1
 90
       50
176
     1
 90
       50
176
     1
290
     0
176
     1
 90
       50
176
     1
 62
   256
176
     0
 40
1.0
176
     0
 90
        2
176
     1
  1
strokes_ogs.tif
176
     1
290
     0
176
     1
 40
1.0
176
     1
 40
1.0
176
     1
1001
ACAD
1000
AcDbSavedByObjectVersion
1070
     0
  0
VISUALSTYLE
  5
30
102
{ACAD_REACTORS
330
29
102
}
330
29
100
AcDbVisualStyle
  2
Wireframe
 70
     5
177
     3
291
     0
 70
    58
 90
        0
176
     1
 90
        2
176
     1
 90
        0
176
     1
 90
        0
176
     1
 40
0.6
176
     1
 40
30.0
176
     1
 62
     7
420
 16777215
176
     1
 90
        1
176
     1
 90
        4
176
     1
 62
     7
176
     1
 62
   257
176
     1
 90
        1
176
     1
 90
        1
176
     1
 40
1.0
176
     1
 90
        0
176
     1
 62
   257
176
     1
 40
1.0
176
     1
 90
        1
176
     1
 90
        6
176
     1
 90
        2
176
     1
 62
     7
176
     1
 90
        3
176
     1
 90
        0
176
     1
 90
        0
176
     1
290
     0
176
     1
 90
        1
176
     1
 40
0.0
176
     1
 90
        0
176
     1
290
     0
176
     1
290
     1
176
     1
290
     1
176
     1
290
     0
176
     1
290
     0
176
     1
290
     0
176
     1
290
     0
176
     1
290
     0
176
     1
290
     0
176
     1
 90
       50
176
     1
 40
0.0
176
     1
 40
1.0
176
     1
 90
        0
176
     1
 62
    18
420
        0
176
     1
 90
       50
176
     1
 90
        3
176
     1
 62
     5
420
      255
176
     1
290
     0
176
     1
 90
       50
176
     1
 90
       50
176
     1
 90
       50
176
     1
290
     0
176
     1
 90
       50
176
     1
 62
   256
176
     0
 40
1.0
176
     0
 90
        2
176
     1
  1
strokes_ogs.tif
176
     1
290
     0
176
     1
 40
1.0
176
     1
 40
1.0
176
     1
1001
ACAD
1000
AcDbSavedByObjectVersion
1070
     0
  0
VISUALSTYLE
  5
3C
102
{ACAD_REACTORS
330
29
102
}
330
29
100
AcDbVisualStyle
  2
X-Ray
 70
    25
177
     3
291
     0
 70
    58
 90
        2
176
     1
 90
        2
176
     1
 90
        1
176
     1
 90
        1
176
     1
 40
0.5
176
     1
 40
30.0
176
     1
 62
     7
420
 16777215
176
     1
 90
        1
176
     1
 90
        0
176
     1
 62
     7
176
     1
 62
   257
176
     1
 90
        1
176
     1
 90
        1
176
     1
 40
1.0
176
     1
 90
        8
176
     1
 62
     7
176
     1
 40
1.0
176
     1
 90
        1
176
     1
 90
        6
176
     1
 90
        2
176
     1
 62
     7
176
     1
 90
        3
176
     1
 90
        0
176
     1
 90
        0
176
     1
290
     0
176
     1
 90
       13
176
     1
 40
0.0
176
     1
 90
        0
176
     1
290
     0
176
     1
290
     1
176
     1
290
     1
176
     1
290
     0
176
     1
290
     0
176
     1
290
     0
176
     1
290
     0
176
     1
290
     0
176
     1
290
     0
176
     1
 90
       50
176
     1
 40
0.0
176
     1
 40
1.0
176
     1
 90
        0
176
     1
 62
    18
420
        0
176
     1
 90
       50
176
     1
 90
        3
176
     1
 62
     5
420
      255
176
     1
290
     0
176
     1
 90
       50
176
     1
 90
       50
176
     1
 90
       50
176
     1
290
     0
176
     1
 90
       50
176
     1
 62
   256
176
     0
 40
1.0
176
     0
 90
        2
176
     1
  1
strokes_ogs.tif
176
     1
290
     0
176
     1
 40
1.0
176
     1
 40
1.0
176
     1
1001
ACAD
1000
AcDbSavedByObjectVersion
1070
     0
  0
DICTIONARYVAR
  5
2A5
102
{ACAD_REACTORS
330
2A0
102
}
330
2A0
100
DictionaryVariables
280
     0
  1
0
  0
DICTIONARYVAR
  5
2A6
102
{ACAD_REACTORS
330
2A0
102
}
330
2A0
100
DictionaryVariables
280
     0
  1
1:1
  0
DICTIONARYVAR
  5
2A2
102
{ACAD_REACTORS
330
2A0
102
}
330
2A0
100
DictionaryVariables
280
     0
  1
STANDARD
  0
DICTIONARYVAR
  5
2A1
102
{ACAD_REACTORS
330
2A0
102
}
330
2A0
100
DictionaryVariables
280
     0
  1
STANDARD
  0
DICTIONARYVAR
  5
2A3
102
{ACAD_REACTORS
330
2A0
102
}
330
2A0
100
DictionaryVariables
280
     0
  1
Imperial24
  0
DICTIONARYVAR
  5
2A4
102
{ACAD_REACTORS
330
2A0
102
}
330
2A0
100
DictionaryVariables
280
     0
  1
Imperial24
  0
DICTIONARY
  5
2AC
330
6B
100
AcDbDictionary
280
     1
281
     1
  3
ACAD_XREC_ROUNDTRIP
360
2AD
  0
DICTIONARY
  5
1A
330
19
100
AcDbDictionary
280
     1
281
     1
  3
BUMPTILE
360
1C
  3
DIFFUSETILE
360
1B
  3
OPACITYTILE
360
1F
  3
REFLECTIONTILE
360
1E
  3
REFRACTIONTILE
360
20
  3
SPECULARTILE
360
1D
  0
DICTIONARY
  5
12
330
11
100
AcDbDictionary
280
     1
281
     1
  3
BUMPTILE
360
14
  3
DIFFUSETILE
360
13
  3
OPACITYTILE
360
17
  3
REFLECTIONTILE
360
16
  3
REFRACTIONTILE
360
18
  3
SPECULARTILE
360
15
  0
DICTIONARY
  5
22
330
21
100
AcDbDictionary
280
     1
281
     1
  3
BUMPTILE
360
24
  3
DIFFUSETILE
360
23
  3
OPACITYTILE
360
27
  3
REFLECTIONTILE
360
26
  3
REFRACTIONTILE
360
28
  3
SPECULARTILE
360
25
  0
DICTIONARY
  5
2AA
330
69
100
AcDbDictionary
280
     1
281
     1
  3
ACAD_XREC_ROUNDTRIP
360
2AB
  0
DICTIONARY
  5
2A7
330
65
100
AcDbDictionary
280
     1
281
     1
  3
ACAD_ROUNDTRIP_2008_TABLESTYLE_CELLSTYLEMAP
360
2A8
  0
XRECORD
  5
2AD
102
{ACAD_REACTORS
330
2AC
102
}
330
2AC
100
AcDbXrecord
280
     1
102
DISPLAYNAME
  1
Imperial24
102
FLAGS
 90
        0
  0
XRECORD
  5
1C
102
{ACAD_REACTORS
330
1A
102
}
330
1A
100
AcDbXrecord
280
     1
270
     1
271
     1
  0
XRECORD
  5
1B
102
{ACAD_REACTORS
330
1A
102
}
330
1A
100
AcDbXrecord
280
     1
270
     1
271
     1
  0
XRECORD
  5
1F
102
{ACAD_REACTORS
330
1A
102
}
330
1A
100
AcDbXrecord
280
     1
270
     1
271
     1
  0
XRECORD
  5
1E
102
{ACAD_REACTORS
330
1A
102
}
330
1A
100
AcDbXrecord
280
     1
270
     1
271
     1
  0
XRECORD
  5
20
102
{ACAD_REACTORS
330
1A
102
}
330
1A
100
AcDbXrecord
280
     1
270
     1
271
     1
  0
XRECORD
  5
1D
102
{ACAD_REACTORS
330
1A
102
}
330
1A
100
AcDbXrecord
280
     1
270
     1
271
     1
  0
XRECORD
  5
14
102
{ACAD_REACTORS
330
12
102
}
330
12
100
AcDbXrecord
280
     1
270
     1
271
     1
  0
XRECORD
  5
13
102
{ACAD_REACTORS
330
12
102
}
330
12
100
AcDbXrecord
280
     1
270
     1
271
     1
  0
XRECORD
  5
17
102
{ACAD_REACTORS
330
12
102
}
330
12
100
AcDbXrecord
280
     1
270
     1
271
     1
  0
XRECORD
  5
16
102
{ACAD_REACTORS
330
12
102
}
330
12
100
AcDbXrecord
280
     1
270
     1
271
     1
  0
XRECORD
  5
18
102
{ACAD_REACTORS
330
12
102
}
330
12
100
AcDbXrecord
280
     1
270
     1
271
     1
  0
XRECORD
  5
15
102
{ACAD_REACTORS
330
12
102
}
330
12
100
AcDbXrecord
280
     1
270
     1
271
     1
  0
XRECORD
  5
24
102
{ACAD_REACTORS
330
22
102
}
330
22
100
AcDbXrecord
280
     1
270
     1
271
     1
  0
XRECORD
  5
23
102
{ACAD_REACTORS
330
22
102
}
330
22
100
AcDbXrecord
280
     1
270
     1
271
     1
  0
XRECORD
  5
27
102
{ACAD_REACTORS
330
22
102
}
330
22
100
AcDbXrecord
280
     1
270
     1
271
     1
  0
XRECORD
  5
26
102
{ACAD_REACTORS
330
22
102
}
330
22
100
AcDbXrecord
280
     1
270
     1
271
     1
  0
XRECORD
  5
28
102
{ACAD_REACTORS
330
22
102
}
330
22
100
AcDbXrecord
280
     1
270
     1
271
     1
  0
XRECORD
  5
25
102
{ACAD_REACTORS
330
22
102
}
330
22
100
AcDbXrecord
280
     1
270
     1
271
     1
  0
XRECORD
  5
2AB
102
{ACAD_REACTORS
330
2AA
102
}
330
2AA
100
AcDbXrecord
280
     1
102
DISPLAYNAME
  1
Imperial24
102
FLAGS
 90
        0
  0
CELLSTYLEMAP
  5
2A8
102
{ACAD_REACTORS
330
2A7
102
}
330
2A7
100
AcDbCellStyleMap
 90
        3
300
CELLSTYLE
  1
TABLEFORMAT_BEGIN
 90
        5
170
     1
 91
        0
 92
    32768
 62
   257
 93
        1
300
CONTENTFORMAT
  1
CONTENTFORMAT_BEGIN
 90
        0
 91
        0
 92
      512
 93
        0
300

 40
0.0
140
1.0
 94
        5
 62
     0
340
55
144
0.25
309
CONTENTFORMAT_END
171
     1
301
MARGIN
  1
CELLMARGIN_BEGIN
 40
1.5
 40
1.5
 40
1.5
 40
1.5
 40
0.18
 40
0.18
309
CELLMARGIN_END
 94
        0
309
TABLEFORMAT_END
  1
CELLSTYLE_BEGIN
 90
        1
 91
        1
300
_TITLE
309
CELLSTYLE_END
300
CELLSTYLE
  1
TABLEFORMAT_BEGIN
 90
        5
170
     1
 91
        0
 92
        0
 62
   257
 93
        1
300
CONTENTFORMAT
  1
CONTENTFORMAT_BEGIN
 90
        0
 91
        0
 92
      512
 93
        0
300

 40
0.0
140
1.0
 94
        5
 62
     0
340
55
144
0.18
309
CONTENTFORMAT_END
171
     1
301
MARGIN
  1
CELLMARGIN_BEGIN
 40
1.5
 40
1.5
 40
1.5
 40
1.5
 40
0.18
 40
0.18
309
CELLMARGIN_END
 94
        0
309
TABLEFORMAT_END
  1
CELLSTYLE_BEGIN
 90
        2
 91
        1
300
_HEADER
309
CELLSTYLE_END
300
CELLSTYLE
  1
TABLEFORMAT_BEGIN
 90
        5
170
     1
 91
        0
 92
        0
 62
   257
 93
        1
300
CONTENTFORMAT
  1
CONTENTFORMAT_BEGIN
 90
        0
 91
        0
 92
      512
 93
        0
300

 40
0.0
140
1.0
 94
        2
 62
     0
340
55
144
0.18
309
CONTENTFORMAT_END
171
     1
301
MARGIN
  1
CELLMARGIN_BEGIN
 40
1.5
 40
1.5
 40
1.5
 40
1.5
 40
0.18
 40
0.18
309
CELLMARGIN_END
 94
        0
309
TABLEFORMAT_END
  1
CELLSTYLE_BEGIN
 90
        3
 91
        2
300
_DATA
309
CELLSTYLE_END
  0
ENDSEC
  0
EOF
